G04 #@! TF.GenerationSoftware,KiCad,Pcbnew,(5.0.2)-1*
G04 #@! TF.CreationDate,2019-02-06T21:08:15+01:00*
G04 #@! TF.ProjectId,parkranger,7061726b-7261-46e6-9765-722e6b696361,rev?*
G04 #@! TF.SameCoordinates,Original*
G04 #@! TF.FileFunction,Copper,L2,Bot*
G04 #@! TF.FilePolarity,Positive*
%FSLAX46Y46*%
G04 Gerber Fmt 4.6, Leading zero omitted, Abs format (unit mm)*
G04 Created by KiCad (PCBNEW (5.0.2)-1) date 06.02.2019 21:08:15*
%MOMM*%
%LPD*%
G01*
G04 APERTURE LIST*
G04 #@! TA.AperFunction,ComponentPad*
%ADD10R,1.600000X1.600000*%
G04 #@! TD*
G04 #@! TA.AperFunction,ComponentPad*
%ADD11C,1.600000*%
G04 #@! TD*
G04 #@! TA.AperFunction,ComponentPad*
%ADD12O,2.000000X1.700000*%
G04 #@! TD*
G04 #@! TA.AperFunction,Conductor*
%ADD13C,0.100000*%
G04 #@! TD*
G04 #@! TA.AperFunction,ComponentPad*
%ADD14C,1.700000*%
G04 #@! TD*
G04 #@! TA.AperFunction,ComponentPad*
%ADD15O,1.700000X1.950000*%
G04 #@! TD*
G04 #@! TA.AperFunction,ComponentPad*
%ADD16O,1.950000X1.700000*%
G04 #@! TD*
G04 #@! TA.AperFunction,ComponentPad*
%ADD17O,1.700000X1.700000*%
G04 #@! TD*
G04 #@! TA.AperFunction,ComponentPad*
%ADD18R,1.700000X1.700000*%
G04 #@! TD*
G04 #@! TA.AperFunction,ComponentPad*
%ADD19O,1.600000X1.600000*%
G04 #@! TD*
G04 #@! TA.AperFunction,ComponentPad*
%ADD20O,1.905000X2.000000*%
G04 #@! TD*
G04 #@! TA.AperFunction,ComponentPad*
%ADD21R,1.905000X2.000000*%
G04 #@! TD*
G04 #@! TA.AperFunction,ComponentPad*
%ADD22R,1.500000X1.500000*%
G04 #@! TD*
G04 #@! TA.AperFunction,ComponentPad*
%ADD23C,1.500000*%
G04 #@! TD*
G04 #@! TA.AperFunction,ComponentPad*
%ADD24O,1.700000X2.000000*%
G04 #@! TD*
G04 #@! TA.AperFunction,ViaPad*
%ADD25C,0.800000*%
G04 #@! TD*
G04 #@! TA.AperFunction,Conductor*
%ADD26C,0.400000*%
G04 #@! TD*
G04 #@! TA.AperFunction,Conductor*
%ADD27C,0.300000*%
G04 #@! TD*
G04 #@! TA.AperFunction,Conductor*
%ADD28C,0.600000*%
G04 #@! TD*
G04 #@! TA.AperFunction,Conductor*
%ADD29C,0.800000*%
G04 #@! TD*
G04 #@! TA.AperFunction,Conductor*
%ADD30C,0.254000*%
G04 #@! TD*
G04 APERTURE END LIST*
D10*
G04 #@! TO.P,C2,1*
G04 #@! TO.N,+5V*
X162560000Y-111760000D03*
D11*
G04 #@! TO.P,C2,2*
G04 #@! TO.N,GND*
X166060000Y-111760000D03*
G04 #@! TD*
G04 #@! TO.P,C1,2*
G04 #@! TO.N,GND*
X166060000Y-100330000D03*
D10*
G04 #@! TO.P,C1,1*
G04 #@! TO.N,+12V*
X162560000Y-100330000D03*
G04 #@! TD*
D11*
G04 #@! TO.P,C3,2*
G04 #@! TO.N,+5V*
X174070000Y-91440000D03*
G04 #@! TO.P,C3,1*
G04 #@! TO.N,GND*
X179070000Y-91440000D03*
G04 #@! TD*
G04 #@! TO.P,C4,2*
G04 #@! TO.N,+5V*
X174070000Y-95250000D03*
G04 #@! TO.P,C4,1*
G04 #@! TO.N,GND*
X179070000Y-95250000D03*
G04 #@! TD*
D12*
G04 #@! TO.P,J1,2*
G04 #@! TO.N,GND*
X156210000Y-107910000D03*
D13*
G04 #@! TD*
G04 #@! TO.N,+12V*
G04 #@! TO.C,J1*
G36*
X156984504Y-104561204D02*
X157008773Y-104564804D01*
X157032571Y-104570765D01*
X157055671Y-104579030D01*
X157077849Y-104589520D01*
X157098893Y-104602133D01*
X157118598Y-104616747D01*
X157136777Y-104633223D01*
X157153253Y-104651402D01*
X157167867Y-104671107D01*
X157180480Y-104692151D01*
X157190970Y-104714329D01*
X157199235Y-104737429D01*
X157205196Y-104761227D01*
X157208796Y-104785496D01*
X157210000Y-104810000D01*
X157210000Y-106010000D01*
X157208796Y-106034504D01*
X157205196Y-106058773D01*
X157199235Y-106082571D01*
X157190970Y-106105671D01*
X157180480Y-106127849D01*
X157167867Y-106148893D01*
X157153253Y-106168598D01*
X157136777Y-106186777D01*
X157118598Y-106203253D01*
X157098893Y-106217867D01*
X157077849Y-106230480D01*
X157055671Y-106240970D01*
X157032571Y-106249235D01*
X157008773Y-106255196D01*
X156984504Y-106258796D01*
X156960000Y-106260000D01*
X155460000Y-106260000D01*
X155435496Y-106258796D01*
X155411227Y-106255196D01*
X155387429Y-106249235D01*
X155364329Y-106240970D01*
X155342151Y-106230480D01*
X155321107Y-106217867D01*
X155301402Y-106203253D01*
X155283223Y-106186777D01*
X155266747Y-106168598D01*
X155252133Y-106148893D01*
X155239520Y-106127849D01*
X155229030Y-106105671D01*
X155220765Y-106082571D01*
X155214804Y-106058773D01*
X155211204Y-106034504D01*
X155210000Y-106010000D01*
X155210000Y-104810000D01*
X155211204Y-104785496D01*
X155214804Y-104761227D01*
X155220765Y-104737429D01*
X155229030Y-104714329D01*
X155239520Y-104692151D01*
X155252133Y-104671107D01*
X155266747Y-104651402D01*
X155283223Y-104633223D01*
X155301402Y-104616747D01*
X155321107Y-104602133D01*
X155342151Y-104589520D01*
X155364329Y-104579030D01*
X155387429Y-104570765D01*
X155411227Y-104564804D01*
X155435496Y-104561204D01*
X155460000Y-104560000D01*
X156960000Y-104560000D01*
X156984504Y-104561204D01*
X156984504Y-104561204D01*
G37*
D14*
G04 #@! TO.P,J1,1*
G04 #@! TO.N,+12V*
X156210000Y-105410000D03*
G04 #@! TD*
D15*
G04 #@! TO.P,J3,4*
G04 #@! TO.N,GND*
X186810000Y-88900000D03*
G04 #@! TO.P,J3,3*
G04 #@! TO.N,Net-(J3-Pad3)*
X189310000Y-88900000D03*
G04 #@! TO.P,J3,2*
G04 #@! TO.N,Net-(J3-Pad2)*
X191810000Y-88900000D03*
D13*
G04 #@! TD*
G04 #@! TO.N,+5V*
G04 #@! TO.C,J3*
G36*
X194934504Y-87926204D02*
X194958773Y-87929804D01*
X194982571Y-87935765D01*
X195005671Y-87944030D01*
X195027849Y-87954520D01*
X195048893Y-87967133D01*
X195068598Y-87981747D01*
X195086777Y-87998223D01*
X195103253Y-88016402D01*
X195117867Y-88036107D01*
X195130480Y-88057151D01*
X195140970Y-88079329D01*
X195149235Y-88102429D01*
X195155196Y-88126227D01*
X195158796Y-88150496D01*
X195160000Y-88175000D01*
X195160000Y-89625000D01*
X195158796Y-89649504D01*
X195155196Y-89673773D01*
X195149235Y-89697571D01*
X195140970Y-89720671D01*
X195130480Y-89742849D01*
X195117867Y-89763893D01*
X195103253Y-89783598D01*
X195086777Y-89801777D01*
X195068598Y-89818253D01*
X195048893Y-89832867D01*
X195027849Y-89845480D01*
X195005671Y-89855970D01*
X194982571Y-89864235D01*
X194958773Y-89870196D01*
X194934504Y-89873796D01*
X194910000Y-89875000D01*
X193710000Y-89875000D01*
X193685496Y-89873796D01*
X193661227Y-89870196D01*
X193637429Y-89864235D01*
X193614329Y-89855970D01*
X193592151Y-89845480D01*
X193571107Y-89832867D01*
X193551402Y-89818253D01*
X193533223Y-89801777D01*
X193516747Y-89783598D01*
X193502133Y-89763893D01*
X193489520Y-89742849D01*
X193479030Y-89720671D01*
X193470765Y-89697571D01*
X193464804Y-89673773D01*
X193461204Y-89649504D01*
X193460000Y-89625000D01*
X193460000Y-88175000D01*
X193461204Y-88150496D01*
X193464804Y-88126227D01*
X193470765Y-88102429D01*
X193479030Y-88079329D01*
X193489520Y-88057151D01*
X193502133Y-88036107D01*
X193516747Y-88016402D01*
X193533223Y-87998223D01*
X193551402Y-87981747D01*
X193571107Y-87967133D01*
X193592151Y-87954520D01*
X193614329Y-87944030D01*
X193637429Y-87935765D01*
X193661227Y-87929804D01*
X193685496Y-87926204D01*
X193710000Y-87925000D01*
X194910000Y-87925000D01*
X194934504Y-87926204D01*
X194934504Y-87926204D01*
G37*
D14*
G04 #@! TO.P,J3,1*
G04 #@! TO.N,+5V*
X194310000Y-88900000D03*
G04 #@! TD*
D16*
G04 #@! TO.P,J4,5*
G04 #@! TO.N,+5V*
X212090000Y-111920000D03*
G04 #@! TO.P,J4,4*
G04 #@! TO.N,Net-(J4-Pad4)*
X212090000Y-114420000D03*
G04 #@! TO.P,J4,3*
G04 #@! TO.N,Net-(J4-Pad3)*
X212090000Y-116920000D03*
G04 #@! TO.P,J4,2*
G04 #@! TO.N,Net-(J4-Pad2)*
X212090000Y-119420000D03*
D13*
G04 #@! TD*
G04 #@! TO.N,GND*
G04 #@! TO.C,J4*
G36*
X212839504Y-121071204D02*
X212863773Y-121074804D01*
X212887571Y-121080765D01*
X212910671Y-121089030D01*
X212932849Y-121099520D01*
X212953893Y-121112133D01*
X212973598Y-121126747D01*
X212991777Y-121143223D01*
X213008253Y-121161402D01*
X213022867Y-121181107D01*
X213035480Y-121202151D01*
X213045970Y-121224329D01*
X213054235Y-121247429D01*
X213060196Y-121271227D01*
X213063796Y-121295496D01*
X213065000Y-121320000D01*
X213065000Y-122520000D01*
X213063796Y-122544504D01*
X213060196Y-122568773D01*
X213054235Y-122592571D01*
X213045970Y-122615671D01*
X213035480Y-122637849D01*
X213022867Y-122658893D01*
X213008253Y-122678598D01*
X212991777Y-122696777D01*
X212973598Y-122713253D01*
X212953893Y-122727867D01*
X212932849Y-122740480D01*
X212910671Y-122750970D01*
X212887571Y-122759235D01*
X212863773Y-122765196D01*
X212839504Y-122768796D01*
X212815000Y-122770000D01*
X211365000Y-122770000D01*
X211340496Y-122768796D01*
X211316227Y-122765196D01*
X211292429Y-122759235D01*
X211269329Y-122750970D01*
X211247151Y-122740480D01*
X211226107Y-122727867D01*
X211206402Y-122713253D01*
X211188223Y-122696777D01*
X211171747Y-122678598D01*
X211157133Y-122658893D01*
X211144520Y-122637849D01*
X211134030Y-122615671D01*
X211125765Y-122592571D01*
X211119804Y-122568773D01*
X211116204Y-122544504D01*
X211115000Y-122520000D01*
X211115000Y-121320000D01*
X211116204Y-121295496D01*
X211119804Y-121271227D01*
X211125765Y-121247429D01*
X211134030Y-121224329D01*
X211144520Y-121202151D01*
X211157133Y-121181107D01*
X211171747Y-121161402D01*
X211188223Y-121143223D01*
X211206402Y-121126747D01*
X211226107Y-121112133D01*
X211247151Y-121099520D01*
X211269329Y-121089030D01*
X211292429Y-121080765D01*
X211316227Y-121074804D01*
X211340496Y-121071204D01*
X211365000Y-121070000D01*
X212815000Y-121070000D01*
X212839504Y-121071204D01*
X212839504Y-121071204D01*
G37*
D14*
G04 #@! TO.P,J4,1*
G04 #@! TO.N,GND*
X212090000Y-121920000D03*
G04 #@! TD*
D16*
G04 #@! TO.P,J6,5*
G04 #@! TO.N,+12V*
X212090000Y-92870000D03*
G04 #@! TO.P,J6,4*
G04 #@! TO.N,Net-(J6-Pad4)*
X212090000Y-95370000D03*
G04 #@! TO.P,J6,3*
G04 #@! TO.N,Net-(J6-Pad3)*
X212090000Y-97870000D03*
G04 #@! TO.P,J6,2*
G04 #@! TO.N,Net-(J6-Pad2)*
X212090000Y-100370000D03*
D13*
G04 #@! TD*
G04 #@! TO.N,GND*
G04 #@! TO.C,J6*
G36*
X212839504Y-102021204D02*
X212863773Y-102024804D01*
X212887571Y-102030765D01*
X212910671Y-102039030D01*
X212932849Y-102049520D01*
X212953893Y-102062133D01*
X212973598Y-102076747D01*
X212991777Y-102093223D01*
X213008253Y-102111402D01*
X213022867Y-102131107D01*
X213035480Y-102152151D01*
X213045970Y-102174329D01*
X213054235Y-102197429D01*
X213060196Y-102221227D01*
X213063796Y-102245496D01*
X213065000Y-102270000D01*
X213065000Y-103470000D01*
X213063796Y-103494504D01*
X213060196Y-103518773D01*
X213054235Y-103542571D01*
X213045970Y-103565671D01*
X213035480Y-103587849D01*
X213022867Y-103608893D01*
X213008253Y-103628598D01*
X212991777Y-103646777D01*
X212973598Y-103663253D01*
X212953893Y-103677867D01*
X212932849Y-103690480D01*
X212910671Y-103700970D01*
X212887571Y-103709235D01*
X212863773Y-103715196D01*
X212839504Y-103718796D01*
X212815000Y-103720000D01*
X211365000Y-103720000D01*
X211340496Y-103718796D01*
X211316227Y-103715196D01*
X211292429Y-103709235D01*
X211269329Y-103700970D01*
X211247151Y-103690480D01*
X211226107Y-103677867D01*
X211206402Y-103663253D01*
X211188223Y-103646777D01*
X211171747Y-103628598D01*
X211157133Y-103608893D01*
X211144520Y-103587849D01*
X211134030Y-103565671D01*
X211125765Y-103542571D01*
X211119804Y-103518773D01*
X211116204Y-103494504D01*
X211115000Y-103470000D01*
X211115000Y-102270000D01*
X211116204Y-102245496D01*
X211119804Y-102221227D01*
X211125765Y-102197429D01*
X211134030Y-102174329D01*
X211144520Y-102152151D01*
X211157133Y-102131107D01*
X211171747Y-102111402D01*
X211188223Y-102093223D01*
X211206402Y-102076747D01*
X211226107Y-102062133D01*
X211247151Y-102049520D01*
X211269329Y-102039030D01*
X211292429Y-102030765D01*
X211316227Y-102024804D01*
X211340496Y-102021204D01*
X211365000Y-102020000D01*
X212815000Y-102020000D01*
X212839504Y-102021204D01*
X212839504Y-102021204D01*
G37*
D14*
G04 #@! TO.P,J6,1*
G04 #@! TO.N,GND*
X212090000Y-102870000D03*
G04 #@! TD*
D17*
G04 #@! TO.P,J2,6*
G04 #@! TO.N,GND*
X173990000Y-124460000D03*
G04 #@! TO.P,J2,5*
G04 #@! TO.N,Net-(J2-Pad5)*
X173990000Y-121920000D03*
G04 #@! TO.P,J2,4*
G04 #@! TO.N,Net-(J2-Pad4)*
X176530000Y-124460000D03*
G04 #@! TO.P,J2,3*
G04 #@! TO.N,Net-(J2-Pad3)*
X176530000Y-121920000D03*
G04 #@! TO.P,J2,2*
G04 #@! TO.N,+5V*
X179070000Y-124460000D03*
D18*
G04 #@! TO.P,J2,1*
G04 #@! TO.N,Net-(J2-Pad1)*
X179070000Y-121920000D03*
G04 #@! TD*
D19*
G04 #@! TO.P,U2,14*
G04 #@! TO.N,GND*
X180340000Y-99060000D03*
G04 #@! TO.P,U2,7*
G04 #@! TO.N,Net-(J2-Pad4)*
X172720000Y-114300000D03*
G04 #@! TO.P,U2,13*
G04 #@! TO.N,Net-(J3-Pad2)*
X180340000Y-101600000D03*
G04 #@! TO.P,U2,6*
G04 #@! TO.N,Net-(R3-Pad2)*
X172720000Y-111760000D03*
G04 #@! TO.P,U2,12*
G04 #@! TO.N,Net-(J3-Pad3)*
X180340000Y-104140000D03*
G04 #@! TO.P,U2,5*
G04 #@! TO.N,Net-(U2-Pad5)*
X172720000Y-109220000D03*
G04 #@! TO.P,U2,11*
G04 #@! TO.N,Net-(U2-Pad11)*
X180340000Y-106680000D03*
G04 #@! TO.P,U2,4*
G04 #@! TO.N,Net-(J2-Pad5)*
X172720000Y-106680000D03*
G04 #@! TO.P,U2,10*
G04 #@! TO.N,Net-(U2-Pad10)*
X180340000Y-109220000D03*
G04 #@! TO.P,U2,3*
G04 #@! TO.N,Net-(U2-Pad3)*
X172720000Y-104140000D03*
G04 #@! TO.P,U2,9*
G04 #@! TO.N,Net-(J2-Pad3)*
X180340000Y-111760000D03*
G04 #@! TO.P,U2,2*
G04 #@! TO.N,Net-(U2-Pad2)*
X172720000Y-101600000D03*
G04 #@! TO.P,U2,8*
G04 #@! TO.N,Net-(J2-Pad1)*
X180340000Y-114300000D03*
D10*
G04 #@! TO.P,U2,1*
G04 #@! TO.N,+5V*
X172720000Y-99060000D03*
G04 #@! TD*
D20*
G04 #@! TO.P,U1,3*
G04 #@! TO.N,+5V*
X167640000Y-91440000D03*
G04 #@! TO.P,U1,2*
G04 #@! TO.N,GND*
X165100000Y-91440000D03*
D21*
G04 #@! TO.P,U1,1*
G04 #@! TO.N,+12V*
X162560000Y-91440000D03*
G04 #@! TD*
D22*
G04 #@! TO.P,Q2,1*
G04 #@! TO.N,Net-(J6-Pad3)*
X200660000Y-101600000D03*
D23*
G04 #@! TO.P,Q2,3*
G04 #@! TO.N,GND*
X205740000Y-101600000D03*
G04 #@! TO.P,Q2,2*
G04 #@! TO.N,Net-(Q2-Pad2)*
X203200000Y-101600000D03*
G04 #@! TD*
D22*
G04 #@! TO.P,Q1,1*
G04 #@! TO.N,Net-(J6-Pad4)*
X200660000Y-93980000D03*
D23*
G04 #@! TO.P,Q1,3*
G04 #@! TO.N,GND*
X205740000Y-93980000D03*
G04 #@! TO.P,Q1,2*
G04 #@! TO.N,Net-(Q1-Pad2)*
X203200000Y-93980000D03*
G04 #@! TD*
D22*
G04 #@! TO.P,Q3,1*
G04 #@! TO.N,Net-(J6-Pad2)*
X200660000Y-109220000D03*
D23*
G04 #@! TO.P,Q3,3*
G04 #@! TO.N,GND*
X205740000Y-109220000D03*
G04 #@! TO.P,Q3,2*
G04 #@! TO.N,Net-(Q3-Pad2)*
X203200000Y-109220000D03*
G04 #@! TD*
D19*
G04 #@! TO.P,R5,2*
G04 #@! TO.N,Net-(J2-Pad4)*
X186690000Y-111760000D03*
D11*
G04 #@! TO.P,R5,1*
G04 #@! TO.N,Net-(J4-Pad3)*
X196850000Y-111760000D03*
G04 #@! TD*
D19*
G04 #@! TO.P,R6,2*
G04 #@! TO.N,Net-(R3-Pad2)*
X186690000Y-115570000D03*
D11*
G04 #@! TO.P,R6,1*
G04 #@! TO.N,Net-(J4-Pad2)*
X196850000Y-115570000D03*
G04 #@! TD*
D19*
G04 #@! TO.P,R1,2*
G04 #@! TO.N,Net-(J2-Pad1)*
X186690000Y-96520000D03*
D11*
G04 #@! TO.P,R1,1*
G04 #@! TO.N,Net-(Q1-Pad2)*
X196850000Y-96520000D03*
G04 #@! TD*
D19*
G04 #@! TO.P,R2,2*
G04 #@! TO.N,Net-(J2-Pad4)*
X186690000Y-100330000D03*
D11*
G04 #@! TO.P,R2,1*
G04 #@! TO.N,Net-(Q2-Pad2)*
X196850000Y-100330000D03*
G04 #@! TD*
D19*
G04 #@! TO.P,R3,2*
G04 #@! TO.N,Net-(R3-Pad2)*
X186690000Y-104140000D03*
D11*
G04 #@! TO.P,R3,1*
G04 #@! TO.N,Net-(Q3-Pad2)*
X196850000Y-104140000D03*
G04 #@! TD*
D19*
G04 #@! TO.P,R4,2*
G04 #@! TO.N,Net-(J2-Pad1)*
X186690000Y-107950000D03*
D11*
G04 #@! TO.P,R4,1*
G04 #@! TO.N,Net-(J4-Pad4)*
X196850000Y-107950000D03*
G04 #@! TD*
D24*
G04 #@! TO.P,J5,2*
G04 #@! TO.N,+5V*
X165060000Y-121920000D03*
D13*
G04 #@! TD*
G04 #@! TO.N,GND*
G04 #@! TO.C,J5*
G36*
X163184504Y-120921204D02*
X163208773Y-120924804D01*
X163232571Y-120930765D01*
X163255671Y-120939030D01*
X163277849Y-120949520D01*
X163298893Y-120962133D01*
X163318598Y-120976747D01*
X163336777Y-120993223D01*
X163353253Y-121011402D01*
X163367867Y-121031107D01*
X163380480Y-121052151D01*
X163390970Y-121074329D01*
X163399235Y-121097429D01*
X163405196Y-121121227D01*
X163408796Y-121145496D01*
X163410000Y-121170000D01*
X163410000Y-122670000D01*
X163408796Y-122694504D01*
X163405196Y-122718773D01*
X163399235Y-122742571D01*
X163390970Y-122765671D01*
X163380480Y-122787849D01*
X163367867Y-122808893D01*
X163353253Y-122828598D01*
X163336777Y-122846777D01*
X163318598Y-122863253D01*
X163298893Y-122877867D01*
X163277849Y-122890480D01*
X163255671Y-122900970D01*
X163232571Y-122909235D01*
X163208773Y-122915196D01*
X163184504Y-122918796D01*
X163160000Y-122920000D01*
X161960000Y-122920000D01*
X161935496Y-122918796D01*
X161911227Y-122915196D01*
X161887429Y-122909235D01*
X161864329Y-122900970D01*
X161842151Y-122890480D01*
X161821107Y-122877867D01*
X161801402Y-122863253D01*
X161783223Y-122846777D01*
X161766747Y-122828598D01*
X161752133Y-122808893D01*
X161739520Y-122787849D01*
X161729030Y-122765671D01*
X161720765Y-122742571D01*
X161714804Y-122718773D01*
X161711204Y-122694504D01*
X161710000Y-122670000D01*
X161710000Y-121170000D01*
X161711204Y-121145496D01*
X161714804Y-121121227D01*
X161720765Y-121097429D01*
X161729030Y-121074329D01*
X161739520Y-121052151D01*
X161752133Y-121031107D01*
X161766747Y-121011402D01*
X161783223Y-120993223D01*
X161801402Y-120976747D01*
X161821107Y-120962133D01*
X161842151Y-120949520D01*
X161864329Y-120939030D01*
X161887429Y-120930765D01*
X161911227Y-120924804D01*
X161935496Y-120921204D01*
X161960000Y-120920000D01*
X163160000Y-120920000D01*
X163184504Y-120921204D01*
X163184504Y-120921204D01*
G37*
D14*
G04 #@! TO.P,J5,1*
G04 #@! TO.N,GND*
X162560000Y-121920000D03*
G04 #@! TD*
D25*
G04 #@! TO.N,GND*
X193040000Y-124460000D03*
X182880000Y-91440000D03*
G04 #@! TD*
D26*
G04 #@! TO.N,Net-(J4-Pad2)*
X211965000Y-119420000D02*
X212090000Y-119420000D01*
X200700000Y-119420000D02*
X212090000Y-119420000D01*
X196850000Y-115570000D02*
X200700000Y-119420000D01*
D27*
G04 #@! TO.N,Net-(J2-Pad1)*
X179070000Y-115570000D02*
X180340000Y-114300000D01*
X179070000Y-121920000D02*
X179070000Y-115570000D01*
X182880000Y-114300000D02*
X180340000Y-114300000D01*
X184150000Y-113030000D02*
X182880000Y-114300000D01*
X186690000Y-96520000D02*
X184150000Y-99060000D01*
X186690000Y-107950000D02*
X184150000Y-107950000D01*
X184150000Y-99060000D02*
X184150000Y-107950000D01*
X184150000Y-107950000D02*
X184150000Y-113030000D01*
G04 #@! TO.N,Net-(Q3-Pad2)*
X203200000Y-107950000D02*
X203200000Y-109220000D01*
X201930000Y-106680000D02*
X203200000Y-107950000D01*
X196850000Y-104140000D02*
X199390000Y-106680000D01*
X199390000Y-106680000D02*
X201930000Y-106680000D01*
G04 #@! TO.N,Net-(Q2-Pad2)*
X203200000Y-102870000D02*
X203200000Y-101600000D01*
X201930000Y-104140000D02*
X203200000Y-102870000D01*
X199390000Y-104140000D02*
X201930000Y-104140000D01*
X196850000Y-100330000D02*
X196850000Y-101600000D01*
X196850000Y-101600000D02*
X199390000Y-104140000D01*
G04 #@! TO.N,Net-(J2-Pad4)*
X187489999Y-110960001D02*
X186690000Y-111760000D01*
X189230000Y-109220000D02*
X187489999Y-110960001D01*
X189230000Y-102870000D02*
X189230000Y-109220000D01*
X186690000Y-100330000D02*
X189230000Y-102870000D01*
X171450000Y-115570000D02*
X172720000Y-114300000D01*
X171450000Y-124460000D02*
X171450000Y-115570000D01*
X176530000Y-124460000D02*
X173990000Y-127000000D01*
X173990000Y-127000000D02*
X171450000Y-124460000D01*
G04 #@! TO.N,Net-(Q1-Pad2)*
X203200000Y-95250000D02*
X203200000Y-93980000D01*
X196850000Y-96520000D02*
X201930000Y-96520000D01*
X201930000Y-96520000D02*
X203200000Y-95250000D01*
D26*
G04 #@! TO.N,Net-(J4-Pad4)*
X198120000Y-109220000D02*
X196850000Y-107950000D01*
X198120000Y-110490000D02*
X198120000Y-109220000D01*
X212090000Y-114420000D02*
X202050000Y-114420000D01*
X202050000Y-114420000D02*
X198120000Y-110490000D01*
G04 #@! TO.N,Net-(J4-Pad3)*
X212090000Y-116920000D02*
X202010000Y-116920000D01*
X202010000Y-116920000D02*
X199390000Y-114300000D01*
X199390000Y-114300000D02*
X199470000Y-114380000D01*
X196850000Y-111760000D02*
X199390000Y-114300000D01*
D28*
G04 #@! TO.N,Net-(J6-Pad4)*
X205740000Y-91440000D02*
X209670000Y-95370000D01*
X210515000Y-95370000D02*
X212090000Y-95370000D01*
X200660000Y-92630000D02*
X201850000Y-91440000D01*
X200660000Y-93980000D02*
X200660000Y-92630000D01*
X209670000Y-95370000D02*
X210515000Y-95370000D01*
X201850000Y-91440000D02*
X205740000Y-91440000D01*
G04 #@! TO.N,Net-(J6-Pad2)*
X200660000Y-110490000D02*
X200660000Y-109220000D01*
D27*
X200740001Y-110570001D02*
X200660000Y-110490000D01*
D28*
X201930000Y-111760000D02*
X200740001Y-110570001D01*
X212050000Y-100330000D02*
X209550000Y-100330000D01*
X209550000Y-100330000D02*
X208280000Y-101600000D01*
X208280000Y-101600000D02*
X208280000Y-110490000D01*
X212090000Y-100370000D02*
X212050000Y-100330000D01*
X208280000Y-110490000D02*
X207010000Y-111760000D01*
X207010000Y-111760000D02*
X201930000Y-111760000D01*
G04 #@! TO.N,Net-(J6-Pad3)*
X200660000Y-100330000D02*
X200660000Y-101600000D01*
X212090000Y-97870000D02*
X203120000Y-97870000D01*
X203120000Y-97870000D02*
X200660000Y-100330000D01*
D29*
G04 #@! TO.N,+12V*
X162560000Y-91440000D02*
X162560000Y-100330000D01*
X162560000Y-101930000D02*
X162560000Y-100330000D01*
X156210000Y-105410000D02*
X159080000Y-105410000D01*
X159080000Y-105410000D02*
X162560000Y-101930000D01*
X209710000Y-92870000D02*
X212090000Y-92870000D01*
X201930000Y-85090000D02*
X209710000Y-92870000D01*
X166370000Y-85090000D02*
X201930000Y-85090000D01*
X162560000Y-91440000D02*
X162560000Y-88900000D01*
X162560000Y-88900000D02*
X166370000Y-85090000D01*
D27*
G04 #@! TO.N,Net-(J2-Pad3)*
X176530000Y-115570000D02*
X180340000Y-111760000D01*
X176530000Y-121920000D02*
X176530000Y-115570000D01*
G04 #@! TO.N,Net-(J2-Pad5)*
X173990000Y-120650000D02*
X173990000Y-121920000D01*
X175260000Y-119380000D02*
X173990000Y-120650000D01*
X172720000Y-106680000D02*
X175260000Y-109220000D01*
X175260000Y-109220000D02*
X175260000Y-119380000D01*
G04 #@! TO.N,Net-(J3-Pad3)*
X181139999Y-103340001D02*
X180340000Y-104140000D01*
X182880000Y-101600000D02*
X181139999Y-103340001D01*
X182880000Y-97790000D02*
X182880000Y-101600000D01*
X189310000Y-88900000D02*
X189310000Y-91360000D01*
X189310000Y-91360000D02*
X182880000Y-97790000D01*
G04 #@! TD*
D30*
G04 #@! TO.N,GND*
G36*
X211963000Y-88900000D02*
X211972667Y-88948601D01*
X212000197Y-88989803D01*
X212041399Y-89017333D01*
X212090000Y-89027000D01*
X218313000Y-89027000D01*
X218313000Y-128143000D01*
X208407000Y-128143000D01*
X208407000Y-122205750D01*
X210480000Y-122205750D01*
X210480000Y-122896309D01*
X210576673Y-123129698D01*
X210755301Y-123308327D01*
X210988690Y-123405000D01*
X211804250Y-123405000D01*
X211963000Y-123246250D01*
X211963000Y-122047000D01*
X212217000Y-122047000D01*
X212217000Y-123246250D01*
X212375750Y-123405000D01*
X213191310Y-123405000D01*
X213424699Y-123308327D01*
X213603327Y-123129698D01*
X213700000Y-122896309D01*
X213700000Y-122205750D01*
X213541250Y-122047000D01*
X212217000Y-122047000D01*
X211963000Y-122047000D01*
X210638750Y-122047000D01*
X210480000Y-122205750D01*
X208407000Y-122205750D01*
X208407000Y-121920000D01*
X208397333Y-121871399D01*
X208369803Y-121830197D01*
X208328601Y-121802667D01*
X208280000Y-121793000D01*
X200660000Y-121793000D01*
X200611399Y-121802667D01*
X200570197Y-121830197D01*
X200542667Y-121871399D01*
X200533000Y-121920000D01*
X200533000Y-128143000D01*
X157607000Y-128143000D01*
X157607000Y-122205750D01*
X161075000Y-122205750D01*
X161075000Y-123046310D01*
X161171673Y-123279699D01*
X161350302Y-123458327D01*
X161583691Y-123555000D01*
X162274250Y-123555000D01*
X162433000Y-123396250D01*
X162433000Y-122047000D01*
X161233750Y-122047000D01*
X161075000Y-122205750D01*
X157607000Y-122205750D01*
X157607000Y-121920000D01*
X157597333Y-121871399D01*
X157569803Y-121830197D01*
X157528601Y-121802667D01*
X157480000Y-121793000D01*
X151257000Y-121793000D01*
X151257000Y-120793690D01*
X161075000Y-120793690D01*
X161075000Y-121634250D01*
X161233750Y-121793000D01*
X162433000Y-121793000D01*
X162433000Y-120443750D01*
X162687000Y-120443750D01*
X162687000Y-121793000D01*
X162707000Y-121793000D01*
X162707000Y-122047000D01*
X162687000Y-122047000D01*
X162687000Y-123396250D01*
X162845750Y-123555000D01*
X163536309Y-123555000D01*
X163769698Y-123458327D01*
X163948327Y-123279699D01*
X164002344Y-123149291D01*
X164480583Y-123468839D01*
X165060000Y-123584092D01*
X165639418Y-123468839D01*
X166130625Y-123140625D01*
X166458839Y-122649417D01*
X166545000Y-122216255D01*
X166545000Y-121623744D01*
X166458839Y-121190582D01*
X166130625Y-120699375D01*
X165639417Y-120371161D01*
X165060000Y-120255908D01*
X164480582Y-120371161D01*
X164002344Y-120690709D01*
X163948327Y-120560301D01*
X163769698Y-120381673D01*
X163536309Y-120285000D01*
X162845750Y-120285000D01*
X162687000Y-120443750D01*
X162433000Y-120443750D01*
X162274250Y-120285000D01*
X161583691Y-120285000D01*
X161350302Y-120381673D01*
X161171673Y-120560301D01*
X161075000Y-120793690D01*
X151257000Y-120793690D01*
X151257000Y-115570000D01*
X170649622Y-115570000D01*
X170665001Y-115647317D01*
X170665000Y-124382688D01*
X170649622Y-124460000D01*
X170665000Y-124537312D01*
X170665000Y-124537315D01*
X170710546Y-124766291D01*
X170884047Y-125025953D01*
X170949592Y-125069749D01*
X173380253Y-127500411D01*
X173424047Y-127565953D01*
X173489589Y-127609747D01*
X173489591Y-127609749D01*
X173683707Y-127739453D01*
X173683708Y-127739453D01*
X173683709Y-127739454D01*
X173913947Y-127785250D01*
X173989999Y-127800378D01*
X173990000Y-127800378D01*
X174296291Y-127739454D01*
X174490408Y-127609749D01*
X174490409Y-127609748D01*
X174555953Y-127565953D01*
X174599748Y-127500409D01*
X176193082Y-125907075D01*
X176383744Y-125945000D01*
X176676256Y-125945000D01*
X177109418Y-125858839D01*
X177600625Y-125530625D01*
X177800000Y-125232239D01*
X177999375Y-125530625D01*
X178490582Y-125858839D01*
X178923744Y-125945000D01*
X179216256Y-125945000D01*
X179649418Y-125858839D01*
X180140625Y-125530625D01*
X180468839Y-125039418D01*
X180584092Y-124460000D01*
X180468839Y-123880582D01*
X180140625Y-123389375D01*
X180122381Y-123377184D01*
X180167765Y-123368157D01*
X180377809Y-123227809D01*
X180518157Y-123017765D01*
X180567440Y-122770000D01*
X180567440Y-121070000D01*
X180518157Y-120822235D01*
X180377809Y-120612191D01*
X180167765Y-120471843D01*
X179920000Y-120422560D01*
X179855000Y-120422560D01*
X179855000Y-115895157D01*
X180045604Y-115704554D01*
X180198667Y-115735000D01*
X180481333Y-115735000D01*
X180899909Y-115651740D01*
X181022241Y-115570000D01*
X185226887Y-115570000D01*
X185338260Y-116129909D01*
X185655423Y-116604577D01*
X186130091Y-116921740D01*
X186548667Y-117005000D01*
X186831333Y-117005000D01*
X187249909Y-116921740D01*
X187724577Y-116604577D01*
X188041740Y-116129909D01*
X188153113Y-115570000D01*
X188041740Y-115010091D01*
X187724577Y-114535423D01*
X187249909Y-114218260D01*
X186831333Y-114135000D01*
X186548667Y-114135000D01*
X186130091Y-114218260D01*
X185655423Y-114535423D01*
X185338260Y-115010091D01*
X185226887Y-115570000D01*
X181022241Y-115570000D01*
X181374577Y-115334577D01*
X181541339Y-115085000D01*
X182802688Y-115085000D01*
X182880000Y-115100378D01*
X182957312Y-115085000D01*
X182957316Y-115085000D01*
X183186292Y-115039454D01*
X183445953Y-114865953D01*
X183489749Y-114800408D01*
X184650411Y-113639747D01*
X184715953Y-113595953D01*
X184759747Y-113530411D01*
X184759749Y-113530409D01*
X184843544Y-113405000D01*
X184889454Y-113336292D01*
X184935000Y-113107316D01*
X184935000Y-113107312D01*
X184950378Y-113030001D01*
X184935000Y-112952690D01*
X184935000Y-108735000D01*
X185488661Y-108735000D01*
X185655423Y-108984577D01*
X186130091Y-109301740D01*
X186548667Y-109385000D01*
X186831333Y-109385000D01*
X187249909Y-109301740D01*
X187724577Y-108984577D01*
X188041740Y-108509909D01*
X188153113Y-107950000D01*
X188041740Y-107390091D01*
X187724577Y-106915423D01*
X187249909Y-106598260D01*
X186831333Y-106515000D01*
X186548667Y-106515000D01*
X186130091Y-106598260D01*
X185655423Y-106915423D01*
X185488661Y-107165000D01*
X184935000Y-107165000D01*
X184935000Y-104140000D01*
X185226887Y-104140000D01*
X185338260Y-104699909D01*
X185655423Y-105174577D01*
X186130091Y-105491740D01*
X186548667Y-105575000D01*
X186831333Y-105575000D01*
X187249909Y-105491740D01*
X187724577Y-105174577D01*
X188041740Y-104699909D01*
X188153113Y-104140000D01*
X188041740Y-103580091D01*
X187724577Y-103105423D01*
X187249909Y-102788260D01*
X186831333Y-102705000D01*
X186548667Y-102705000D01*
X186130091Y-102788260D01*
X185655423Y-103105423D01*
X185338260Y-103580091D01*
X185226887Y-104140000D01*
X184935000Y-104140000D01*
X184935000Y-100330000D01*
X185226887Y-100330000D01*
X185338260Y-100889909D01*
X185655423Y-101364577D01*
X186130091Y-101681740D01*
X186548667Y-101765000D01*
X186831333Y-101765000D01*
X186984396Y-101734554D01*
X188445000Y-103195158D01*
X188445001Y-108894841D01*
X186989593Y-110350250D01*
X186989590Y-110350252D01*
X186984396Y-110355446D01*
X186831333Y-110325000D01*
X186548667Y-110325000D01*
X186130091Y-110408260D01*
X185655423Y-110725423D01*
X185338260Y-111200091D01*
X185226887Y-111760000D01*
X185338260Y-112319909D01*
X185655423Y-112794577D01*
X186130091Y-113111740D01*
X186548667Y-113195000D01*
X186831333Y-113195000D01*
X187249909Y-113111740D01*
X187724577Y-112794577D01*
X188041740Y-112319909D01*
X188153113Y-111760000D01*
X188094554Y-111465604D01*
X188099748Y-111460410D01*
X188099750Y-111460407D01*
X189730411Y-109829747D01*
X189795953Y-109785953D01*
X189839747Y-109720411D01*
X189839749Y-109720409D01*
X189969454Y-109526292D01*
X189989636Y-109424829D01*
X190015000Y-109297316D01*
X190015000Y-109297313D01*
X190030378Y-109220001D01*
X190015000Y-109142689D01*
X190015000Y-107664561D01*
X195415000Y-107664561D01*
X195415000Y-108235439D01*
X195633466Y-108762862D01*
X196037138Y-109166534D01*
X196564561Y-109385000D01*
X197104132Y-109385000D01*
X197285001Y-109565868D01*
X197285000Y-110386950D01*
X197135439Y-110325000D01*
X196564561Y-110325000D01*
X196037138Y-110543466D01*
X195633466Y-110947138D01*
X195415000Y-111474561D01*
X195415000Y-112045439D01*
X195633466Y-112572862D01*
X196037138Y-112976534D01*
X196564561Y-113195000D01*
X197104132Y-113195000D01*
X198857715Y-114948584D01*
X198857721Y-114948588D01*
X201361415Y-117452283D01*
X201407999Y-117522001D01*
X201684199Y-117706552D01*
X201927763Y-117755000D01*
X202010000Y-117771358D01*
X202092237Y-117755000D01*
X210736935Y-117755000D01*
X210894375Y-117990625D01*
X211162829Y-118170000D01*
X210894375Y-118349375D01*
X210736935Y-118585000D01*
X201045868Y-118585000D01*
X198285000Y-115824133D01*
X198285000Y-115284561D01*
X198066534Y-114757138D01*
X197662862Y-114353466D01*
X197135439Y-114135000D01*
X196564561Y-114135000D01*
X196037138Y-114353466D01*
X195633466Y-114757138D01*
X195415000Y-115284561D01*
X195415000Y-115855439D01*
X195633466Y-116382862D01*
X196037138Y-116786534D01*
X196564561Y-117005000D01*
X197104133Y-117005000D01*
X200051415Y-119952283D01*
X200097999Y-120022001D01*
X200374199Y-120206552D01*
X200617763Y-120255000D01*
X200617766Y-120255000D01*
X200699999Y-120271357D01*
X200782232Y-120255000D01*
X210736935Y-120255000D01*
X210885709Y-120477656D01*
X210755301Y-120531673D01*
X210576673Y-120710302D01*
X210480000Y-120943691D01*
X210480000Y-121634250D01*
X210638750Y-121793000D01*
X211963000Y-121793000D01*
X211963000Y-121773000D01*
X212217000Y-121773000D01*
X212217000Y-121793000D01*
X213541250Y-121793000D01*
X213700000Y-121634250D01*
X213700000Y-120943691D01*
X213603327Y-120710302D01*
X213424699Y-120531673D01*
X213294291Y-120477656D01*
X213613839Y-119999418D01*
X213729092Y-119420000D01*
X213613839Y-118840582D01*
X213285625Y-118349375D01*
X213017171Y-118170000D01*
X213285625Y-117990625D01*
X213613839Y-117499418D01*
X213729092Y-116920000D01*
X213613839Y-116340582D01*
X213285625Y-115849375D01*
X213017171Y-115670000D01*
X213285625Y-115490625D01*
X213613839Y-114999418D01*
X213729092Y-114420000D01*
X213613839Y-113840582D01*
X213285625Y-113349375D01*
X213017171Y-113170000D01*
X213285625Y-112990625D01*
X213613839Y-112499418D01*
X213729092Y-111920000D01*
X213613839Y-111340582D01*
X213285625Y-110849375D01*
X212794418Y-110521161D01*
X212361256Y-110435000D01*
X211818744Y-110435000D01*
X211385582Y-110521161D01*
X210894375Y-110849375D01*
X210566161Y-111340582D01*
X210450908Y-111920000D01*
X210566161Y-112499418D01*
X210894375Y-112990625D01*
X211162829Y-113170000D01*
X210894375Y-113349375D01*
X210736935Y-113585000D01*
X202395869Y-113585000D01*
X198955000Y-110144133D01*
X198955000Y-109302232D01*
X198971357Y-109219999D01*
X198955000Y-109137766D01*
X198955000Y-109137763D01*
X198906552Y-108894199D01*
X198722001Y-108617999D01*
X198652282Y-108571415D01*
X198285000Y-108204132D01*
X198285000Y-107664561D01*
X198066534Y-107137138D01*
X197662862Y-106733466D01*
X197135439Y-106515000D01*
X196564561Y-106515000D01*
X196037138Y-106733466D01*
X195633466Y-107137138D01*
X195415000Y-107664561D01*
X190015000Y-107664561D01*
X190015000Y-102947310D01*
X190030378Y-102869999D01*
X190015000Y-102792688D01*
X190015000Y-102792684D01*
X189969454Y-102563708D01*
X189914023Y-102480750D01*
X189839749Y-102369591D01*
X189839747Y-102369589D01*
X189795953Y-102304047D01*
X189730411Y-102260253D01*
X188094554Y-100624396D01*
X188153113Y-100330000D01*
X188041740Y-99770091D01*
X187724577Y-99295423D01*
X187249909Y-98978260D01*
X186831333Y-98895000D01*
X186548667Y-98895000D01*
X186130091Y-98978260D01*
X185655423Y-99295423D01*
X185338260Y-99770091D01*
X185226887Y-100330000D01*
X184935000Y-100330000D01*
X184935000Y-99385157D01*
X186395604Y-97924554D01*
X186548667Y-97955000D01*
X186831333Y-97955000D01*
X187249909Y-97871740D01*
X187724577Y-97554577D01*
X188041740Y-97079909D01*
X188153113Y-96520000D01*
X188041740Y-95960091D01*
X187724577Y-95485423D01*
X187249909Y-95168260D01*
X186831333Y-95085000D01*
X186695158Y-95085000D01*
X189810411Y-91969747D01*
X189875953Y-91925953D01*
X189919747Y-91860411D01*
X189919749Y-91860409D01*
X189994023Y-91749250D01*
X190049454Y-91666292D01*
X190095000Y-91437316D01*
X190095000Y-91437312D01*
X190110378Y-91360001D01*
X190095000Y-91282690D01*
X190095000Y-90286473D01*
X190380625Y-90095625D01*
X190560000Y-89827171D01*
X190739375Y-90095625D01*
X191230582Y-90423839D01*
X191810000Y-90539092D01*
X192389417Y-90423839D01*
X192880625Y-90095625D01*
X192923242Y-90031844D01*
X193075414Y-90259586D01*
X193366565Y-90454126D01*
X193710000Y-90522440D01*
X194910000Y-90522440D01*
X195253435Y-90454126D01*
X195544586Y-90259586D01*
X195739126Y-89968435D01*
X195807440Y-89625000D01*
X195807440Y-88175000D01*
X195739126Y-87831565D01*
X195544586Y-87540414D01*
X195253435Y-87345874D01*
X194910000Y-87277560D01*
X193710000Y-87277560D01*
X193366565Y-87345874D01*
X193075414Y-87540414D01*
X192923242Y-87768156D01*
X192880625Y-87704375D01*
X192389418Y-87376161D01*
X191810000Y-87260908D01*
X191230583Y-87376161D01*
X190739375Y-87704375D01*
X190560000Y-87972829D01*
X190380625Y-87704375D01*
X189889418Y-87376161D01*
X189310000Y-87260908D01*
X188730583Y-87376161D01*
X188239375Y-87704375D01*
X188056754Y-87977687D01*
X187681193Y-87572503D01*
X187166890Y-87333524D01*
X186937000Y-87454845D01*
X186937000Y-88773000D01*
X186957000Y-88773000D01*
X186957000Y-89027000D01*
X186937000Y-89027000D01*
X186937000Y-90345155D01*
X187166890Y-90466476D01*
X187681193Y-90227497D01*
X188056754Y-89822313D01*
X188239375Y-90095625D01*
X188525001Y-90286474D01*
X188525001Y-91034841D01*
X182379592Y-97180251D01*
X182314047Y-97224047D01*
X182270251Y-97289592D01*
X182241339Y-97332862D01*
X182140546Y-97483709D01*
X182095000Y-97712685D01*
X182095000Y-97712688D01*
X182079622Y-97790000D01*
X182095000Y-97867312D01*
X182095001Y-101274841D01*
X181797593Y-101572249D01*
X181691740Y-101040091D01*
X181374577Y-100565423D01*
X180990892Y-100309053D01*
X181195134Y-100212389D01*
X181571041Y-99797423D01*
X181731904Y-99409039D01*
X181609915Y-99187000D01*
X180467000Y-99187000D01*
X180467000Y-99207000D01*
X180213000Y-99207000D01*
X180213000Y-99187000D01*
X179070085Y-99187000D01*
X178948096Y-99409039D01*
X179108959Y-99797423D01*
X179484866Y-100212389D01*
X179689108Y-100309053D01*
X179305423Y-100565423D01*
X178988260Y-101040091D01*
X178876887Y-101600000D01*
X178988260Y-102159909D01*
X179305423Y-102634577D01*
X179657758Y-102870000D01*
X179305423Y-103105423D01*
X178988260Y-103580091D01*
X178876887Y-104140000D01*
X178988260Y-104699909D01*
X179305423Y-105174577D01*
X179657758Y-105410000D01*
X179305423Y-105645423D01*
X178988260Y-106120091D01*
X178876887Y-106680000D01*
X178988260Y-107239909D01*
X179305423Y-107714577D01*
X179657758Y-107950000D01*
X179305423Y-108185423D01*
X178988260Y-108660091D01*
X178876887Y-109220000D01*
X178988260Y-109779909D01*
X179305423Y-110254577D01*
X179657758Y-110490000D01*
X179305423Y-110725423D01*
X178988260Y-111200091D01*
X178876887Y-111760000D01*
X178935446Y-112054397D01*
X176045000Y-114944843D01*
X176045000Y-109297310D01*
X176060378Y-109219999D01*
X176045000Y-109142688D01*
X176045000Y-109142684D01*
X175999454Y-108913708D01*
X175924843Y-108802045D01*
X175869749Y-108719591D01*
X175869747Y-108719589D01*
X175825953Y-108654047D01*
X175760411Y-108610253D01*
X174124554Y-106974396D01*
X174183113Y-106680000D01*
X174071740Y-106120091D01*
X173754577Y-105645423D01*
X173402242Y-105410000D01*
X173754577Y-105174577D01*
X174071740Y-104699909D01*
X174183113Y-104140000D01*
X174071740Y-103580091D01*
X173754577Y-103105423D01*
X173402242Y-102870000D01*
X173754577Y-102634577D01*
X174071740Y-102159909D01*
X174183113Y-101600000D01*
X174071740Y-101040091D01*
X173754577Y-100565423D01*
X173633894Y-100484785D01*
X173767765Y-100458157D01*
X173977809Y-100317809D01*
X174118157Y-100107765D01*
X174167440Y-99860000D01*
X174167440Y-98710961D01*
X178948096Y-98710961D01*
X179070085Y-98933000D01*
X180213000Y-98933000D01*
X180213000Y-97789371D01*
X180467000Y-97789371D01*
X180467000Y-98933000D01*
X181609915Y-98933000D01*
X181731904Y-98710961D01*
X181571041Y-98322577D01*
X181195134Y-97907611D01*
X180689041Y-97668086D01*
X180467000Y-97789371D01*
X180213000Y-97789371D01*
X179990959Y-97668086D01*
X179484866Y-97907611D01*
X179108959Y-98322577D01*
X178948096Y-98710961D01*
X174167440Y-98710961D01*
X174167440Y-98260000D01*
X174118157Y-98012235D01*
X173977809Y-97802191D01*
X173767765Y-97661843D01*
X173520000Y-97612560D01*
X171920000Y-97612560D01*
X171672235Y-97661843D01*
X171462191Y-97802191D01*
X171321843Y-98012235D01*
X171272560Y-98260000D01*
X171272560Y-99860000D01*
X171321843Y-100107765D01*
X171462191Y-100317809D01*
X171672235Y-100458157D01*
X171806106Y-100484785D01*
X171685423Y-100565423D01*
X171368260Y-101040091D01*
X171256887Y-101600000D01*
X171368260Y-102159909D01*
X171685423Y-102634577D01*
X172037758Y-102870000D01*
X171685423Y-103105423D01*
X171368260Y-103580091D01*
X171256887Y-104140000D01*
X171368260Y-104699909D01*
X171685423Y-105174577D01*
X172037758Y-105410000D01*
X171685423Y-105645423D01*
X171368260Y-106120091D01*
X171256887Y-106680000D01*
X171368260Y-107239909D01*
X171685423Y-107714577D01*
X172037758Y-107950000D01*
X171685423Y-108185423D01*
X171368260Y-108660091D01*
X171256887Y-109220000D01*
X171368260Y-109779909D01*
X171685423Y-110254577D01*
X172037758Y-110490000D01*
X171685423Y-110725423D01*
X171368260Y-111200091D01*
X171256887Y-111760000D01*
X171368260Y-112319909D01*
X171685423Y-112794577D01*
X172037758Y-113030000D01*
X171685423Y-113265423D01*
X171368260Y-113740091D01*
X171256887Y-114300000D01*
X171315446Y-114594396D01*
X170949590Y-114960253D01*
X170884048Y-115004047D01*
X170840254Y-115069589D01*
X170840251Y-115069592D01*
X170710546Y-115263709D01*
X170649622Y-115570000D01*
X151257000Y-115570000D01*
X151257000Y-110960000D01*
X161112560Y-110960000D01*
X161112560Y-112560000D01*
X161161843Y-112807765D01*
X161302191Y-113017809D01*
X161512235Y-113158157D01*
X161760000Y-113207440D01*
X163360000Y-113207440D01*
X163607765Y-113158157D01*
X163817809Y-113017809D01*
X163958157Y-112807765D01*
X163966117Y-112767745D01*
X165231861Y-112767745D01*
X165305995Y-113013864D01*
X165843223Y-113206965D01*
X166413454Y-113179778D01*
X166814005Y-113013864D01*
X166888139Y-112767745D01*
X166060000Y-111939605D01*
X165231861Y-112767745D01*
X163966117Y-112767745D01*
X164007440Y-112560000D01*
X164007440Y-111543223D01*
X164613035Y-111543223D01*
X164640222Y-112113454D01*
X164806136Y-112514005D01*
X165052255Y-112588139D01*
X165880395Y-111760000D01*
X166239605Y-111760000D01*
X167067745Y-112588139D01*
X167313864Y-112514005D01*
X167506965Y-111976777D01*
X167479778Y-111406546D01*
X167313864Y-111005995D01*
X167067745Y-110931861D01*
X166239605Y-111760000D01*
X165880395Y-111760000D01*
X165052255Y-110931861D01*
X164806136Y-111005995D01*
X164613035Y-111543223D01*
X164007440Y-111543223D01*
X164007440Y-110960000D01*
X163966118Y-110752255D01*
X165231861Y-110752255D01*
X166060000Y-111580395D01*
X166888139Y-110752255D01*
X166814005Y-110506136D01*
X166276777Y-110313035D01*
X165706546Y-110340222D01*
X165305995Y-110506136D01*
X165231861Y-110752255D01*
X163966118Y-110752255D01*
X163958157Y-110712235D01*
X163817809Y-110502191D01*
X163607765Y-110361843D01*
X163360000Y-110312560D01*
X161760000Y-110312560D01*
X161512235Y-110361843D01*
X161302191Y-110502191D01*
X161161843Y-110712235D01*
X161112560Y-110960000D01*
X151257000Y-110960000D01*
X151257000Y-108266890D01*
X154618524Y-108266890D01*
X154620447Y-108279260D01*
X154871336Y-108802045D01*
X155303188Y-109189024D01*
X155850258Y-109381284D01*
X156083000Y-109237231D01*
X156083000Y-108037000D01*
X156337000Y-108037000D01*
X156337000Y-109237231D01*
X156569742Y-109381284D01*
X157116812Y-109189024D01*
X157548664Y-108802045D01*
X157799553Y-108279260D01*
X157801476Y-108266890D01*
X157680155Y-108037000D01*
X156337000Y-108037000D01*
X156083000Y-108037000D01*
X154739845Y-108037000D01*
X154618524Y-108266890D01*
X151257000Y-108266890D01*
X151257000Y-104810000D01*
X154562560Y-104810000D01*
X154562560Y-106010000D01*
X154630874Y-106353435D01*
X154825414Y-106644586D01*
X155090407Y-106821648D01*
X154871336Y-107017955D01*
X154620447Y-107540740D01*
X154618524Y-107553110D01*
X154739845Y-107783000D01*
X156083000Y-107783000D01*
X156083000Y-107763000D01*
X156337000Y-107763000D01*
X156337000Y-107783000D01*
X157680155Y-107783000D01*
X157801476Y-107553110D01*
X157799553Y-107540740D01*
X157548664Y-107017955D01*
X157329593Y-106821648D01*
X157594586Y-106644586D01*
X157727944Y-106445000D01*
X158978066Y-106445000D01*
X159080000Y-106465276D01*
X159181934Y-106445000D01*
X159181935Y-106445000D01*
X159483837Y-106384948D01*
X159826193Y-106156193D01*
X159883937Y-106069773D01*
X163219776Y-102733935D01*
X163306193Y-102676193D01*
X163534948Y-102333837D01*
X163595000Y-102031935D01*
X163595000Y-102031934D01*
X163615276Y-101930001D01*
X163595000Y-101828066D01*
X163595000Y-101730696D01*
X163607765Y-101728157D01*
X163817809Y-101587809D01*
X163958157Y-101377765D01*
X163966117Y-101337745D01*
X165231861Y-101337745D01*
X165305995Y-101583864D01*
X165843223Y-101776965D01*
X166413454Y-101749778D01*
X166814005Y-101583864D01*
X166888139Y-101337745D01*
X166060000Y-100509605D01*
X165231861Y-101337745D01*
X163966117Y-101337745D01*
X164007440Y-101130000D01*
X164007440Y-100113223D01*
X164613035Y-100113223D01*
X164640222Y-100683454D01*
X164806136Y-101084005D01*
X165052255Y-101158139D01*
X165880395Y-100330000D01*
X166239605Y-100330000D01*
X167067745Y-101158139D01*
X167313864Y-101084005D01*
X167506965Y-100546777D01*
X167479778Y-99976546D01*
X167313864Y-99575995D01*
X167067745Y-99501861D01*
X166239605Y-100330000D01*
X165880395Y-100330000D01*
X165052255Y-99501861D01*
X164806136Y-99575995D01*
X164613035Y-100113223D01*
X164007440Y-100113223D01*
X164007440Y-99530000D01*
X163966118Y-99322255D01*
X165231861Y-99322255D01*
X166060000Y-100150395D01*
X166888139Y-99322255D01*
X166814005Y-99076136D01*
X166276777Y-98883035D01*
X165706546Y-98910222D01*
X165305995Y-99076136D01*
X165231861Y-99322255D01*
X163966118Y-99322255D01*
X163958157Y-99282235D01*
X163817809Y-99072191D01*
X163607765Y-98931843D01*
X163595000Y-98929304D01*
X163595000Y-94964561D01*
X172635000Y-94964561D01*
X172635000Y-95535439D01*
X172853466Y-96062862D01*
X173257138Y-96466534D01*
X173784561Y-96685000D01*
X174355439Y-96685000D01*
X174882862Y-96466534D01*
X175091651Y-96257745D01*
X178241861Y-96257745D01*
X178315995Y-96503864D01*
X178853223Y-96696965D01*
X179423454Y-96669778D01*
X179824005Y-96503864D01*
X179898139Y-96257745D01*
X179070000Y-95429605D01*
X178241861Y-96257745D01*
X175091651Y-96257745D01*
X175286534Y-96062862D01*
X175505000Y-95535439D01*
X175505000Y-95033223D01*
X177623035Y-95033223D01*
X177650222Y-95603454D01*
X177816136Y-96004005D01*
X178062255Y-96078139D01*
X178890395Y-95250000D01*
X179249605Y-95250000D01*
X180077745Y-96078139D01*
X180323864Y-96004005D01*
X180516965Y-95466777D01*
X180489778Y-94896546D01*
X180323864Y-94495995D01*
X180077745Y-94421861D01*
X179249605Y-95250000D01*
X178890395Y-95250000D01*
X178062255Y-94421861D01*
X177816136Y-94495995D01*
X177623035Y-95033223D01*
X175505000Y-95033223D01*
X175505000Y-94964561D01*
X175286534Y-94437138D01*
X175091651Y-94242255D01*
X178241861Y-94242255D01*
X179070000Y-95070395D01*
X179898139Y-94242255D01*
X179824005Y-93996136D01*
X179286777Y-93803035D01*
X178716546Y-93830222D01*
X178315995Y-93996136D01*
X178241861Y-94242255D01*
X175091651Y-94242255D01*
X174882862Y-94033466D01*
X174355439Y-93815000D01*
X173784561Y-93815000D01*
X173257138Y-94033466D01*
X172853466Y-94437138D01*
X172635000Y-94964561D01*
X163595000Y-94964561D01*
X163595000Y-93071030D01*
X163760265Y-93038157D01*
X163970309Y-92897809D01*
X164107255Y-92692857D01*
X164233076Y-92815973D01*
X164727020Y-93030563D01*
X164973000Y-92910594D01*
X164973000Y-91567000D01*
X164953000Y-91567000D01*
X164953000Y-91313000D01*
X164973000Y-91313000D01*
X164973000Y-89969406D01*
X165227000Y-89969406D01*
X165227000Y-91313000D01*
X165247000Y-91313000D01*
X165247000Y-91567000D01*
X165227000Y-91567000D01*
X165227000Y-92910594D01*
X165472980Y-93030563D01*
X165966924Y-92815973D01*
X166360841Y-92430526D01*
X166495477Y-92632023D01*
X167020590Y-92982891D01*
X167640000Y-93106100D01*
X168259411Y-92982891D01*
X168784523Y-92632023D01*
X169135391Y-92106910D01*
X169227500Y-91643849D01*
X169227500Y-91236150D01*
X169211271Y-91154561D01*
X172635000Y-91154561D01*
X172635000Y-91725439D01*
X172853466Y-92252862D01*
X173257138Y-92656534D01*
X173784561Y-92875000D01*
X174355439Y-92875000D01*
X174882862Y-92656534D01*
X175091651Y-92447745D01*
X178241861Y-92447745D01*
X178315995Y-92693864D01*
X178853223Y-92886965D01*
X179423454Y-92859778D01*
X179824005Y-92693864D01*
X179898139Y-92447745D01*
X179070000Y-91619605D01*
X178241861Y-92447745D01*
X175091651Y-92447745D01*
X175286534Y-92252862D01*
X175505000Y-91725439D01*
X175505000Y-91223223D01*
X177623035Y-91223223D01*
X177650222Y-91793454D01*
X177816136Y-92194005D01*
X178062255Y-92268139D01*
X178890395Y-91440000D01*
X179249605Y-91440000D01*
X180077745Y-92268139D01*
X180323864Y-92194005D01*
X180516965Y-91656777D01*
X180489778Y-91086546D01*
X180323864Y-90685995D01*
X180077745Y-90611861D01*
X179249605Y-91440000D01*
X178890395Y-91440000D01*
X178062255Y-90611861D01*
X177816136Y-90685995D01*
X177623035Y-91223223D01*
X175505000Y-91223223D01*
X175505000Y-91154561D01*
X175286534Y-90627138D01*
X175091651Y-90432255D01*
X178241861Y-90432255D01*
X179070000Y-91260395D01*
X179898139Y-90432255D01*
X179824005Y-90186136D01*
X179286777Y-89993035D01*
X178716546Y-90020222D01*
X178315995Y-90186136D01*
X178241861Y-90432255D01*
X175091651Y-90432255D01*
X174882862Y-90223466D01*
X174355439Y-90005000D01*
X173784561Y-90005000D01*
X173257138Y-90223466D01*
X172853466Y-90627138D01*
X172635000Y-91154561D01*
X169211271Y-91154561D01*
X169135391Y-90773089D01*
X168784523Y-90247977D01*
X168259410Y-89897109D01*
X167640000Y-89773900D01*
X167020589Y-89897109D01*
X166495477Y-90247977D01*
X166360841Y-90449474D01*
X165966924Y-90064027D01*
X165472980Y-89849437D01*
X165227000Y-89969406D01*
X164973000Y-89969406D01*
X164727020Y-89849437D01*
X164233076Y-90064027D01*
X164107255Y-90187143D01*
X163970309Y-89982191D01*
X163760265Y-89841843D01*
X163595000Y-89808970D01*
X163595000Y-89328710D01*
X163664443Y-89259267D01*
X185343680Y-89259267D01*
X185544947Y-89802571D01*
X185938807Y-90227497D01*
X186453110Y-90466476D01*
X186683000Y-90345155D01*
X186683000Y-89027000D01*
X185483835Y-89027000D01*
X185343680Y-89259267D01*
X163664443Y-89259267D01*
X164382977Y-88540733D01*
X185343680Y-88540733D01*
X185483835Y-88773000D01*
X186683000Y-88773000D01*
X186683000Y-87454845D01*
X186453110Y-87333524D01*
X185938807Y-87572503D01*
X185544947Y-87997429D01*
X185343680Y-88540733D01*
X164382977Y-88540733D01*
X166798711Y-86125000D01*
X201501290Y-86125000D01*
X205893507Y-90517217D01*
X205832086Y-90505000D01*
X205740000Y-90486683D01*
X205647914Y-90505000D01*
X201942085Y-90505000D01*
X201849999Y-90486683D01*
X201670237Y-90522440D01*
X201485181Y-90559250D01*
X201175903Y-90765903D01*
X201123741Y-90843969D01*
X200063970Y-91903741D01*
X199985904Y-91955903D01*
X199933742Y-92033969D01*
X199933741Y-92033970D01*
X199779250Y-92265182D01*
X199708132Y-92622714D01*
X199662235Y-92631843D01*
X199452191Y-92772191D01*
X199311843Y-92982235D01*
X199262560Y-93230000D01*
X199262560Y-94730000D01*
X199311843Y-94977765D01*
X199452191Y-95187809D01*
X199662235Y-95328157D01*
X199910000Y-95377440D01*
X201410000Y-95377440D01*
X201657765Y-95328157D01*
X201867809Y-95187809D01*
X202008157Y-94977765D01*
X202046469Y-94785156D01*
X202300578Y-95039265D01*
X201604843Y-95735000D01*
X198078075Y-95735000D01*
X198066534Y-95707138D01*
X197662862Y-95303466D01*
X197135439Y-95085000D01*
X196564561Y-95085000D01*
X196037138Y-95303466D01*
X195633466Y-95707138D01*
X195415000Y-96234561D01*
X195415000Y-96805439D01*
X195633466Y-97332862D01*
X196037138Y-97736534D01*
X196564561Y-97955000D01*
X197135439Y-97955000D01*
X197662862Y-97736534D01*
X198066534Y-97332862D01*
X198078075Y-97305000D01*
X201852688Y-97305000D01*
X201930000Y-97320378D01*
X202007312Y-97305000D01*
X202007316Y-97305000D01*
X202236292Y-97259454D01*
X202495953Y-97085953D01*
X202539749Y-97020408D01*
X203700411Y-95859747D01*
X203765953Y-95815953D01*
X203809747Y-95750411D01*
X203809749Y-95750409D01*
X203907941Y-95603454D01*
X203939454Y-95556292D01*
X203985000Y-95327316D01*
X203985000Y-95327312D01*
X204000378Y-95250001D01*
X203985000Y-95172690D01*
X203985000Y-95153687D01*
X204187170Y-94951517D01*
X204948088Y-94951517D01*
X205016077Y-95192460D01*
X205535171Y-95377201D01*
X206085448Y-95349230D01*
X206463923Y-95192460D01*
X206531912Y-94951517D01*
X205740000Y-94159605D01*
X204948088Y-94951517D01*
X204187170Y-94951517D01*
X204374147Y-94764540D01*
X204463397Y-94549070D01*
X204527540Y-94703923D01*
X204768483Y-94771912D01*
X205560395Y-93980000D01*
X204768483Y-93188088D01*
X204527540Y-93256077D01*
X204468255Y-93422658D01*
X204374147Y-93195460D01*
X203984540Y-92805853D01*
X203475494Y-92595000D01*
X202924506Y-92595000D01*
X202415460Y-92805853D01*
X202046469Y-93174844D01*
X202008157Y-92982235D01*
X201867809Y-92772191D01*
X201851198Y-92761092D01*
X202237290Y-92375000D01*
X205352711Y-92375000D01*
X205579100Y-92601389D01*
X205394552Y-92610770D01*
X205016077Y-92767540D01*
X204948088Y-93008483D01*
X205740000Y-93800395D01*
X205754143Y-93786253D01*
X205933748Y-93965858D01*
X205919605Y-93980000D01*
X206711517Y-94771912D01*
X206952460Y-94703923D01*
X207137201Y-94184829D01*
X207135844Y-94158134D01*
X208943741Y-95966031D01*
X208995903Y-96044097D01*
X209305181Y-96250750D01*
X209577914Y-96305000D01*
X209577917Y-96305000D01*
X209669999Y-96323316D01*
X209762081Y-96305000D01*
X210803753Y-96305000D01*
X210894375Y-96440625D01*
X211162829Y-96620000D01*
X210894375Y-96799375D01*
X210803753Y-96935000D01*
X203212081Y-96935000D01*
X203119999Y-96916684D01*
X203027917Y-96935000D01*
X203027914Y-96935000D01*
X202755181Y-96989250D01*
X202445903Y-97195903D01*
X202393741Y-97273969D01*
X200063972Y-99603739D01*
X199985903Y-99655903D01*
X199907013Y-99773971D01*
X199779250Y-99965182D01*
X199724701Y-100239418D01*
X199662235Y-100251843D01*
X199452191Y-100392191D01*
X199311843Y-100602235D01*
X199262560Y-100850000D01*
X199262560Y-102350000D01*
X199311843Y-102597765D01*
X199452191Y-102807809D01*
X199662235Y-102948157D01*
X199910000Y-102997440D01*
X201410000Y-102997440D01*
X201657765Y-102948157D01*
X201867809Y-102807809D01*
X202008157Y-102597765D01*
X202046469Y-102405156D01*
X202300578Y-102659265D01*
X201604843Y-103355000D01*
X199715158Y-103355000D01*
X197784777Y-101424619D01*
X198066534Y-101142862D01*
X198285000Y-100615439D01*
X198285000Y-100044561D01*
X198066534Y-99517138D01*
X197662862Y-99113466D01*
X197135439Y-98895000D01*
X196564561Y-98895000D01*
X196037138Y-99113466D01*
X195633466Y-99517138D01*
X195415000Y-100044561D01*
X195415000Y-100615439D01*
X195633466Y-101142862D01*
X196037138Y-101546534D01*
X196058497Y-101555381D01*
X196049622Y-101600000D01*
X196110546Y-101906291D01*
X196240251Y-102100408D01*
X196240254Y-102100411D01*
X196284048Y-102165953D01*
X196349590Y-102209747D01*
X196844843Y-102705000D01*
X196564561Y-102705000D01*
X196037138Y-102923466D01*
X195633466Y-103327138D01*
X195415000Y-103854561D01*
X195415000Y-104425439D01*
X195633466Y-104952862D01*
X196037138Y-105356534D01*
X196564561Y-105575000D01*
X197135439Y-105575000D01*
X197163302Y-105563459D01*
X198780253Y-107180411D01*
X198824047Y-107245953D01*
X198889589Y-107289747D01*
X198889591Y-107289749D01*
X199016746Y-107374711D01*
X199083708Y-107419454D01*
X199312684Y-107465000D01*
X199312688Y-107465000D01*
X199389999Y-107480378D01*
X199467310Y-107465000D01*
X201604843Y-107465000D01*
X202300578Y-108160735D01*
X202046469Y-108414844D01*
X202008157Y-108222235D01*
X201867809Y-108012191D01*
X201657765Y-107871843D01*
X201410000Y-107822560D01*
X199910000Y-107822560D01*
X199662235Y-107871843D01*
X199452191Y-108012191D01*
X199311843Y-108222235D01*
X199262560Y-108470000D01*
X199262560Y-109970000D01*
X199311843Y-110217765D01*
X199452191Y-110427809D01*
X199662235Y-110568157D01*
X199725000Y-110580642D01*
X199725000Y-110582085D01*
X199779250Y-110854818D01*
X199985903Y-111164097D01*
X200063972Y-111216261D01*
X201203741Y-112356031D01*
X201255903Y-112434097D01*
X201333969Y-112486259D01*
X201565181Y-112640750D01*
X201930000Y-112713317D01*
X202022086Y-112695000D01*
X206917914Y-112695000D01*
X207010000Y-112713317D01*
X207102086Y-112695000D01*
X207374819Y-112640750D01*
X207684097Y-112434097D01*
X207736261Y-112356028D01*
X208876031Y-111216259D01*
X208954097Y-111164097D01*
X209160750Y-110854819D01*
X209215000Y-110582086D01*
X209215000Y-110582083D01*
X209233316Y-110490001D01*
X209215000Y-110397919D01*
X209215000Y-103155750D01*
X210480000Y-103155750D01*
X210480000Y-103846309D01*
X210576673Y-104079698D01*
X210755301Y-104258327D01*
X210988690Y-104355000D01*
X211804250Y-104355000D01*
X211963000Y-104196250D01*
X211963000Y-102997000D01*
X212217000Y-102997000D01*
X212217000Y-104196250D01*
X212375750Y-104355000D01*
X213191310Y-104355000D01*
X213424699Y-104258327D01*
X213603327Y-104079698D01*
X213700000Y-103846309D01*
X213700000Y-103155750D01*
X213541250Y-102997000D01*
X212217000Y-102997000D01*
X211963000Y-102997000D01*
X210638750Y-102997000D01*
X210480000Y-103155750D01*
X209215000Y-103155750D01*
X209215000Y-101987289D01*
X209937290Y-101265000D01*
X210777026Y-101265000D01*
X210885709Y-101427656D01*
X210755301Y-101481673D01*
X210576673Y-101660302D01*
X210480000Y-101893691D01*
X210480000Y-102584250D01*
X210638750Y-102743000D01*
X211963000Y-102743000D01*
X211963000Y-102723000D01*
X212217000Y-102723000D01*
X212217000Y-102743000D01*
X213541250Y-102743000D01*
X213700000Y-102584250D01*
X213700000Y-101893691D01*
X213603327Y-101660302D01*
X213424699Y-101481673D01*
X213294291Y-101427656D01*
X213613839Y-100949418D01*
X213729092Y-100370000D01*
X213613839Y-99790582D01*
X213285625Y-99299375D01*
X213017171Y-99120000D01*
X213285625Y-98940625D01*
X213613839Y-98449418D01*
X213729092Y-97870000D01*
X213613839Y-97290582D01*
X213285625Y-96799375D01*
X213017171Y-96620000D01*
X213285625Y-96440625D01*
X213613839Y-95949418D01*
X213729092Y-95370000D01*
X213613839Y-94790582D01*
X213285625Y-94299375D01*
X213017171Y-94120000D01*
X213285625Y-93940625D01*
X213613839Y-93449418D01*
X213729092Y-92870000D01*
X213613839Y-92290582D01*
X213285625Y-91799375D01*
X212794418Y-91471161D01*
X212361256Y-91385000D01*
X211818744Y-91385000D01*
X211385582Y-91471161D01*
X210894375Y-91799375D01*
X210870571Y-91835000D01*
X210138711Y-91835000D01*
X202733937Y-84430227D01*
X202676193Y-84343807D01*
X202333837Y-84115052D01*
X202031935Y-84055000D01*
X202031934Y-84055000D01*
X201930000Y-84034724D01*
X201828066Y-84055000D01*
X166471934Y-84055000D01*
X166370000Y-84034724D01*
X166268065Y-84055000D01*
X165966163Y-84115052D01*
X165623807Y-84343807D01*
X165566065Y-84430224D01*
X161900225Y-88096065D01*
X161813808Y-88153807D01*
X161756066Y-88240224D01*
X161585052Y-88496164D01*
X161504724Y-88900000D01*
X161525001Y-89001939D01*
X161525001Y-89808970D01*
X161359735Y-89841843D01*
X161149691Y-89982191D01*
X161009343Y-90192235D01*
X160960060Y-90440000D01*
X160960060Y-92440000D01*
X161009343Y-92687765D01*
X161149691Y-92897809D01*
X161359735Y-93038157D01*
X161525000Y-93071030D01*
X161525001Y-98929304D01*
X161512235Y-98931843D01*
X161302191Y-99072191D01*
X161161843Y-99282235D01*
X161112560Y-99530000D01*
X161112560Y-101130000D01*
X161161843Y-101377765D01*
X161302191Y-101587809D01*
X161383890Y-101642399D01*
X158651290Y-104375000D01*
X157727944Y-104375000D01*
X157594586Y-104175414D01*
X157303435Y-103980874D01*
X156960000Y-103912560D01*
X155460000Y-103912560D01*
X155116565Y-103980874D01*
X154825414Y-104175414D01*
X154630874Y-104466565D01*
X154562560Y-104810000D01*
X151257000Y-104810000D01*
X151257000Y-89027000D01*
X157480000Y-89027000D01*
X157528601Y-89017333D01*
X157569803Y-88989803D01*
X157597333Y-88948601D01*
X157607000Y-88900000D01*
X157607000Y-82677000D01*
X211963000Y-82677000D01*
X211963000Y-88900000D01*
X211963000Y-88900000D01*
G37*
X211963000Y-88900000D02*
X211972667Y-88948601D01*
X212000197Y-88989803D01*
X212041399Y-89017333D01*
X212090000Y-89027000D01*
X218313000Y-89027000D01*
X218313000Y-128143000D01*
X208407000Y-128143000D01*
X208407000Y-122205750D01*
X210480000Y-122205750D01*
X210480000Y-122896309D01*
X210576673Y-123129698D01*
X210755301Y-123308327D01*
X210988690Y-123405000D01*
X211804250Y-123405000D01*
X211963000Y-123246250D01*
X211963000Y-122047000D01*
X212217000Y-122047000D01*
X212217000Y-123246250D01*
X212375750Y-123405000D01*
X213191310Y-123405000D01*
X213424699Y-123308327D01*
X213603327Y-123129698D01*
X213700000Y-122896309D01*
X213700000Y-122205750D01*
X213541250Y-122047000D01*
X212217000Y-122047000D01*
X211963000Y-122047000D01*
X210638750Y-122047000D01*
X210480000Y-122205750D01*
X208407000Y-122205750D01*
X208407000Y-121920000D01*
X208397333Y-121871399D01*
X208369803Y-121830197D01*
X208328601Y-121802667D01*
X208280000Y-121793000D01*
X200660000Y-121793000D01*
X200611399Y-121802667D01*
X200570197Y-121830197D01*
X200542667Y-121871399D01*
X200533000Y-121920000D01*
X200533000Y-128143000D01*
X157607000Y-128143000D01*
X157607000Y-122205750D01*
X161075000Y-122205750D01*
X161075000Y-123046310D01*
X161171673Y-123279699D01*
X161350302Y-123458327D01*
X161583691Y-123555000D01*
X162274250Y-123555000D01*
X162433000Y-123396250D01*
X162433000Y-122047000D01*
X161233750Y-122047000D01*
X161075000Y-122205750D01*
X157607000Y-122205750D01*
X157607000Y-121920000D01*
X157597333Y-121871399D01*
X157569803Y-121830197D01*
X157528601Y-121802667D01*
X157480000Y-121793000D01*
X151257000Y-121793000D01*
X151257000Y-120793690D01*
X161075000Y-120793690D01*
X161075000Y-121634250D01*
X161233750Y-121793000D01*
X162433000Y-121793000D01*
X162433000Y-120443750D01*
X162687000Y-120443750D01*
X162687000Y-121793000D01*
X162707000Y-121793000D01*
X162707000Y-122047000D01*
X162687000Y-122047000D01*
X162687000Y-123396250D01*
X162845750Y-123555000D01*
X163536309Y-123555000D01*
X163769698Y-123458327D01*
X163948327Y-123279699D01*
X164002344Y-123149291D01*
X164480583Y-123468839D01*
X165060000Y-123584092D01*
X165639418Y-123468839D01*
X166130625Y-123140625D01*
X166458839Y-122649417D01*
X166545000Y-122216255D01*
X166545000Y-121623744D01*
X166458839Y-121190582D01*
X166130625Y-120699375D01*
X165639417Y-120371161D01*
X165060000Y-120255908D01*
X164480582Y-120371161D01*
X164002344Y-120690709D01*
X163948327Y-120560301D01*
X163769698Y-120381673D01*
X163536309Y-120285000D01*
X162845750Y-120285000D01*
X162687000Y-120443750D01*
X162433000Y-120443750D01*
X162274250Y-120285000D01*
X161583691Y-120285000D01*
X161350302Y-120381673D01*
X161171673Y-120560301D01*
X161075000Y-120793690D01*
X151257000Y-120793690D01*
X151257000Y-115570000D01*
X170649622Y-115570000D01*
X170665001Y-115647317D01*
X170665000Y-124382688D01*
X170649622Y-124460000D01*
X170665000Y-124537312D01*
X170665000Y-124537315D01*
X170710546Y-124766291D01*
X170884047Y-125025953D01*
X170949592Y-125069749D01*
X173380253Y-127500411D01*
X173424047Y-127565953D01*
X173489589Y-127609747D01*
X173489591Y-127609749D01*
X173683707Y-127739453D01*
X173683708Y-127739453D01*
X173683709Y-127739454D01*
X173913947Y-127785250D01*
X173989999Y-127800378D01*
X173990000Y-127800378D01*
X174296291Y-127739454D01*
X174490408Y-127609749D01*
X174490409Y-127609748D01*
X174555953Y-127565953D01*
X174599748Y-127500409D01*
X176193082Y-125907075D01*
X176383744Y-125945000D01*
X176676256Y-125945000D01*
X177109418Y-125858839D01*
X177600625Y-125530625D01*
X177800000Y-125232239D01*
X177999375Y-125530625D01*
X178490582Y-125858839D01*
X178923744Y-125945000D01*
X179216256Y-125945000D01*
X179649418Y-125858839D01*
X180140625Y-125530625D01*
X180468839Y-125039418D01*
X180584092Y-124460000D01*
X180468839Y-123880582D01*
X180140625Y-123389375D01*
X180122381Y-123377184D01*
X180167765Y-123368157D01*
X180377809Y-123227809D01*
X180518157Y-123017765D01*
X180567440Y-122770000D01*
X180567440Y-121070000D01*
X180518157Y-120822235D01*
X180377809Y-120612191D01*
X180167765Y-120471843D01*
X179920000Y-120422560D01*
X179855000Y-120422560D01*
X179855000Y-115895157D01*
X180045604Y-115704554D01*
X180198667Y-115735000D01*
X180481333Y-115735000D01*
X180899909Y-115651740D01*
X181022241Y-115570000D01*
X185226887Y-115570000D01*
X185338260Y-116129909D01*
X185655423Y-116604577D01*
X186130091Y-116921740D01*
X186548667Y-117005000D01*
X186831333Y-117005000D01*
X187249909Y-116921740D01*
X187724577Y-116604577D01*
X188041740Y-116129909D01*
X188153113Y-115570000D01*
X188041740Y-115010091D01*
X187724577Y-114535423D01*
X187249909Y-114218260D01*
X186831333Y-114135000D01*
X186548667Y-114135000D01*
X186130091Y-114218260D01*
X185655423Y-114535423D01*
X185338260Y-115010091D01*
X185226887Y-115570000D01*
X181022241Y-115570000D01*
X181374577Y-115334577D01*
X181541339Y-115085000D01*
X182802688Y-115085000D01*
X182880000Y-115100378D01*
X182957312Y-115085000D01*
X182957316Y-115085000D01*
X183186292Y-115039454D01*
X183445953Y-114865953D01*
X183489749Y-114800408D01*
X184650411Y-113639747D01*
X184715953Y-113595953D01*
X184759747Y-113530411D01*
X184759749Y-113530409D01*
X184843544Y-113405000D01*
X184889454Y-113336292D01*
X184935000Y-113107316D01*
X184935000Y-113107312D01*
X184950378Y-113030001D01*
X184935000Y-112952690D01*
X184935000Y-108735000D01*
X185488661Y-108735000D01*
X185655423Y-108984577D01*
X186130091Y-109301740D01*
X186548667Y-109385000D01*
X186831333Y-109385000D01*
X187249909Y-109301740D01*
X187724577Y-108984577D01*
X188041740Y-108509909D01*
X188153113Y-107950000D01*
X188041740Y-107390091D01*
X187724577Y-106915423D01*
X187249909Y-106598260D01*
X186831333Y-106515000D01*
X186548667Y-106515000D01*
X186130091Y-106598260D01*
X185655423Y-106915423D01*
X185488661Y-107165000D01*
X184935000Y-107165000D01*
X184935000Y-104140000D01*
X185226887Y-104140000D01*
X185338260Y-104699909D01*
X185655423Y-105174577D01*
X186130091Y-105491740D01*
X186548667Y-105575000D01*
X186831333Y-105575000D01*
X187249909Y-105491740D01*
X187724577Y-105174577D01*
X188041740Y-104699909D01*
X188153113Y-104140000D01*
X188041740Y-103580091D01*
X187724577Y-103105423D01*
X187249909Y-102788260D01*
X186831333Y-102705000D01*
X186548667Y-102705000D01*
X186130091Y-102788260D01*
X185655423Y-103105423D01*
X185338260Y-103580091D01*
X185226887Y-104140000D01*
X184935000Y-104140000D01*
X184935000Y-100330000D01*
X185226887Y-100330000D01*
X185338260Y-100889909D01*
X185655423Y-101364577D01*
X186130091Y-101681740D01*
X186548667Y-101765000D01*
X186831333Y-101765000D01*
X186984396Y-101734554D01*
X188445000Y-103195158D01*
X188445001Y-108894841D01*
X186989593Y-110350250D01*
X186989590Y-110350252D01*
X186984396Y-110355446D01*
X186831333Y-110325000D01*
X186548667Y-110325000D01*
X186130091Y-110408260D01*
X185655423Y-110725423D01*
X185338260Y-111200091D01*
X185226887Y-111760000D01*
X185338260Y-112319909D01*
X185655423Y-112794577D01*
X186130091Y-113111740D01*
X186548667Y-113195000D01*
X186831333Y-113195000D01*
X187249909Y-113111740D01*
X187724577Y-112794577D01*
X188041740Y-112319909D01*
X188153113Y-111760000D01*
X188094554Y-111465604D01*
X188099748Y-111460410D01*
X188099750Y-111460407D01*
X189730411Y-109829747D01*
X189795953Y-109785953D01*
X189839747Y-109720411D01*
X189839749Y-109720409D01*
X189969454Y-109526292D01*
X189989636Y-109424829D01*
X190015000Y-109297316D01*
X190015000Y-109297313D01*
X190030378Y-109220001D01*
X190015000Y-109142689D01*
X190015000Y-107664561D01*
X195415000Y-107664561D01*
X195415000Y-108235439D01*
X195633466Y-108762862D01*
X196037138Y-109166534D01*
X196564561Y-109385000D01*
X197104132Y-109385000D01*
X197285001Y-109565868D01*
X197285000Y-110386950D01*
X197135439Y-110325000D01*
X196564561Y-110325000D01*
X196037138Y-110543466D01*
X195633466Y-110947138D01*
X195415000Y-111474561D01*
X195415000Y-112045439D01*
X195633466Y-112572862D01*
X196037138Y-112976534D01*
X196564561Y-113195000D01*
X197104132Y-113195000D01*
X198857715Y-114948584D01*
X198857721Y-114948588D01*
X201361415Y-117452283D01*
X201407999Y-117522001D01*
X201684199Y-117706552D01*
X201927763Y-117755000D01*
X202010000Y-117771358D01*
X202092237Y-117755000D01*
X210736935Y-117755000D01*
X210894375Y-117990625D01*
X211162829Y-118170000D01*
X210894375Y-118349375D01*
X210736935Y-118585000D01*
X201045868Y-118585000D01*
X198285000Y-115824133D01*
X198285000Y-115284561D01*
X198066534Y-114757138D01*
X197662862Y-114353466D01*
X197135439Y-114135000D01*
X196564561Y-114135000D01*
X196037138Y-114353466D01*
X195633466Y-114757138D01*
X195415000Y-115284561D01*
X195415000Y-115855439D01*
X195633466Y-116382862D01*
X196037138Y-116786534D01*
X196564561Y-117005000D01*
X197104133Y-117005000D01*
X200051415Y-119952283D01*
X200097999Y-120022001D01*
X200374199Y-120206552D01*
X200617763Y-120255000D01*
X200617766Y-120255000D01*
X200699999Y-120271357D01*
X200782232Y-120255000D01*
X210736935Y-120255000D01*
X210885709Y-120477656D01*
X210755301Y-120531673D01*
X210576673Y-120710302D01*
X210480000Y-120943691D01*
X210480000Y-121634250D01*
X210638750Y-121793000D01*
X211963000Y-121793000D01*
X211963000Y-121773000D01*
X212217000Y-121773000D01*
X212217000Y-121793000D01*
X213541250Y-121793000D01*
X213700000Y-121634250D01*
X213700000Y-120943691D01*
X213603327Y-120710302D01*
X213424699Y-120531673D01*
X213294291Y-120477656D01*
X213613839Y-119999418D01*
X213729092Y-119420000D01*
X213613839Y-118840582D01*
X213285625Y-118349375D01*
X213017171Y-118170000D01*
X213285625Y-117990625D01*
X213613839Y-117499418D01*
X213729092Y-116920000D01*
X213613839Y-116340582D01*
X213285625Y-115849375D01*
X213017171Y-115670000D01*
X213285625Y-115490625D01*
X213613839Y-114999418D01*
X213729092Y-114420000D01*
X213613839Y-113840582D01*
X213285625Y-113349375D01*
X213017171Y-113170000D01*
X213285625Y-112990625D01*
X213613839Y-112499418D01*
X213729092Y-111920000D01*
X213613839Y-111340582D01*
X213285625Y-110849375D01*
X212794418Y-110521161D01*
X212361256Y-110435000D01*
X211818744Y-110435000D01*
X211385582Y-110521161D01*
X210894375Y-110849375D01*
X210566161Y-111340582D01*
X210450908Y-111920000D01*
X210566161Y-112499418D01*
X210894375Y-112990625D01*
X211162829Y-113170000D01*
X210894375Y-113349375D01*
X210736935Y-113585000D01*
X202395869Y-113585000D01*
X198955000Y-110144133D01*
X198955000Y-109302232D01*
X198971357Y-109219999D01*
X198955000Y-109137766D01*
X198955000Y-109137763D01*
X198906552Y-108894199D01*
X198722001Y-108617999D01*
X198652282Y-108571415D01*
X198285000Y-108204132D01*
X198285000Y-107664561D01*
X198066534Y-107137138D01*
X197662862Y-106733466D01*
X197135439Y-106515000D01*
X196564561Y-106515000D01*
X196037138Y-106733466D01*
X195633466Y-107137138D01*
X195415000Y-107664561D01*
X190015000Y-107664561D01*
X190015000Y-102947310D01*
X190030378Y-102869999D01*
X190015000Y-102792688D01*
X190015000Y-102792684D01*
X189969454Y-102563708D01*
X189914023Y-102480750D01*
X189839749Y-102369591D01*
X189839747Y-102369589D01*
X189795953Y-102304047D01*
X189730411Y-102260253D01*
X188094554Y-100624396D01*
X188153113Y-100330000D01*
X188041740Y-99770091D01*
X187724577Y-99295423D01*
X187249909Y-98978260D01*
X186831333Y-98895000D01*
X186548667Y-98895000D01*
X186130091Y-98978260D01*
X185655423Y-99295423D01*
X185338260Y-99770091D01*
X185226887Y-100330000D01*
X184935000Y-100330000D01*
X184935000Y-99385157D01*
X186395604Y-97924554D01*
X186548667Y-97955000D01*
X186831333Y-97955000D01*
X187249909Y-97871740D01*
X187724577Y-97554577D01*
X188041740Y-97079909D01*
X188153113Y-96520000D01*
X188041740Y-95960091D01*
X187724577Y-95485423D01*
X187249909Y-95168260D01*
X186831333Y-95085000D01*
X186695158Y-95085000D01*
X189810411Y-91969747D01*
X189875953Y-91925953D01*
X189919747Y-91860411D01*
X189919749Y-91860409D01*
X189994023Y-91749250D01*
X190049454Y-91666292D01*
X190095000Y-91437316D01*
X190095000Y-91437312D01*
X190110378Y-91360001D01*
X190095000Y-91282690D01*
X190095000Y-90286473D01*
X190380625Y-90095625D01*
X190560000Y-89827171D01*
X190739375Y-90095625D01*
X191230582Y-90423839D01*
X191810000Y-90539092D01*
X192389417Y-90423839D01*
X192880625Y-90095625D01*
X192923242Y-90031844D01*
X193075414Y-90259586D01*
X193366565Y-90454126D01*
X193710000Y-90522440D01*
X194910000Y-90522440D01*
X195253435Y-90454126D01*
X195544586Y-90259586D01*
X195739126Y-89968435D01*
X195807440Y-89625000D01*
X195807440Y-88175000D01*
X195739126Y-87831565D01*
X195544586Y-87540414D01*
X195253435Y-87345874D01*
X194910000Y-87277560D01*
X193710000Y-87277560D01*
X193366565Y-87345874D01*
X193075414Y-87540414D01*
X192923242Y-87768156D01*
X192880625Y-87704375D01*
X192389418Y-87376161D01*
X191810000Y-87260908D01*
X191230583Y-87376161D01*
X190739375Y-87704375D01*
X190560000Y-87972829D01*
X190380625Y-87704375D01*
X189889418Y-87376161D01*
X189310000Y-87260908D01*
X188730583Y-87376161D01*
X188239375Y-87704375D01*
X188056754Y-87977687D01*
X187681193Y-87572503D01*
X187166890Y-87333524D01*
X186937000Y-87454845D01*
X186937000Y-88773000D01*
X186957000Y-88773000D01*
X186957000Y-89027000D01*
X186937000Y-89027000D01*
X186937000Y-90345155D01*
X187166890Y-90466476D01*
X187681193Y-90227497D01*
X188056754Y-89822313D01*
X188239375Y-90095625D01*
X188525001Y-90286474D01*
X188525001Y-91034841D01*
X182379592Y-97180251D01*
X182314047Y-97224047D01*
X182270251Y-97289592D01*
X182241339Y-97332862D01*
X182140546Y-97483709D01*
X182095000Y-97712685D01*
X182095000Y-97712688D01*
X182079622Y-97790000D01*
X182095000Y-97867312D01*
X182095001Y-101274841D01*
X181797593Y-101572249D01*
X181691740Y-101040091D01*
X181374577Y-100565423D01*
X180990892Y-100309053D01*
X181195134Y-100212389D01*
X181571041Y-99797423D01*
X181731904Y-99409039D01*
X181609915Y-99187000D01*
X180467000Y-99187000D01*
X180467000Y-99207000D01*
X180213000Y-99207000D01*
X180213000Y-99187000D01*
X179070085Y-99187000D01*
X178948096Y-99409039D01*
X179108959Y-99797423D01*
X179484866Y-100212389D01*
X179689108Y-100309053D01*
X179305423Y-100565423D01*
X178988260Y-101040091D01*
X178876887Y-101600000D01*
X178988260Y-102159909D01*
X179305423Y-102634577D01*
X179657758Y-102870000D01*
X179305423Y-103105423D01*
X178988260Y-103580091D01*
X178876887Y-104140000D01*
X178988260Y-104699909D01*
X179305423Y-105174577D01*
X179657758Y-105410000D01*
X179305423Y-105645423D01*
X178988260Y-106120091D01*
X178876887Y-106680000D01*
X178988260Y-107239909D01*
X179305423Y-107714577D01*
X179657758Y-107950000D01*
X179305423Y-108185423D01*
X178988260Y-108660091D01*
X178876887Y-109220000D01*
X178988260Y-109779909D01*
X179305423Y-110254577D01*
X179657758Y-110490000D01*
X179305423Y-110725423D01*
X178988260Y-111200091D01*
X178876887Y-111760000D01*
X178935446Y-112054397D01*
X176045000Y-114944843D01*
X176045000Y-109297310D01*
X176060378Y-109219999D01*
X176045000Y-109142688D01*
X176045000Y-109142684D01*
X175999454Y-108913708D01*
X175924843Y-108802045D01*
X175869749Y-108719591D01*
X175869747Y-108719589D01*
X175825953Y-108654047D01*
X175760411Y-108610253D01*
X174124554Y-106974396D01*
X174183113Y-106680000D01*
X174071740Y-106120091D01*
X173754577Y-105645423D01*
X173402242Y-105410000D01*
X173754577Y-105174577D01*
X174071740Y-104699909D01*
X174183113Y-104140000D01*
X174071740Y-103580091D01*
X173754577Y-103105423D01*
X173402242Y-102870000D01*
X173754577Y-102634577D01*
X174071740Y-102159909D01*
X174183113Y-101600000D01*
X174071740Y-101040091D01*
X173754577Y-100565423D01*
X173633894Y-100484785D01*
X173767765Y-100458157D01*
X173977809Y-100317809D01*
X174118157Y-100107765D01*
X174167440Y-99860000D01*
X174167440Y-98710961D01*
X178948096Y-98710961D01*
X179070085Y-98933000D01*
X180213000Y-98933000D01*
X180213000Y-97789371D01*
X180467000Y-97789371D01*
X180467000Y-98933000D01*
X181609915Y-98933000D01*
X181731904Y-98710961D01*
X181571041Y-98322577D01*
X181195134Y-97907611D01*
X180689041Y-97668086D01*
X180467000Y-97789371D01*
X180213000Y-97789371D01*
X179990959Y-97668086D01*
X179484866Y-97907611D01*
X179108959Y-98322577D01*
X178948096Y-98710961D01*
X174167440Y-98710961D01*
X174167440Y-98260000D01*
X174118157Y-98012235D01*
X173977809Y-97802191D01*
X173767765Y-97661843D01*
X173520000Y-97612560D01*
X171920000Y-97612560D01*
X171672235Y-97661843D01*
X171462191Y-97802191D01*
X171321843Y-98012235D01*
X171272560Y-98260000D01*
X171272560Y-99860000D01*
X171321843Y-100107765D01*
X171462191Y-100317809D01*
X171672235Y-100458157D01*
X171806106Y-100484785D01*
X171685423Y-100565423D01*
X171368260Y-101040091D01*
X171256887Y-101600000D01*
X171368260Y-102159909D01*
X171685423Y-102634577D01*
X172037758Y-102870000D01*
X171685423Y-103105423D01*
X171368260Y-103580091D01*
X171256887Y-104140000D01*
X171368260Y-104699909D01*
X171685423Y-105174577D01*
X172037758Y-105410000D01*
X171685423Y-105645423D01*
X171368260Y-106120091D01*
X171256887Y-106680000D01*
X171368260Y-107239909D01*
X171685423Y-107714577D01*
X172037758Y-107950000D01*
X171685423Y-108185423D01*
X171368260Y-108660091D01*
X171256887Y-109220000D01*
X171368260Y-109779909D01*
X171685423Y-110254577D01*
X172037758Y-110490000D01*
X171685423Y-110725423D01*
X171368260Y-111200091D01*
X171256887Y-111760000D01*
X171368260Y-112319909D01*
X171685423Y-112794577D01*
X172037758Y-113030000D01*
X171685423Y-113265423D01*
X171368260Y-113740091D01*
X171256887Y-114300000D01*
X171315446Y-114594396D01*
X170949590Y-114960253D01*
X170884048Y-115004047D01*
X170840254Y-115069589D01*
X170840251Y-115069592D01*
X170710546Y-115263709D01*
X170649622Y-115570000D01*
X151257000Y-115570000D01*
X151257000Y-110960000D01*
X161112560Y-110960000D01*
X161112560Y-112560000D01*
X161161843Y-112807765D01*
X161302191Y-113017809D01*
X161512235Y-113158157D01*
X161760000Y-113207440D01*
X163360000Y-113207440D01*
X163607765Y-113158157D01*
X163817809Y-113017809D01*
X163958157Y-112807765D01*
X163966117Y-112767745D01*
X165231861Y-112767745D01*
X165305995Y-113013864D01*
X165843223Y-113206965D01*
X166413454Y-113179778D01*
X166814005Y-113013864D01*
X166888139Y-112767745D01*
X166060000Y-111939605D01*
X165231861Y-112767745D01*
X163966117Y-112767745D01*
X164007440Y-112560000D01*
X164007440Y-111543223D01*
X164613035Y-111543223D01*
X164640222Y-112113454D01*
X164806136Y-112514005D01*
X165052255Y-112588139D01*
X165880395Y-111760000D01*
X166239605Y-111760000D01*
X167067745Y-112588139D01*
X167313864Y-112514005D01*
X167506965Y-111976777D01*
X167479778Y-111406546D01*
X167313864Y-111005995D01*
X167067745Y-110931861D01*
X166239605Y-111760000D01*
X165880395Y-111760000D01*
X165052255Y-110931861D01*
X164806136Y-111005995D01*
X164613035Y-111543223D01*
X164007440Y-111543223D01*
X164007440Y-110960000D01*
X163966118Y-110752255D01*
X165231861Y-110752255D01*
X166060000Y-111580395D01*
X166888139Y-110752255D01*
X166814005Y-110506136D01*
X166276777Y-110313035D01*
X165706546Y-110340222D01*
X165305995Y-110506136D01*
X165231861Y-110752255D01*
X163966118Y-110752255D01*
X163958157Y-110712235D01*
X163817809Y-110502191D01*
X163607765Y-110361843D01*
X163360000Y-110312560D01*
X161760000Y-110312560D01*
X161512235Y-110361843D01*
X161302191Y-110502191D01*
X161161843Y-110712235D01*
X161112560Y-110960000D01*
X151257000Y-110960000D01*
X151257000Y-108266890D01*
X154618524Y-108266890D01*
X154620447Y-108279260D01*
X154871336Y-108802045D01*
X155303188Y-109189024D01*
X155850258Y-109381284D01*
X156083000Y-109237231D01*
X156083000Y-108037000D01*
X156337000Y-108037000D01*
X156337000Y-109237231D01*
X156569742Y-109381284D01*
X157116812Y-109189024D01*
X157548664Y-108802045D01*
X157799553Y-108279260D01*
X157801476Y-108266890D01*
X157680155Y-108037000D01*
X156337000Y-108037000D01*
X156083000Y-108037000D01*
X154739845Y-108037000D01*
X154618524Y-108266890D01*
X151257000Y-108266890D01*
X151257000Y-104810000D01*
X154562560Y-104810000D01*
X154562560Y-106010000D01*
X154630874Y-106353435D01*
X154825414Y-106644586D01*
X155090407Y-106821648D01*
X154871336Y-107017955D01*
X154620447Y-107540740D01*
X154618524Y-107553110D01*
X154739845Y-107783000D01*
X156083000Y-107783000D01*
X156083000Y-107763000D01*
X156337000Y-107763000D01*
X156337000Y-107783000D01*
X157680155Y-107783000D01*
X157801476Y-107553110D01*
X157799553Y-107540740D01*
X157548664Y-107017955D01*
X157329593Y-106821648D01*
X157594586Y-106644586D01*
X157727944Y-106445000D01*
X158978066Y-106445000D01*
X159080000Y-106465276D01*
X159181934Y-106445000D01*
X159181935Y-106445000D01*
X159483837Y-106384948D01*
X159826193Y-106156193D01*
X159883937Y-106069773D01*
X163219776Y-102733935D01*
X163306193Y-102676193D01*
X163534948Y-102333837D01*
X163595000Y-102031935D01*
X163595000Y-102031934D01*
X163615276Y-101930001D01*
X163595000Y-101828066D01*
X163595000Y-101730696D01*
X163607765Y-101728157D01*
X163817809Y-101587809D01*
X163958157Y-101377765D01*
X163966117Y-101337745D01*
X165231861Y-101337745D01*
X165305995Y-101583864D01*
X165843223Y-101776965D01*
X166413454Y-101749778D01*
X166814005Y-101583864D01*
X166888139Y-101337745D01*
X166060000Y-100509605D01*
X165231861Y-101337745D01*
X163966117Y-101337745D01*
X164007440Y-101130000D01*
X164007440Y-100113223D01*
X164613035Y-100113223D01*
X164640222Y-100683454D01*
X164806136Y-101084005D01*
X165052255Y-101158139D01*
X165880395Y-100330000D01*
X166239605Y-100330000D01*
X167067745Y-101158139D01*
X167313864Y-101084005D01*
X167506965Y-100546777D01*
X167479778Y-99976546D01*
X167313864Y-99575995D01*
X167067745Y-99501861D01*
X166239605Y-100330000D01*
X165880395Y-100330000D01*
X165052255Y-99501861D01*
X164806136Y-99575995D01*
X164613035Y-100113223D01*
X164007440Y-100113223D01*
X164007440Y-99530000D01*
X163966118Y-99322255D01*
X165231861Y-99322255D01*
X166060000Y-100150395D01*
X166888139Y-99322255D01*
X166814005Y-99076136D01*
X166276777Y-98883035D01*
X165706546Y-98910222D01*
X165305995Y-99076136D01*
X165231861Y-99322255D01*
X163966118Y-99322255D01*
X163958157Y-99282235D01*
X163817809Y-99072191D01*
X163607765Y-98931843D01*
X163595000Y-98929304D01*
X163595000Y-94964561D01*
X172635000Y-94964561D01*
X172635000Y-95535439D01*
X172853466Y-96062862D01*
X173257138Y-96466534D01*
X173784561Y-96685000D01*
X174355439Y-96685000D01*
X174882862Y-96466534D01*
X175091651Y-96257745D01*
X178241861Y-96257745D01*
X178315995Y-96503864D01*
X178853223Y-96696965D01*
X179423454Y-96669778D01*
X179824005Y-96503864D01*
X179898139Y-96257745D01*
X179070000Y-95429605D01*
X178241861Y-96257745D01*
X175091651Y-96257745D01*
X175286534Y-96062862D01*
X175505000Y-95535439D01*
X175505000Y-95033223D01*
X177623035Y-95033223D01*
X177650222Y-95603454D01*
X177816136Y-96004005D01*
X178062255Y-96078139D01*
X178890395Y-95250000D01*
X179249605Y-95250000D01*
X180077745Y-96078139D01*
X180323864Y-96004005D01*
X180516965Y-95466777D01*
X180489778Y-94896546D01*
X180323864Y-94495995D01*
X180077745Y-94421861D01*
X179249605Y-95250000D01*
X178890395Y-95250000D01*
X178062255Y-94421861D01*
X177816136Y-94495995D01*
X177623035Y-95033223D01*
X175505000Y-95033223D01*
X175505000Y-94964561D01*
X175286534Y-94437138D01*
X175091651Y-94242255D01*
X178241861Y-94242255D01*
X179070000Y-95070395D01*
X179898139Y-94242255D01*
X179824005Y-93996136D01*
X179286777Y-93803035D01*
X178716546Y-93830222D01*
X178315995Y-93996136D01*
X178241861Y-94242255D01*
X175091651Y-94242255D01*
X174882862Y-94033466D01*
X174355439Y-93815000D01*
X173784561Y-93815000D01*
X173257138Y-94033466D01*
X172853466Y-94437138D01*
X172635000Y-94964561D01*
X163595000Y-94964561D01*
X163595000Y-93071030D01*
X163760265Y-93038157D01*
X163970309Y-92897809D01*
X164107255Y-92692857D01*
X164233076Y-92815973D01*
X164727020Y-93030563D01*
X164973000Y-92910594D01*
X164973000Y-91567000D01*
X164953000Y-91567000D01*
X164953000Y-91313000D01*
X164973000Y-91313000D01*
X164973000Y-89969406D01*
X165227000Y-89969406D01*
X165227000Y-91313000D01*
X165247000Y-91313000D01*
X165247000Y-91567000D01*
X165227000Y-91567000D01*
X165227000Y-92910594D01*
X165472980Y-93030563D01*
X165966924Y-92815973D01*
X166360841Y-92430526D01*
X166495477Y-92632023D01*
X167020590Y-92982891D01*
X167640000Y-93106100D01*
X168259411Y-92982891D01*
X168784523Y-92632023D01*
X169135391Y-92106910D01*
X169227500Y-91643849D01*
X169227500Y-91236150D01*
X169211271Y-91154561D01*
X172635000Y-91154561D01*
X172635000Y-91725439D01*
X172853466Y-92252862D01*
X173257138Y-92656534D01*
X173784561Y-92875000D01*
X174355439Y-92875000D01*
X174882862Y-92656534D01*
X175091651Y-92447745D01*
X178241861Y-92447745D01*
X178315995Y-92693864D01*
X178853223Y-92886965D01*
X179423454Y-92859778D01*
X179824005Y-92693864D01*
X179898139Y-92447745D01*
X179070000Y-91619605D01*
X178241861Y-92447745D01*
X175091651Y-92447745D01*
X175286534Y-92252862D01*
X175505000Y-91725439D01*
X175505000Y-91223223D01*
X177623035Y-91223223D01*
X177650222Y-91793454D01*
X177816136Y-92194005D01*
X178062255Y-92268139D01*
X178890395Y-91440000D01*
X179249605Y-91440000D01*
X180077745Y-92268139D01*
X180323864Y-92194005D01*
X180516965Y-91656777D01*
X180489778Y-91086546D01*
X180323864Y-90685995D01*
X180077745Y-90611861D01*
X179249605Y-91440000D01*
X178890395Y-91440000D01*
X178062255Y-90611861D01*
X177816136Y-90685995D01*
X177623035Y-91223223D01*
X175505000Y-91223223D01*
X175505000Y-91154561D01*
X175286534Y-90627138D01*
X175091651Y-90432255D01*
X178241861Y-90432255D01*
X179070000Y-91260395D01*
X179898139Y-90432255D01*
X179824005Y-90186136D01*
X179286777Y-89993035D01*
X178716546Y-90020222D01*
X178315995Y-90186136D01*
X178241861Y-90432255D01*
X175091651Y-90432255D01*
X174882862Y-90223466D01*
X174355439Y-90005000D01*
X173784561Y-90005000D01*
X173257138Y-90223466D01*
X172853466Y-90627138D01*
X172635000Y-91154561D01*
X169211271Y-91154561D01*
X169135391Y-90773089D01*
X168784523Y-90247977D01*
X168259410Y-89897109D01*
X167640000Y-89773900D01*
X167020589Y-89897109D01*
X166495477Y-90247977D01*
X166360841Y-90449474D01*
X165966924Y-90064027D01*
X165472980Y-89849437D01*
X165227000Y-89969406D01*
X164973000Y-89969406D01*
X164727020Y-89849437D01*
X164233076Y-90064027D01*
X164107255Y-90187143D01*
X163970309Y-89982191D01*
X163760265Y-89841843D01*
X163595000Y-89808970D01*
X163595000Y-89328710D01*
X163664443Y-89259267D01*
X185343680Y-89259267D01*
X185544947Y-89802571D01*
X185938807Y-90227497D01*
X186453110Y-90466476D01*
X186683000Y-90345155D01*
X186683000Y-89027000D01*
X185483835Y-89027000D01*
X185343680Y-89259267D01*
X163664443Y-89259267D01*
X164382977Y-88540733D01*
X185343680Y-88540733D01*
X185483835Y-88773000D01*
X186683000Y-88773000D01*
X186683000Y-87454845D01*
X186453110Y-87333524D01*
X185938807Y-87572503D01*
X185544947Y-87997429D01*
X185343680Y-88540733D01*
X164382977Y-88540733D01*
X166798711Y-86125000D01*
X201501290Y-86125000D01*
X205893507Y-90517217D01*
X205832086Y-90505000D01*
X205740000Y-90486683D01*
X205647914Y-90505000D01*
X201942085Y-90505000D01*
X201849999Y-90486683D01*
X201670237Y-90522440D01*
X201485181Y-90559250D01*
X201175903Y-90765903D01*
X201123741Y-90843969D01*
X200063970Y-91903741D01*
X199985904Y-91955903D01*
X199933742Y-92033969D01*
X199933741Y-92033970D01*
X199779250Y-92265182D01*
X199708132Y-92622714D01*
X199662235Y-92631843D01*
X199452191Y-92772191D01*
X199311843Y-92982235D01*
X199262560Y-93230000D01*
X199262560Y-94730000D01*
X199311843Y-94977765D01*
X199452191Y-95187809D01*
X199662235Y-95328157D01*
X199910000Y-95377440D01*
X201410000Y-95377440D01*
X201657765Y-95328157D01*
X201867809Y-95187809D01*
X202008157Y-94977765D01*
X202046469Y-94785156D01*
X202300578Y-95039265D01*
X201604843Y-95735000D01*
X198078075Y-95735000D01*
X198066534Y-95707138D01*
X197662862Y-95303466D01*
X197135439Y-95085000D01*
X196564561Y-95085000D01*
X196037138Y-95303466D01*
X195633466Y-95707138D01*
X195415000Y-96234561D01*
X195415000Y-96805439D01*
X195633466Y-97332862D01*
X196037138Y-97736534D01*
X196564561Y-97955000D01*
X197135439Y-97955000D01*
X197662862Y-97736534D01*
X198066534Y-97332862D01*
X198078075Y-97305000D01*
X201852688Y-97305000D01*
X201930000Y-97320378D01*
X202007312Y-97305000D01*
X202007316Y-97305000D01*
X202236292Y-97259454D01*
X202495953Y-97085953D01*
X202539749Y-97020408D01*
X203700411Y-95859747D01*
X203765953Y-95815953D01*
X203809747Y-95750411D01*
X203809749Y-95750409D01*
X203907941Y-95603454D01*
X203939454Y-95556292D01*
X203985000Y-95327316D01*
X203985000Y-95327312D01*
X204000378Y-95250001D01*
X203985000Y-95172690D01*
X203985000Y-95153687D01*
X204187170Y-94951517D01*
X204948088Y-94951517D01*
X205016077Y-95192460D01*
X205535171Y-95377201D01*
X206085448Y-95349230D01*
X206463923Y-95192460D01*
X206531912Y-94951517D01*
X205740000Y-94159605D01*
X204948088Y-94951517D01*
X204187170Y-94951517D01*
X204374147Y-94764540D01*
X204463397Y-94549070D01*
X204527540Y-94703923D01*
X204768483Y-94771912D01*
X205560395Y-93980000D01*
X204768483Y-93188088D01*
X204527540Y-93256077D01*
X204468255Y-93422658D01*
X204374147Y-93195460D01*
X203984540Y-92805853D01*
X203475494Y-92595000D01*
X202924506Y-92595000D01*
X202415460Y-92805853D01*
X202046469Y-93174844D01*
X202008157Y-92982235D01*
X201867809Y-92772191D01*
X201851198Y-92761092D01*
X202237290Y-92375000D01*
X205352711Y-92375000D01*
X205579100Y-92601389D01*
X205394552Y-92610770D01*
X205016077Y-92767540D01*
X204948088Y-93008483D01*
X205740000Y-93800395D01*
X205754143Y-93786253D01*
X205933748Y-93965858D01*
X205919605Y-93980000D01*
X206711517Y-94771912D01*
X206952460Y-94703923D01*
X207137201Y-94184829D01*
X207135844Y-94158134D01*
X208943741Y-95966031D01*
X208995903Y-96044097D01*
X209305181Y-96250750D01*
X209577914Y-96305000D01*
X209577917Y-96305000D01*
X209669999Y-96323316D01*
X209762081Y-96305000D01*
X210803753Y-96305000D01*
X210894375Y-96440625D01*
X211162829Y-96620000D01*
X210894375Y-96799375D01*
X210803753Y-96935000D01*
X203212081Y-96935000D01*
X203119999Y-96916684D01*
X203027917Y-96935000D01*
X203027914Y-96935000D01*
X202755181Y-96989250D01*
X202445903Y-97195903D01*
X202393741Y-97273969D01*
X200063972Y-99603739D01*
X199985903Y-99655903D01*
X199907013Y-99773971D01*
X199779250Y-99965182D01*
X199724701Y-100239418D01*
X199662235Y-100251843D01*
X199452191Y-100392191D01*
X199311843Y-100602235D01*
X199262560Y-100850000D01*
X199262560Y-102350000D01*
X199311843Y-102597765D01*
X199452191Y-102807809D01*
X199662235Y-102948157D01*
X199910000Y-102997440D01*
X201410000Y-102997440D01*
X201657765Y-102948157D01*
X201867809Y-102807809D01*
X202008157Y-102597765D01*
X202046469Y-102405156D01*
X202300578Y-102659265D01*
X201604843Y-103355000D01*
X199715158Y-103355000D01*
X197784777Y-101424619D01*
X198066534Y-101142862D01*
X198285000Y-100615439D01*
X198285000Y-100044561D01*
X198066534Y-99517138D01*
X197662862Y-99113466D01*
X197135439Y-98895000D01*
X196564561Y-98895000D01*
X196037138Y-99113466D01*
X195633466Y-99517138D01*
X195415000Y-100044561D01*
X195415000Y-100615439D01*
X195633466Y-101142862D01*
X196037138Y-101546534D01*
X196058497Y-101555381D01*
X196049622Y-101600000D01*
X196110546Y-101906291D01*
X196240251Y-102100408D01*
X196240254Y-102100411D01*
X196284048Y-102165953D01*
X196349590Y-102209747D01*
X196844843Y-102705000D01*
X196564561Y-102705000D01*
X196037138Y-102923466D01*
X195633466Y-103327138D01*
X195415000Y-103854561D01*
X195415000Y-104425439D01*
X195633466Y-104952862D01*
X196037138Y-105356534D01*
X196564561Y-105575000D01*
X197135439Y-105575000D01*
X197163302Y-105563459D01*
X198780253Y-107180411D01*
X198824047Y-107245953D01*
X198889589Y-107289747D01*
X198889591Y-107289749D01*
X199016746Y-107374711D01*
X199083708Y-107419454D01*
X199312684Y-107465000D01*
X199312688Y-107465000D01*
X199389999Y-107480378D01*
X199467310Y-107465000D01*
X201604843Y-107465000D01*
X202300578Y-108160735D01*
X202046469Y-108414844D01*
X202008157Y-108222235D01*
X201867809Y-108012191D01*
X201657765Y-107871843D01*
X201410000Y-107822560D01*
X199910000Y-107822560D01*
X199662235Y-107871843D01*
X199452191Y-108012191D01*
X199311843Y-108222235D01*
X199262560Y-108470000D01*
X199262560Y-109970000D01*
X199311843Y-110217765D01*
X199452191Y-110427809D01*
X199662235Y-110568157D01*
X199725000Y-110580642D01*
X199725000Y-110582085D01*
X199779250Y-110854818D01*
X199985903Y-111164097D01*
X200063972Y-111216261D01*
X201203741Y-112356031D01*
X201255903Y-112434097D01*
X201333969Y-112486259D01*
X201565181Y-112640750D01*
X201930000Y-112713317D01*
X202022086Y-112695000D01*
X206917914Y-112695000D01*
X207010000Y-112713317D01*
X207102086Y-112695000D01*
X207374819Y-112640750D01*
X207684097Y-112434097D01*
X207736261Y-112356028D01*
X208876031Y-111216259D01*
X208954097Y-111164097D01*
X209160750Y-110854819D01*
X209215000Y-110582086D01*
X209215000Y-110582083D01*
X209233316Y-110490001D01*
X209215000Y-110397919D01*
X209215000Y-103155750D01*
X210480000Y-103155750D01*
X210480000Y-103846309D01*
X210576673Y-104079698D01*
X210755301Y-104258327D01*
X210988690Y-104355000D01*
X211804250Y-104355000D01*
X211963000Y-104196250D01*
X211963000Y-102997000D01*
X212217000Y-102997000D01*
X212217000Y-104196250D01*
X212375750Y-104355000D01*
X213191310Y-104355000D01*
X213424699Y-104258327D01*
X213603327Y-104079698D01*
X213700000Y-103846309D01*
X213700000Y-103155750D01*
X213541250Y-102997000D01*
X212217000Y-102997000D01*
X211963000Y-102997000D01*
X210638750Y-102997000D01*
X210480000Y-103155750D01*
X209215000Y-103155750D01*
X209215000Y-101987289D01*
X209937290Y-101265000D01*
X210777026Y-101265000D01*
X210885709Y-101427656D01*
X210755301Y-101481673D01*
X210576673Y-101660302D01*
X210480000Y-101893691D01*
X210480000Y-102584250D01*
X210638750Y-102743000D01*
X211963000Y-102743000D01*
X211963000Y-102723000D01*
X212217000Y-102723000D01*
X212217000Y-102743000D01*
X213541250Y-102743000D01*
X213700000Y-102584250D01*
X213700000Y-101893691D01*
X213603327Y-101660302D01*
X213424699Y-101481673D01*
X213294291Y-101427656D01*
X213613839Y-100949418D01*
X213729092Y-100370000D01*
X213613839Y-99790582D01*
X213285625Y-99299375D01*
X213017171Y-99120000D01*
X213285625Y-98940625D01*
X213613839Y-98449418D01*
X213729092Y-97870000D01*
X213613839Y-97290582D01*
X213285625Y-96799375D01*
X213017171Y-96620000D01*
X213285625Y-96440625D01*
X213613839Y-95949418D01*
X213729092Y-95370000D01*
X213613839Y-94790582D01*
X213285625Y-94299375D01*
X213017171Y-94120000D01*
X213285625Y-93940625D01*
X213613839Y-93449418D01*
X213729092Y-92870000D01*
X213613839Y-92290582D01*
X213285625Y-91799375D01*
X212794418Y-91471161D01*
X212361256Y-91385000D01*
X211818744Y-91385000D01*
X211385582Y-91471161D01*
X210894375Y-91799375D01*
X210870571Y-91835000D01*
X210138711Y-91835000D01*
X202733937Y-84430227D01*
X202676193Y-84343807D01*
X202333837Y-84115052D01*
X202031935Y-84055000D01*
X202031934Y-84055000D01*
X201930000Y-84034724D01*
X201828066Y-84055000D01*
X166471934Y-84055000D01*
X166370000Y-84034724D01*
X166268065Y-84055000D01*
X165966163Y-84115052D01*
X165623807Y-84343807D01*
X165566065Y-84430224D01*
X161900225Y-88096065D01*
X161813808Y-88153807D01*
X161756066Y-88240224D01*
X161585052Y-88496164D01*
X161504724Y-88900000D01*
X161525001Y-89001939D01*
X161525001Y-89808970D01*
X161359735Y-89841843D01*
X161149691Y-89982191D01*
X161009343Y-90192235D01*
X160960060Y-90440000D01*
X160960060Y-92440000D01*
X161009343Y-92687765D01*
X161149691Y-92897809D01*
X161359735Y-93038157D01*
X161525000Y-93071030D01*
X161525001Y-98929304D01*
X161512235Y-98931843D01*
X161302191Y-99072191D01*
X161161843Y-99282235D01*
X161112560Y-99530000D01*
X161112560Y-101130000D01*
X161161843Y-101377765D01*
X161302191Y-101587809D01*
X161383890Y-101642399D01*
X158651290Y-104375000D01*
X157727944Y-104375000D01*
X157594586Y-104175414D01*
X157303435Y-103980874D01*
X156960000Y-103912560D01*
X155460000Y-103912560D01*
X155116565Y-103980874D01*
X154825414Y-104175414D01*
X154630874Y-104466565D01*
X154562560Y-104810000D01*
X151257000Y-104810000D01*
X151257000Y-89027000D01*
X157480000Y-89027000D01*
X157528601Y-89017333D01*
X157569803Y-88989803D01*
X157597333Y-88948601D01*
X157607000Y-88900000D01*
X157607000Y-82677000D01*
X211963000Y-82677000D01*
X211963000Y-88900000D01*
G36*
X174117000Y-124333000D02*
X174137000Y-124333000D01*
X174137000Y-124587000D01*
X174117000Y-124587000D01*
X174117000Y-124607000D01*
X173863000Y-124607000D01*
X173863000Y-124587000D01*
X173843000Y-124587000D01*
X173843000Y-124333000D01*
X173863000Y-124333000D01*
X173863000Y-124313000D01*
X174117000Y-124313000D01*
X174117000Y-124333000D01*
X174117000Y-124333000D01*
G37*
X174117000Y-124333000D02*
X174137000Y-124333000D01*
X174137000Y-124587000D01*
X174117000Y-124587000D01*
X174117000Y-124607000D01*
X173863000Y-124607000D01*
X173863000Y-124587000D01*
X173843000Y-124587000D01*
X173843000Y-124333000D01*
X173863000Y-124333000D01*
X173863000Y-124313000D01*
X174117000Y-124313000D01*
X174117000Y-124333000D01*
G36*
X210894375Y-98940625D02*
X211162829Y-99120000D01*
X210894375Y-99299375D01*
X210830480Y-99395000D01*
X209642081Y-99395000D01*
X209549999Y-99376684D01*
X209457917Y-99395000D01*
X209457914Y-99395000D01*
X209185181Y-99449250D01*
X208875903Y-99655903D01*
X208823741Y-99733969D01*
X207683972Y-100873739D01*
X207605903Y-100925903D01*
X207433577Y-101183808D01*
X207399250Y-101235182D01*
X207326683Y-101600000D01*
X207345000Y-101692086D01*
X207345001Y-110102709D01*
X206622711Y-110825000D01*
X202317290Y-110825000D01*
X201888753Y-110396464D01*
X202008157Y-110217765D01*
X202046469Y-110025156D01*
X202415460Y-110394147D01*
X202924506Y-110605000D01*
X203475494Y-110605000D01*
X203984540Y-110394147D01*
X204187170Y-110191517D01*
X204948088Y-110191517D01*
X205016077Y-110432460D01*
X205535171Y-110617201D01*
X206085448Y-110589230D01*
X206463923Y-110432460D01*
X206531912Y-110191517D01*
X205740000Y-109399605D01*
X204948088Y-110191517D01*
X204187170Y-110191517D01*
X204374147Y-110004540D01*
X204463397Y-109789070D01*
X204527540Y-109943923D01*
X204768483Y-110011912D01*
X205560395Y-109220000D01*
X205919605Y-109220000D01*
X206711517Y-110011912D01*
X206952460Y-109943923D01*
X207137201Y-109424829D01*
X207109230Y-108874552D01*
X206952460Y-108496077D01*
X206711517Y-108428088D01*
X205919605Y-109220000D01*
X205560395Y-109220000D01*
X204768483Y-108428088D01*
X204527540Y-108496077D01*
X204468255Y-108662658D01*
X204374147Y-108435460D01*
X204187170Y-108248483D01*
X204948088Y-108248483D01*
X205740000Y-109040395D01*
X206531912Y-108248483D01*
X206463923Y-108007540D01*
X205944829Y-107822799D01*
X205394552Y-107850770D01*
X205016077Y-108007540D01*
X204948088Y-108248483D01*
X204187170Y-108248483D01*
X203985000Y-108046313D01*
X203985000Y-108027310D01*
X204000378Y-107949999D01*
X203985000Y-107872688D01*
X203985000Y-107872684D01*
X203939454Y-107643708D01*
X203830320Y-107480378D01*
X203809749Y-107449591D01*
X203809747Y-107449589D01*
X203765953Y-107384047D01*
X203700411Y-107340253D01*
X202539748Y-106179591D01*
X202495953Y-106114047D01*
X202236292Y-105940546D01*
X202007316Y-105895000D01*
X202007312Y-105895000D01*
X201930000Y-105879622D01*
X201852688Y-105895000D01*
X199715158Y-105895000D01*
X198273459Y-104453302D01*
X198285000Y-104425439D01*
X198285000Y-104145158D01*
X198780253Y-104640411D01*
X198824047Y-104705953D01*
X198889589Y-104749747D01*
X198889591Y-104749749D01*
X198979763Y-104810000D01*
X199083708Y-104879454D01*
X199312684Y-104925000D01*
X199312688Y-104925000D01*
X199389999Y-104940378D01*
X199467310Y-104925000D01*
X201852688Y-104925000D01*
X201930000Y-104940378D01*
X202007312Y-104925000D01*
X202007316Y-104925000D01*
X202236292Y-104879454D01*
X202495953Y-104705953D01*
X202539749Y-104640408D01*
X203700411Y-103479747D01*
X203765953Y-103435953D01*
X203809747Y-103370411D01*
X203809749Y-103370409D01*
X203859885Y-103295375D01*
X203939454Y-103176292D01*
X203985000Y-102947316D01*
X203985000Y-102947312D01*
X204000378Y-102870001D01*
X203985000Y-102792690D01*
X203985000Y-102773687D01*
X204187170Y-102571517D01*
X204948088Y-102571517D01*
X205016077Y-102812460D01*
X205535171Y-102997201D01*
X206085448Y-102969230D01*
X206463923Y-102812460D01*
X206531912Y-102571517D01*
X205740000Y-101779605D01*
X204948088Y-102571517D01*
X204187170Y-102571517D01*
X204374147Y-102384540D01*
X204463397Y-102169070D01*
X204527540Y-102323923D01*
X204768483Y-102391912D01*
X205560395Y-101600000D01*
X205919605Y-101600000D01*
X206711517Y-102391912D01*
X206952460Y-102323923D01*
X207137201Y-101804829D01*
X207109230Y-101254552D01*
X206952460Y-100876077D01*
X206711517Y-100808088D01*
X205919605Y-101600000D01*
X205560395Y-101600000D01*
X204768483Y-100808088D01*
X204527540Y-100876077D01*
X204468255Y-101042658D01*
X204374147Y-100815460D01*
X204187170Y-100628483D01*
X204948088Y-100628483D01*
X205740000Y-101420395D01*
X206531912Y-100628483D01*
X206463923Y-100387540D01*
X205944829Y-100202799D01*
X205394552Y-100230770D01*
X205016077Y-100387540D01*
X204948088Y-100628483D01*
X204187170Y-100628483D01*
X203984540Y-100425853D01*
X203475494Y-100215000D01*
X202924506Y-100215000D01*
X202415460Y-100425853D01*
X202046469Y-100794844D01*
X202008157Y-100602235D01*
X201888753Y-100423536D01*
X203507290Y-98805000D01*
X210803753Y-98805000D01*
X210894375Y-98940625D01*
X210894375Y-98940625D01*
G37*
X210894375Y-98940625D02*
X211162829Y-99120000D01*
X210894375Y-99299375D01*
X210830480Y-99395000D01*
X209642081Y-99395000D01*
X209549999Y-99376684D01*
X209457917Y-99395000D01*
X209457914Y-99395000D01*
X209185181Y-99449250D01*
X208875903Y-99655903D01*
X208823741Y-99733969D01*
X207683972Y-100873739D01*
X207605903Y-100925903D01*
X207433577Y-101183808D01*
X207399250Y-101235182D01*
X207326683Y-101600000D01*
X207345000Y-101692086D01*
X207345001Y-110102709D01*
X206622711Y-110825000D01*
X202317290Y-110825000D01*
X201888753Y-110396464D01*
X202008157Y-110217765D01*
X202046469Y-110025156D01*
X202415460Y-110394147D01*
X202924506Y-110605000D01*
X203475494Y-110605000D01*
X203984540Y-110394147D01*
X204187170Y-110191517D01*
X204948088Y-110191517D01*
X205016077Y-110432460D01*
X205535171Y-110617201D01*
X206085448Y-110589230D01*
X206463923Y-110432460D01*
X206531912Y-110191517D01*
X205740000Y-109399605D01*
X204948088Y-110191517D01*
X204187170Y-110191517D01*
X204374147Y-110004540D01*
X204463397Y-109789070D01*
X204527540Y-109943923D01*
X204768483Y-110011912D01*
X205560395Y-109220000D01*
X205919605Y-109220000D01*
X206711517Y-110011912D01*
X206952460Y-109943923D01*
X207137201Y-109424829D01*
X207109230Y-108874552D01*
X206952460Y-108496077D01*
X206711517Y-108428088D01*
X205919605Y-109220000D01*
X205560395Y-109220000D01*
X204768483Y-108428088D01*
X204527540Y-108496077D01*
X204468255Y-108662658D01*
X204374147Y-108435460D01*
X204187170Y-108248483D01*
X204948088Y-108248483D01*
X205740000Y-109040395D01*
X206531912Y-108248483D01*
X206463923Y-108007540D01*
X205944829Y-107822799D01*
X205394552Y-107850770D01*
X205016077Y-108007540D01*
X204948088Y-108248483D01*
X204187170Y-108248483D01*
X203985000Y-108046313D01*
X203985000Y-108027310D01*
X204000378Y-107949999D01*
X203985000Y-107872688D01*
X203985000Y-107872684D01*
X203939454Y-107643708D01*
X203830320Y-107480378D01*
X203809749Y-107449591D01*
X203809747Y-107449589D01*
X203765953Y-107384047D01*
X203700411Y-107340253D01*
X202539748Y-106179591D01*
X202495953Y-106114047D01*
X202236292Y-105940546D01*
X202007316Y-105895000D01*
X202007312Y-105895000D01*
X201930000Y-105879622D01*
X201852688Y-105895000D01*
X199715158Y-105895000D01*
X198273459Y-104453302D01*
X198285000Y-104425439D01*
X198285000Y-104145158D01*
X198780253Y-104640411D01*
X198824047Y-104705953D01*
X198889589Y-104749747D01*
X198889591Y-104749749D01*
X198979763Y-104810000D01*
X199083708Y-104879454D01*
X199312684Y-104925000D01*
X199312688Y-104925000D01*
X199389999Y-104940378D01*
X199467310Y-104925000D01*
X201852688Y-104925000D01*
X201930000Y-104940378D01*
X202007312Y-104925000D01*
X202007316Y-104925000D01*
X202236292Y-104879454D01*
X202495953Y-104705953D01*
X202539749Y-104640408D01*
X203700411Y-103479747D01*
X203765953Y-103435953D01*
X203809747Y-103370411D01*
X203809749Y-103370409D01*
X203859885Y-103295375D01*
X203939454Y-103176292D01*
X203985000Y-102947316D01*
X203985000Y-102947312D01*
X204000378Y-102870001D01*
X203985000Y-102792690D01*
X203985000Y-102773687D01*
X204187170Y-102571517D01*
X204948088Y-102571517D01*
X205016077Y-102812460D01*
X205535171Y-102997201D01*
X206085448Y-102969230D01*
X206463923Y-102812460D01*
X206531912Y-102571517D01*
X205740000Y-101779605D01*
X204948088Y-102571517D01*
X204187170Y-102571517D01*
X204374147Y-102384540D01*
X204463397Y-102169070D01*
X204527540Y-102323923D01*
X204768483Y-102391912D01*
X205560395Y-101600000D01*
X205919605Y-101600000D01*
X206711517Y-102391912D01*
X206952460Y-102323923D01*
X207137201Y-101804829D01*
X207109230Y-101254552D01*
X206952460Y-100876077D01*
X206711517Y-100808088D01*
X205919605Y-101600000D01*
X205560395Y-101600000D01*
X204768483Y-100808088D01*
X204527540Y-100876077D01*
X204468255Y-101042658D01*
X204374147Y-100815460D01*
X204187170Y-100628483D01*
X204948088Y-100628483D01*
X205740000Y-101420395D01*
X206531912Y-100628483D01*
X206463923Y-100387540D01*
X205944829Y-100202799D01*
X205394552Y-100230770D01*
X205016077Y-100387540D01*
X204948088Y-100628483D01*
X204187170Y-100628483D01*
X203984540Y-100425853D01*
X203475494Y-100215000D01*
X202924506Y-100215000D01*
X202415460Y-100425853D01*
X202046469Y-100794844D01*
X202008157Y-100602235D01*
X201888753Y-100423536D01*
X203507290Y-98805000D01*
X210803753Y-98805000D01*
X210894375Y-98940625D01*
G04 #@! TD*
M02*
