M48
;DRILL file {KiCad (5.0.2)-1} date 06.02.2019 21:09:04
;FORMAT={-:-/ absolute / inch / decimal}
FMAT,2
INCH,TZ
T1C0.0157
T2C0.0315
T3C0.0374
T4C0.0394
T5C0.0433
%
G90
G05
T1
X7.2Y-3.6
X7.6Y-4.9
T2
X7.35Y-4.1
X7.75Y-4.1
X7.35Y-3.95
X7.75Y-3.95
X7.35Y-4.55
X7.75Y-4.55
X7.9Y-3.7
X8.Y-3.7
X8.1Y-3.7
X6.4Y-3.95
X6.5378Y-3.95
X6.8531Y-3.6
X7.05Y-3.6
X7.35Y-3.8
X7.75Y-3.8
X6.4Y-4.4
X6.5378Y-4.4
X6.8Y-3.9
X6.8Y-4.
X6.8Y-4.1
X6.8Y-4.2
X6.8Y-4.3
X6.8Y-4.4
X6.8Y-4.5
X7.1Y-3.9
X7.1Y-4.
X7.1Y-4.1
X7.1Y-4.2
X7.1Y-4.3
X7.1Y-4.4
X7.1Y-4.5
X7.9Y-4.
X8.Y-4.
X8.1Y-4.
X7.35Y-4.25
X7.75Y-4.25
X7.35Y-4.4
X7.75Y-4.4
X7.9Y-4.3
X8.Y-4.3
X8.1Y-4.3
X6.8531Y-3.75
X7.05Y-3.75
T3
X7.3547Y-3.5
X7.4531Y-3.5
X7.5516Y-3.5
X7.65Y-3.5
X8.35Y-3.6563
X8.35Y-3.7547
X8.35Y-3.8531
X8.35Y-3.9516
X8.35Y-4.05
X8.35Y-4.4063
X8.35Y-4.5047
X8.35Y-4.6031
X8.35Y-4.7016
X8.35Y-4.8
T4
X6.15Y-4.15
X6.15Y-4.2484
X6.4Y-4.8
X6.4984Y-4.8
X6.85Y-4.8
X6.85Y-4.9
X6.95Y-4.8
X6.95Y-4.9
X7.05Y-4.8
X7.05Y-4.9
T5
X6.4Y-3.6
X6.5Y-3.6
X6.6Y-3.6
T0
M30
