G04 #@! TF.GenerationSoftware,KiCad,Pcbnew,(5.0.2)-1*
G04 #@! TF.CreationDate,2019-02-06T21:08:15+01:00*
G04 #@! TF.ProjectId,parkranger,7061726b-7261-46e6-9765-722e6b696361,rev?*
G04 #@! TF.SameCoordinates,Original*
G04 #@! TF.FileFunction,Copper,L1,Top*
G04 #@! TF.FilePolarity,Positive*
%FSLAX46Y46*%
G04 Gerber Fmt 4.6, Leading zero omitted, Abs format (unit mm)*
G04 Created by KiCad (PCBNEW (5.0.2)-1) date 06.02.2019 21:08:15*
%MOMM*%
%LPD*%
G01*
G04 APERTURE LIST*
G04 #@! TA.AperFunction,ComponentPad*
%ADD10R,1.600000X1.600000*%
G04 #@! TD*
G04 #@! TA.AperFunction,ComponentPad*
%ADD11C,1.600000*%
G04 #@! TD*
G04 #@! TA.AperFunction,ComponentPad*
%ADD12O,2.000000X1.700000*%
G04 #@! TD*
G04 #@! TA.AperFunction,Conductor*
%ADD13C,0.100000*%
G04 #@! TD*
G04 #@! TA.AperFunction,ComponentPad*
%ADD14C,1.700000*%
G04 #@! TD*
G04 #@! TA.AperFunction,ComponentPad*
%ADD15O,1.700000X1.950000*%
G04 #@! TD*
G04 #@! TA.AperFunction,ComponentPad*
%ADD16O,1.950000X1.700000*%
G04 #@! TD*
G04 #@! TA.AperFunction,ComponentPad*
%ADD17O,1.700000X1.700000*%
G04 #@! TD*
G04 #@! TA.AperFunction,ComponentPad*
%ADD18R,1.700000X1.700000*%
G04 #@! TD*
G04 #@! TA.AperFunction,ComponentPad*
%ADD19O,1.600000X1.600000*%
G04 #@! TD*
G04 #@! TA.AperFunction,ComponentPad*
%ADD20O,1.905000X2.000000*%
G04 #@! TD*
G04 #@! TA.AperFunction,ComponentPad*
%ADD21R,1.905000X2.000000*%
G04 #@! TD*
G04 #@! TA.AperFunction,ComponentPad*
%ADD22R,1.500000X1.500000*%
G04 #@! TD*
G04 #@! TA.AperFunction,ComponentPad*
%ADD23C,1.500000*%
G04 #@! TD*
G04 #@! TA.AperFunction,ComponentPad*
%ADD24O,1.700000X2.000000*%
G04 #@! TD*
G04 #@! TA.AperFunction,ViaPad*
%ADD25C,0.800000*%
G04 #@! TD*
G04 #@! TA.AperFunction,Conductor*
%ADD26C,0.300000*%
G04 #@! TD*
G04 #@! TA.AperFunction,Conductor*
%ADD27C,0.400000*%
G04 #@! TD*
G04 #@! TA.AperFunction,Conductor*
%ADD28C,0.800000*%
G04 #@! TD*
G04 #@! TA.AperFunction,Conductor*
%ADD29C,0.254000*%
G04 #@! TD*
G04 APERTURE END LIST*
D10*
G04 #@! TO.P,C2,1*
G04 #@! TO.N,+5V*
X162560000Y-111760000D03*
D11*
G04 #@! TO.P,C2,2*
G04 #@! TO.N,GND*
X166060000Y-111760000D03*
G04 #@! TD*
G04 #@! TO.P,C1,2*
G04 #@! TO.N,GND*
X166060000Y-100330000D03*
D10*
G04 #@! TO.P,C1,1*
G04 #@! TO.N,+12V*
X162560000Y-100330000D03*
G04 #@! TD*
D11*
G04 #@! TO.P,C3,2*
G04 #@! TO.N,+5V*
X174070000Y-91440000D03*
G04 #@! TO.P,C3,1*
G04 #@! TO.N,GND*
X179070000Y-91440000D03*
G04 #@! TD*
G04 #@! TO.P,C4,2*
G04 #@! TO.N,+5V*
X174070000Y-95250000D03*
G04 #@! TO.P,C4,1*
G04 #@! TO.N,GND*
X179070000Y-95250000D03*
G04 #@! TD*
D12*
G04 #@! TO.P,J1,2*
G04 #@! TO.N,GND*
X156210000Y-107910000D03*
D13*
G04 #@! TD*
G04 #@! TO.N,+12V*
G04 #@! TO.C,J1*
G36*
X156984504Y-104561204D02*
X157008773Y-104564804D01*
X157032571Y-104570765D01*
X157055671Y-104579030D01*
X157077849Y-104589520D01*
X157098893Y-104602133D01*
X157118598Y-104616747D01*
X157136777Y-104633223D01*
X157153253Y-104651402D01*
X157167867Y-104671107D01*
X157180480Y-104692151D01*
X157190970Y-104714329D01*
X157199235Y-104737429D01*
X157205196Y-104761227D01*
X157208796Y-104785496D01*
X157210000Y-104810000D01*
X157210000Y-106010000D01*
X157208796Y-106034504D01*
X157205196Y-106058773D01*
X157199235Y-106082571D01*
X157190970Y-106105671D01*
X157180480Y-106127849D01*
X157167867Y-106148893D01*
X157153253Y-106168598D01*
X157136777Y-106186777D01*
X157118598Y-106203253D01*
X157098893Y-106217867D01*
X157077849Y-106230480D01*
X157055671Y-106240970D01*
X157032571Y-106249235D01*
X157008773Y-106255196D01*
X156984504Y-106258796D01*
X156960000Y-106260000D01*
X155460000Y-106260000D01*
X155435496Y-106258796D01*
X155411227Y-106255196D01*
X155387429Y-106249235D01*
X155364329Y-106240970D01*
X155342151Y-106230480D01*
X155321107Y-106217867D01*
X155301402Y-106203253D01*
X155283223Y-106186777D01*
X155266747Y-106168598D01*
X155252133Y-106148893D01*
X155239520Y-106127849D01*
X155229030Y-106105671D01*
X155220765Y-106082571D01*
X155214804Y-106058773D01*
X155211204Y-106034504D01*
X155210000Y-106010000D01*
X155210000Y-104810000D01*
X155211204Y-104785496D01*
X155214804Y-104761227D01*
X155220765Y-104737429D01*
X155229030Y-104714329D01*
X155239520Y-104692151D01*
X155252133Y-104671107D01*
X155266747Y-104651402D01*
X155283223Y-104633223D01*
X155301402Y-104616747D01*
X155321107Y-104602133D01*
X155342151Y-104589520D01*
X155364329Y-104579030D01*
X155387429Y-104570765D01*
X155411227Y-104564804D01*
X155435496Y-104561204D01*
X155460000Y-104560000D01*
X156960000Y-104560000D01*
X156984504Y-104561204D01*
X156984504Y-104561204D01*
G37*
D14*
G04 #@! TO.P,J1,1*
G04 #@! TO.N,+12V*
X156210000Y-105410000D03*
G04 #@! TD*
D15*
G04 #@! TO.P,J3,4*
G04 #@! TO.N,GND*
X186810000Y-88900000D03*
G04 #@! TO.P,J3,3*
G04 #@! TO.N,Net-(J3-Pad3)*
X189310000Y-88900000D03*
G04 #@! TO.P,J3,2*
G04 #@! TO.N,Net-(J3-Pad2)*
X191810000Y-88900000D03*
D13*
G04 #@! TD*
G04 #@! TO.N,+5V*
G04 #@! TO.C,J3*
G36*
X194934504Y-87926204D02*
X194958773Y-87929804D01*
X194982571Y-87935765D01*
X195005671Y-87944030D01*
X195027849Y-87954520D01*
X195048893Y-87967133D01*
X195068598Y-87981747D01*
X195086777Y-87998223D01*
X195103253Y-88016402D01*
X195117867Y-88036107D01*
X195130480Y-88057151D01*
X195140970Y-88079329D01*
X195149235Y-88102429D01*
X195155196Y-88126227D01*
X195158796Y-88150496D01*
X195160000Y-88175000D01*
X195160000Y-89625000D01*
X195158796Y-89649504D01*
X195155196Y-89673773D01*
X195149235Y-89697571D01*
X195140970Y-89720671D01*
X195130480Y-89742849D01*
X195117867Y-89763893D01*
X195103253Y-89783598D01*
X195086777Y-89801777D01*
X195068598Y-89818253D01*
X195048893Y-89832867D01*
X195027849Y-89845480D01*
X195005671Y-89855970D01*
X194982571Y-89864235D01*
X194958773Y-89870196D01*
X194934504Y-89873796D01*
X194910000Y-89875000D01*
X193710000Y-89875000D01*
X193685496Y-89873796D01*
X193661227Y-89870196D01*
X193637429Y-89864235D01*
X193614329Y-89855970D01*
X193592151Y-89845480D01*
X193571107Y-89832867D01*
X193551402Y-89818253D01*
X193533223Y-89801777D01*
X193516747Y-89783598D01*
X193502133Y-89763893D01*
X193489520Y-89742849D01*
X193479030Y-89720671D01*
X193470765Y-89697571D01*
X193464804Y-89673773D01*
X193461204Y-89649504D01*
X193460000Y-89625000D01*
X193460000Y-88175000D01*
X193461204Y-88150496D01*
X193464804Y-88126227D01*
X193470765Y-88102429D01*
X193479030Y-88079329D01*
X193489520Y-88057151D01*
X193502133Y-88036107D01*
X193516747Y-88016402D01*
X193533223Y-87998223D01*
X193551402Y-87981747D01*
X193571107Y-87967133D01*
X193592151Y-87954520D01*
X193614329Y-87944030D01*
X193637429Y-87935765D01*
X193661227Y-87929804D01*
X193685496Y-87926204D01*
X193710000Y-87925000D01*
X194910000Y-87925000D01*
X194934504Y-87926204D01*
X194934504Y-87926204D01*
G37*
D14*
G04 #@! TO.P,J3,1*
G04 #@! TO.N,+5V*
X194310000Y-88900000D03*
G04 #@! TD*
D16*
G04 #@! TO.P,J4,5*
G04 #@! TO.N,+5V*
X212090000Y-111920000D03*
G04 #@! TO.P,J4,4*
G04 #@! TO.N,Net-(J4-Pad4)*
X212090000Y-114420000D03*
G04 #@! TO.P,J4,3*
G04 #@! TO.N,Net-(J4-Pad3)*
X212090000Y-116920000D03*
G04 #@! TO.P,J4,2*
G04 #@! TO.N,Net-(J4-Pad2)*
X212090000Y-119420000D03*
D13*
G04 #@! TD*
G04 #@! TO.N,GND*
G04 #@! TO.C,J4*
G36*
X212839504Y-121071204D02*
X212863773Y-121074804D01*
X212887571Y-121080765D01*
X212910671Y-121089030D01*
X212932849Y-121099520D01*
X212953893Y-121112133D01*
X212973598Y-121126747D01*
X212991777Y-121143223D01*
X213008253Y-121161402D01*
X213022867Y-121181107D01*
X213035480Y-121202151D01*
X213045970Y-121224329D01*
X213054235Y-121247429D01*
X213060196Y-121271227D01*
X213063796Y-121295496D01*
X213065000Y-121320000D01*
X213065000Y-122520000D01*
X213063796Y-122544504D01*
X213060196Y-122568773D01*
X213054235Y-122592571D01*
X213045970Y-122615671D01*
X213035480Y-122637849D01*
X213022867Y-122658893D01*
X213008253Y-122678598D01*
X212991777Y-122696777D01*
X212973598Y-122713253D01*
X212953893Y-122727867D01*
X212932849Y-122740480D01*
X212910671Y-122750970D01*
X212887571Y-122759235D01*
X212863773Y-122765196D01*
X212839504Y-122768796D01*
X212815000Y-122770000D01*
X211365000Y-122770000D01*
X211340496Y-122768796D01*
X211316227Y-122765196D01*
X211292429Y-122759235D01*
X211269329Y-122750970D01*
X211247151Y-122740480D01*
X211226107Y-122727867D01*
X211206402Y-122713253D01*
X211188223Y-122696777D01*
X211171747Y-122678598D01*
X211157133Y-122658893D01*
X211144520Y-122637849D01*
X211134030Y-122615671D01*
X211125765Y-122592571D01*
X211119804Y-122568773D01*
X211116204Y-122544504D01*
X211115000Y-122520000D01*
X211115000Y-121320000D01*
X211116204Y-121295496D01*
X211119804Y-121271227D01*
X211125765Y-121247429D01*
X211134030Y-121224329D01*
X211144520Y-121202151D01*
X211157133Y-121181107D01*
X211171747Y-121161402D01*
X211188223Y-121143223D01*
X211206402Y-121126747D01*
X211226107Y-121112133D01*
X211247151Y-121099520D01*
X211269329Y-121089030D01*
X211292429Y-121080765D01*
X211316227Y-121074804D01*
X211340496Y-121071204D01*
X211365000Y-121070000D01*
X212815000Y-121070000D01*
X212839504Y-121071204D01*
X212839504Y-121071204D01*
G37*
D14*
G04 #@! TO.P,J4,1*
G04 #@! TO.N,GND*
X212090000Y-121920000D03*
G04 #@! TD*
D16*
G04 #@! TO.P,J6,5*
G04 #@! TO.N,+12V*
X212090000Y-92870000D03*
G04 #@! TO.P,J6,4*
G04 #@! TO.N,Net-(J6-Pad4)*
X212090000Y-95370000D03*
G04 #@! TO.P,J6,3*
G04 #@! TO.N,Net-(J6-Pad3)*
X212090000Y-97870000D03*
G04 #@! TO.P,J6,2*
G04 #@! TO.N,Net-(J6-Pad2)*
X212090000Y-100370000D03*
D13*
G04 #@! TD*
G04 #@! TO.N,GND*
G04 #@! TO.C,J6*
G36*
X212839504Y-102021204D02*
X212863773Y-102024804D01*
X212887571Y-102030765D01*
X212910671Y-102039030D01*
X212932849Y-102049520D01*
X212953893Y-102062133D01*
X212973598Y-102076747D01*
X212991777Y-102093223D01*
X213008253Y-102111402D01*
X213022867Y-102131107D01*
X213035480Y-102152151D01*
X213045970Y-102174329D01*
X213054235Y-102197429D01*
X213060196Y-102221227D01*
X213063796Y-102245496D01*
X213065000Y-102270000D01*
X213065000Y-103470000D01*
X213063796Y-103494504D01*
X213060196Y-103518773D01*
X213054235Y-103542571D01*
X213045970Y-103565671D01*
X213035480Y-103587849D01*
X213022867Y-103608893D01*
X213008253Y-103628598D01*
X212991777Y-103646777D01*
X212973598Y-103663253D01*
X212953893Y-103677867D01*
X212932849Y-103690480D01*
X212910671Y-103700970D01*
X212887571Y-103709235D01*
X212863773Y-103715196D01*
X212839504Y-103718796D01*
X212815000Y-103720000D01*
X211365000Y-103720000D01*
X211340496Y-103718796D01*
X211316227Y-103715196D01*
X211292429Y-103709235D01*
X211269329Y-103700970D01*
X211247151Y-103690480D01*
X211226107Y-103677867D01*
X211206402Y-103663253D01*
X211188223Y-103646777D01*
X211171747Y-103628598D01*
X211157133Y-103608893D01*
X211144520Y-103587849D01*
X211134030Y-103565671D01*
X211125765Y-103542571D01*
X211119804Y-103518773D01*
X211116204Y-103494504D01*
X211115000Y-103470000D01*
X211115000Y-102270000D01*
X211116204Y-102245496D01*
X211119804Y-102221227D01*
X211125765Y-102197429D01*
X211134030Y-102174329D01*
X211144520Y-102152151D01*
X211157133Y-102131107D01*
X211171747Y-102111402D01*
X211188223Y-102093223D01*
X211206402Y-102076747D01*
X211226107Y-102062133D01*
X211247151Y-102049520D01*
X211269329Y-102039030D01*
X211292429Y-102030765D01*
X211316227Y-102024804D01*
X211340496Y-102021204D01*
X211365000Y-102020000D01*
X212815000Y-102020000D01*
X212839504Y-102021204D01*
X212839504Y-102021204D01*
G37*
D14*
G04 #@! TO.P,J6,1*
G04 #@! TO.N,GND*
X212090000Y-102870000D03*
G04 #@! TD*
D17*
G04 #@! TO.P,J2,6*
G04 #@! TO.N,GND*
X173990000Y-124460000D03*
G04 #@! TO.P,J2,5*
G04 #@! TO.N,Net-(J2-Pad5)*
X173990000Y-121920000D03*
G04 #@! TO.P,J2,4*
G04 #@! TO.N,Net-(J2-Pad4)*
X176530000Y-124460000D03*
G04 #@! TO.P,J2,3*
G04 #@! TO.N,Net-(J2-Pad3)*
X176530000Y-121920000D03*
G04 #@! TO.P,J2,2*
G04 #@! TO.N,+5V*
X179070000Y-124460000D03*
D18*
G04 #@! TO.P,J2,1*
G04 #@! TO.N,Net-(J2-Pad1)*
X179070000Y-121920000D03*
G04 #@! TD*
D19*
G04 #@! TO.P,U2,14*
G04 #@! TO.N,GND*
X180340000Y-99060000D03*
G04 #@! TO.P,U2,7*
G04 #@! TO.N,Net-(J2-Pad4)*
X172720000Y-114300000D03*
G04 #@! TO.P,U2,13*
G04 #@! TO.N,Net-(J3-Pad2)*
X180340000Y-101600000D03*
G04 #@! TO.P,U2,6*
G04 #@! TO.N,Net-(R3-Pad2)*
X172720000Y-111760000D03*
G04 #@! TO.P,U2,12*
G04 #@! TO.N,Net-(J3-Pad3)*
X180340000Y-104140000D03*
G04 #@! TO.P,U2,5*
G04 #@! TO.N,Net-(U2-Pad5)*
X172720000Y-109220000D03*
G04 #@! TO.P,U2,11*
G04 #@! TO.N,Net-(U2-Pad11)*
X180340000Y-106680000D03*
G04 #@! TO.P,U2,4*
G04 #@! TO.N,Net-(J2-Pad5)*
X172720000Y-106680000D03*
G04 #@! TO.P,U2,10*
G04 #@! TO.N,Net-(U2-Pad10)*
X180340000Y-109220000D03*
G04 #@! TO.P,U2,3*
G04 #@! TO.N,Net-(U2-Pad3)*
X172720000Y-104140000D03*
G04 #@! TO.P,U2,9*
G04 #@! TO.N,Net-(J2-Pad3)*
X180340000Y-111760000D03*
G04 #@! TO.P,U2,2*
G04 #@! TO.N,Net-(U2-Pad2)*
X172720000Y-101600000D03*
G04 #@! TO.P,U2,8*
G04 #@! TO.N,Net-(J2-Pad1)*
X180340000Y-114300000D03*
D10*
G04 #@! TO.P,U2,1*
G04 #@! TO.N,+5V*
X172720000Y-99060000D03*
G04 #@! TD*
D20*
G04 #@! TO.P,U1,3*
G04 #@! TO.N,+5V*
X167640000Y-91440000D03*
G04 #@! TO.P,U1,2*
G04 #@! TO.N,GND*
X165100000Y-91440000D03*
D21*
G04 #@! TO.P,U1,1*
G04 #@! TO.N,+12V*
X162560000Y-91440000D03*
G04 #@! TD*
D22*
G04 #@! TO.P,Q2,1*
G04 #@! TO.N,Net-(J6-Pad3)*
X200660000Y-101600000D03*
D23*
G04 #@! TO.P,Q2,3*
G04 #@! TO.N,GND*
X205740000Y-101600000D03*
G04 #@! TO.P,Q2,2*
G04 #@! TO.N,Net-(Q2-Pad2)*
X203200000Y-101600000D03*
G04 #@! TD*
D22*
G04 #@! TO.P,Q1,1*
G04 #@! TO.N,Net-(J6-Pad4)*
X200660000Y-93980000D03*
D23*
G04 #@! TO.P,Q1,3*
G04 #@! TO.N,GND*
X205740000Y-93980000D03*
G04 #@! TO.P,Q1,2*
G04 #@! TO.N,Net-(Q1-Pad2)*
X203200000Y-93980000D03*
G04 #@! TD*
D22*
G04 #@! TO.P,Q3,1*
G04 #@! TO.N,Net-(J6-Pad2)*
X200660000Y-109220000D03*
D23*
G04 #@! TO.P,Q3,3*
G04 #@! TO.N,GND*
X205740000Y-109220000D03*
G04 #@! TO.P,Q3,2*
G04 #@! TO.N,Net-(Q3-Pad2)*
X203200000Y-109220000D03*
G04 #@! TD*
D19*
G04 #@! TO.P,R5,2*
G04 #@! TO.N,Net-(J2-Pad4)*
X186690000Y-111760000D03*
D11*
G04 #@! TO.P,R5,1*
G04 #@! TO.N,Net-(J4-Pad3)*
X196850000Y-111760000D03*
G04 #@! TD*
D19*
G04 #@! TO.P,R6,2*
G04 #@! TO.N,Net-(R3-Pad2)*
X186690000Y-115570000D03*
D11*
G04 #@! TO.P,R6,1*
G04 #@! TO.N,Net-(J4-Pad2)*
X196850000Y-115570000D03*
G04 #@! TD*
D19*
G04 #@! TO.P,R1,2*
G04 #@! TO.N,Net-(J2-Pad1)*
X186690000Y-96520000D03*
D11*
G04 #@! TO.P,R1,1*
G04 #@! TO.N,Net-(Q1-Pad2)*
X196850000Y-96520000D03*
G04 #@! TD*
D19*
G04 #@! TO.P,R2,2*
G04 #@! TO.N,Net-(J2-Pad4)*
X186690000Y-100330000D03*
D11*
G04 #@! TO.P,R2,1*
G04 #@! TO.N,Net-(Q2-Pad2)*
X196850000Y-100330000D03*
G04 #@! TD*
D19*
G04 #@! TO.P,R3,2*
G04 #@! TO.N,Net-(R3-Pad2)*
X186690000Y-104140000D03*
D11*
G04 #@! TO.P,R3,1*
G04 #@! TO.N,Net-(Q3-Pad2)*
X196850000Y-104140000D03*
G04 #@! TD*
D19*
G04 #@! TO.P,R4,2*
G04 #@! TO.N,Net-(J2-Pad1)*
X186690000Y-107950000D03*
D11*
G04 #@! TO.P,R4,1*
G04 #@! TO.N,Net-(J4-Pad4)*
X196850000Y-107950000D03*
G04 #@! TD*
D24*
G04 #@! TO.P,J5,2*
G04 #@! TO.N,+5V*
X165060000Y-121920000D03*
D13*
G04 #@! TD*
G04 #@! TO.N,GND*
G04 #@! TO.C,J5*
G36*
X163184504Y-120921204D02*
X163208773Y-120924804D01*
X163232571Y-120930765D01*
X163255671Y-120939030D01*
X163277849Y-120949520D01*
X163298893Y-120962133D01*
X163318598Y-120976747D01*
X163336777Y-120993223D01*
X163353253Y-121011402D01*
X163367867Y-121031107D01*
X163380480Y-121052151D01*
X163390970Y-121074329D01*
X163399235Y-121097429D01*
X163405196Y-121121227D01*
X163408796Y-121145496D01*
X163410000Y-121170000D01*
X163410000Y-122670000D01*
X163408796Y-122694504D01*
X163405196Y-122718773D01*
X163399235Y-122742571D01*
X163390970Y-122765671D01*
X163380480Y-122787849D01*
X163367867Y-122808893D01*
X163353253Y-122828598D01*
X163336777Y-122846777D01*
X163318598Y-122863253D01*
X163298893Y-122877867D01*
X163277849Y-122890480D01*
X163255671Y-122900970D01*
X163232571Y-122909235D01*
X163208773Y-122915196D01*
X163184504Y-122918796D01*
X163160000Y-122920000D01*
X161960000Y-122920000D01*
X161935496Y-122918796D01*
X161911227Y-122915196D01*
X161887429Y-122909235D01*
X161864329Y-122900970D01*
X161842151Y-122890480D01*
X161821107Y-122877867D01*
X161801402Y-122863253D01*
X161783223Y-122846777D01*
X161766747Y-122828598D01*
X161752133Y-122808893D01*
X161739520Y-122787849D01*
X161729030Y-122765671D01*
X161720765Y-122742571D01*
X161714804Y-122718773D01*
X161711204Y-122694504D01*
X161710000Y-122670000D01*
X161710000Y-121170000D01*
X161711204Y-121145496D01*
X161714804Y-121121227D01*
X161720765Y-121097429D01*
X161729030Y-121074329D01*
X161739520Y-121052151D01*
X161752133Y-121031107D01*
X161766747Y-121011402D01*
X161783223Y-120993223D01*
X161801402Y-120976747D01*
X161821107Y-120962133D01*
X161842151Y-120949520D01*
X161864329Y-120939030D01*
X161887429Y-120930765D01*
X161911227Y-120924804D01*
X161935496Y-120921204D01*
X161960000Y-120920000D01*
X163160000Y-120920000D01*
X163184504Y-120921204D01*
X163184504Y-120921204D01*
G37*
D14*
G04 #@! TO.P,J5,1*
G04 #@! TO.N,GND*
X162560000Y-121920000D03*
G04 #@! TD*
D25*
G04 #@! TO.N,GND*
X193040000Y-124460000D03*
X182880000Y-91440000D03*
G04 #@! TD*
D26*
G04 #@! TO.N,Net-(R3-Pad2)*
X185890001Y-114770001D02*
X186690000Y-115570000D01*
X184150000Y-113030000D02*
X185890001Y-114770001D01*
X186690000Y-104140000D02*
X184150000Y-106680000D01*
X184150000Y-106680000D02*
X184150000Y-113030000D01*
X177800000Y-116840000D02*
X172720000Y-111760000D01*
X186690000Y-115570000D02*
X185420000Y-116840000D01*
X185420000Y-116840000D02*
X177800000Y-116840000D01*
G04 #@! TO.N,Net-(J2-Pad4)*
X189230000Y-114300000D02*
X186690000Y-111760000D01*
X189230000Y-118110000D02*
X189230000Y-114300000D01*
X187960000Y-119380000D02*
X189230000Y-118110000D01*
X176530000Y-119380000D02*
X187960000Y-119380000D01*
X172720000Y-114300000D02*
X172720000Y-115570000D01*
X172720000Y-115570000D02*
X176530000Y-119380000D01*
D27*
G04 #@! TO.N,+5V*
X212090000Y-111880000D02*
X211970000Y-111760000D01*
D28*
X174070000Y-91440000D02*
X174070000Y-95250000D01*
X174070000Y-97710000D02*
X172720000Y-99060000D01*
X174070000Y-95250000D02*
X174070000Y-97710000D01*
X165060000Y-114260000D02*
X162560000Y-111760000D01*
X165060000Y-121920000D02*
X165060000Y-114260000D01*
X171450000Y-99060000D02*
X172720000Y-99060000D01*
X162560000Y-111760000D02*
X162560000Y-107950000D01*
X162560000Y-107950000D02*
X171450000Y-99060000D01*
X174070000Y-91440000D02*
X167640000Y-91440000D01*
D26*
X165060000Y-123150000D02*
X165060000Y-121920000D01*
X168910000Y-127000000D02*
X165060000Y-123150000D01*
X179070000Y-124460000D02*
X176530000Y-127000000D01*
X176530000Y-127000000D02*
X168910000Y-127000000D01*
D28*
X210980000Y-111920000D02*
X212090000Y-111920000D01*
X208280000Y-109220000D02*
X210980000Y-111920000D01*
X176610000Y-88900000D02*
X181610000Y-88900000D01*
X174070000Y-91440000D02*
X176610000Y-88900000D01*
X181610000Y-88900000D02*
X185420000Y-85090000D01*
X203200000Y-85090000D02*
X208280000Y-90170000D01*
X208280000Y-90170000D02*
X208280000Y-109220000D01*
X185420000Y-85090000D02*
X186690000Y-85090000D01*
X194310000Y-85090000D02*
X203200000Y-85090000D01*
X186690000Y-85090000D02*
X194310000Y-85090000D01*
X194310000Y-85090000D02*
X194310000Y-88900000D01*
D26*
G04 #@! TO.N,Net-(J3-Pad2)*
X182880000Y-99060000D02*
X180340000Y-101600000D01*
X182880000Y-96520000D02*
X182880000Y-99060000D01*
X185420000Y-93980000D02*
X182880000Y-96520000D01*
X187960000Y-93980000D02*
X185420000Y-93980000D01*
X191810000Y-88900000D02*
X191810000Y-90130000D01*
X191810000Y-90130000D02*
X187960000Y-93980000D01*
G04 #@! TD*
D29*
G04 #@! TO.N,GND*
G36*
X211963000Y-88900000D02*
X211972667Y-88948601D01*
X212000197Y-88989803D01*
X212041399Y-89017333D01*
X212090000Y-89027000D01*
X218313000Y-89027000D01*
X218313000Y-128143000D01*
X208407000Y-128143000D01*
X208407000Y-122205750D01*
X210480000Y-122205750D01*
X210480000Y-122896309D01*
X210576673Y-123129698D01*
X210755301Y-123308327D01*
X210988690Y-123405000D01*
X211804250Y-123405000D01*
X211963000Y-123246250D01*
X211963000Y-122047000D01*
X212217000Y-122047000D01*
X212217000Y-123246250D01*
X212375750Y-123405000D01*
X213191310Y-123405000D01*
X213424699Y-123308327D01*
X213603327Y-123129698D01*
X213700000Y-122896309D01*
X213700000Y-122205750D01*
X213541250Y-122047000D01*
X212217000Y-122047000D01*
X211963000Y-122047000D01*
X210638750Y-122047000D01*
X210480000Y-122205750D01*
X208407000Y-122205750D01*
X208407000Y-121920000D01*
X208397333Y-121871399D01*
X208369803Y-121830197D01*
X208328601Y-121802667D01*
X208280000Y-121793000D01*
X200660000Y-121793000D01*
X200611399Y-121802667D01*
X200570197Y-121830197D01*
X200542667Y-121871399D01*
X200533000Y-121920000D01*
X200533000Y-128143000D01*
X157607000Y-128143000D01*
X157607000Y-122205750D01*
X161075000Y-122205750D01*
X161075000Y-123046310D01*
X161171673Y-123279699D01*
X161350302Y-123458327D01*
X161583691Y-123555000D01*
X162274250Y-123555000D01*
X162433000Y-123396250D01*
X162433000Y-122047000D01*
X161233750Y-122047000D01*
X161075000Y-122205750D01*
X157607000Y-122205750D01*
X157607000Y-121920000D01*
X157597333Y-121871399D01*
X157569803Y-121830197D01*
X157528601Y-121802667D01*
X157480000Y-121793000D01*
X151257000Y-121793000D01*
X151257000Y-120793690D01*
X161075000Y-120793690D01*
X161075000Y-121634250D01*
X161233750Y-121793000D01*
X162433000Y-121793000D01*
X162433000Y-120443750D01*
X162274250Y-120285000D01*
X161583691Y-120285000D01*
X161350302Y-120381673D01*
X161171673Y-120560301D01*
X161075000Y-120793690D01*
X151257000Y-120793690D01*
X151257000Y-110960000D01*
X161112560Y-110960000D01*
X161112560Y-112560000D01*
X161161843Y-112807765D01*
X161302191Y-113017809D01*
X161512235Y-113158157D01*
X161760000Y-113207440D01*
X162543730Y-113207440D01*
X164025001Y-114688712D01*
X164025000Y-120675571D01*
X164002344Y-120690709D01*
X163948327Y-120560301D01*
X163769698Y-120381673D01*
X163536309Y-120285000D01*
X162845750Y-120285000D01*
X162687000Y-120443750D01*
X162687000Y-121793000D01*
X162707000Y-121793000D01*
X162707000Y-122047000D01*
X162687000Y-122047000D01*
X162687000Y-123396250D01*
X162845750Y-123555000D01*
X163536309Y-123555000D01*
X163769698Y-123458327D01*
X163948327Y-123279699D01*
X164002344Y-123149291D01*
X164298894Y-123347439D01*
X164303015Y-123368157D01*
X164320546Y-123456291D01*
X164402299Y-123578642D01*
X164494047Y-123715953D01*
X164559592Y-123759749D01*
X168300253Y-127500411D01*
X168344047Y-127565953D01*
X168409589Y-127609747D01*
X168409591Y-127609749D01*
X168484625Y-127659885D01*
X168603708Y-127739454D01*
X168832684Y-127785000D01*
X168832688Y-127785000D01*
X168909999Y-127800378D01*
X168987310Y-127785000D01*
X176452688Y-127785000D01*
X176530000Y-127800378D01*
X176607312Y-127785000D01*
X176607316Y-127785000D01*
X176836292Y-127739454D01*
X177095953Y-127565953D01*
X177139749Y-127500408D01*
X178733082Y-125907075D01*
X178923744Y-125945000D01*
X179216256Y-125945000D01*
X179649418Y-125858839D01*
X180140625Y-125530625D01*
X180468839Y-125039418D01*
X180584092Y-124460000D01*
X180468839Y-123880582D01*
X180140625Y-123389375D01*
X180122381Y-123377184D01*
X180167765Y-123368157D01*
X180377809Y-123227809D01*
X180518157Y-123017765D01*
X180567440Y-122770000D01*
X180567440Y-121070000D01*
X180518157Y-120822235D01*
X180377809Y-120612191D01*
X180167765Y-120471843D01*
X179920000Y-120422560D01*
X178220000Y-120422560D01*
X177972235Y-120471843D01*
X177762191Y-120612191D01*
X177621843Y-120822235D01*
X177612816Y-120867619D01*
X177600625Y-120849375D01*
X177109418Y-120521161D01*
X176676256Y-120435000D01*
X176383744Y-120435000D01*
X175950582Y-120521161D01*
X175459375Y-120849375D01*
X175260000Y-121147761D01*
X175060625Y-120849375D01*
X174569418Y-120521161D01*
X174136256Y-120435000D01*
X173843744Y-120435000D01*
X173410582Y-120521161D01*
X172919375Y-120849375D01*
X172591161Y-121340582D01*
X172475908Y-121920000D01*
X172591161Y-122499418D01*
X172919375Y-122990625D01*
X173219786Y-123191353D01*
X172794817Y-123578642D01*
X172548514Y-124103108D01*
X172669181Y-124333000D01*
X173863000Y-124333000D01*
X173863000Y-124313000D01*
X174117000Y-124313000D01*
X174117000Y-124333000D01*
X174137000Y-124333000D01*
X174137000Y-124587000D01*
X174117000Y-124587000D01*
X174117000Y-125780155D01*
X174346890Y-125901476D01*
X174756924Y-125731645D01*
X175185183Y-125341358D01*
X175246157Y-125211522D01*
X175459375Y-125530625D01*
X175950582Y-125858839D01*
X176383744Y-125945000D01*
X176474843Y-125945000D01*
X176204843Y-126215000D01*
X169235158Y-126215000D01*
X167837050Y-124816892D01*
X172548514Y-124816892D01*
X172794817Y-125341358D01*
X173223076Y-125731645D01*
X173633110Y-125901476D01*
X173863000Y-125780155D01*
X173863000Y-124587000D01*
X172669181Y-124587000D01*
X172548514Y-124816892D01*
X167837050Y-124816892D01*
X166142704Y-123122547D01*
X166458839Y-122649417D01*
X166545000Y-122216255D01*
X166545000Y-121623744D01*
X166458839Y-121190582D01*
X166130625Y-120699375D01*
X166095000Y-120675571D01*
X166095000Y-114361934D01*
X166115276Y-114260000D01*
X166034948Y-113856163D01*
X165863934Y-113600223D01*
X165806193Y-113513807D01*
X165719776Y-113456065D01*
X165131659Y-112867949D01*
X165231861Y-112767747D01*
X165305995Y-113013864D01*
X165843223Y-113206965D01*
X166413454Y-113179778D01*
X166814005Y-113013864D01*
X166888139Y-112767745D01*
X166060000Y-111939605D01*
X166045858Y-111953748D01*
X165866252Y-111774142D01*
X165880395Y-111760000D01*
X166239605Y-111760000D01*
X167067745Y-112588139D01*
X167313864Y-112514005D01*
X167506965Y-111976777D01*
X167479778Y-111406546D01*
X167313864Y-111005995D01*
X167067745Y-110931861D01*
X166239605Y-111760000D01*
X165880395Y-111760000D01*
X165052255Y-110931861D01*
X164806136Y-111005995D01*
X164613035Y-111543223D01*
X164640222Y-112113454D01*
X164806136Y-112514005D01*
X165052253Y-112588139D01*
X164952051Y-112688341D01*
X164007440Y-111743730D01*
X164007440Y-110960000D01*
X163966118Y-110752255D01*
X165231861Y-110752255D01*
X166060000Y-111580395D01*
X166888139Y-110752255D01*
X166814005Y-110506136D01*
X166276777Y-110313035D01*
X165706546Y-110340222D01*
X165305995Y-110506136D01*
X165231861Y-110752255D01*
X163966118Y-110752255D01*
X163958157Y-110712235D01*
X163817809Y-110502191D01*
X163607765Y-110361843D01*
X163595000Y-110359304D01*
X163595000Y-108378710D01*
X171578312Y-100395399D01*
X171672235Y-100458157D01*
X171806106Y-100484785D01*
X171685423Y-100565423D01*
X171368260Y-101040091D01*
X171256887Y-101600000D01*
X171368260Y-102159909D01*
X171685423Y-102634577D01*
X172037758Y-102870000D01*
X171685423Y-103105423D01*
X171368260Y-103580091D01*
X171256887Y-104140000D01*
X171368260Y-104699909D01*
X171685423Y-105174577D01*
X172037758Y-105410000D01*
X171685423Y-105645423D01*
X171368260Y-106120091D01*
X171256887Y-106680000D01*
X171368260Y-107239909D01*
X171685423Y-107714577D01*
X172037758Y-107950000D01*
X171685423Y-108185423D01*
X171368260Y-108660091D01*
X171256887Y-109220000D01*
X171368260Y-109779909D01*
X171685423Y-110254577D01*
X172037758Y-110490000D01*
X171685423Y-110725423D01*
X171368260Y-111200091D01*
X171256887Y-111760000D01*
X171368260Y-112319909D01*
X171685423Y-112794577D01*
X172037758Y-113030000D01*
X171685423Y-113265423D01*
X171368260Y-113740091D01*
X171256887Y-114300000D01*
X171368260Y-114859909D01*
X171685423Y-115334577D01*
X171933481Y-115500324D01*
X171919622Y-115570000D01*
X171980546Y-115876291D01*
X172110251Y-116070408D01*
X172110254Y-116070411D01*
X172154048Y-116135953D01*
X172219590Y-116179747D01*
X175920251Y-119880408D01*
X175964047Y-119945953D01*
X176223708Y-120119454D01*
X176452684Y-120165000D01*
X176452688Y-120165000D01*
X176530000Y-120180378D01*
X176607312Y-120165000D01*
X187882688Y-120165000D01*
X187960000Y-120180378D01*
X188037312Y-120165000D01*
X188037316Y-120165000D01*
X188266292Y-120119454D01*
X188525953Y-119945953D01*
X188569749Y-119880408D01*
X189730411Y-118719747D01*
X189795953Y-118675953D01*
X189839747Y-118610411D01*
X189839749Y-118610409D01*
X189889885Y-118535375D01*
X189969454Y-118416292D01*
X190015000Y-118187316D01*
X190015000Y-118187312D01*
X190030378Y-118110001D01*
X190015000Y-118032690D01*
X190015000Y-115284561D01*
X195415000Y-115284561D01*
X195415000Y-115855439D01*
X195633466Y-116382862D01*
X196037138Y-116786534D01*
X196564561Y-117005000D01*
X197135439Y-117005000D01*
X197662862Y-116786534D01*
X198066534Y-116382862D01*
X198285000Y-115855439D01*
X198285000Y-115284561D01*
X198066534Y-114757138D01*
X197662862Y-114353466D01*
X197135439Y-114135000D01*
X196564561Y-114135000D01*
X196037138Y-114353466D01*
X195633466Y-114757138D01*
X195415000Y-115284561D01*
X190015000Y-115284561D01*
X190015000Y-114377310D01*
X190030378Y-114299999D01*
X190015000Y-114222688D01*
X190015000Y-114222684D01*
X189969454Y-113993708D01*
X189867138Y-113840582D01*
X189839749Y-113799591D01*
X189839747Y-113799589D01*
X189795953Y-113734047D01*
X189730411Y-113690253D01*
X188094554Y-112054396D01*
X188153113Y-111760000D01*
X188096336Y-111474561D01*
X195415000Y-111474561D01*
X195415000Y-112045439D01*
X195633466Y-112572862D01*
X196037138Y-112976534D01*
X196564561Y-113195000D01*
X197135439Y-113195000D01*
X197662862Y-112976534D01*
X198066534Y-112572862D01*
X198285000Y-112045439D01*
X198285000Y-111474561D01*
X198066534Y-110947138D01*
X197662862Y-110543466D01*
X197135439Y-110325000D01*
X196564561Y-110325000D01*
X196037138Y-110543466D01*
X195633466Y-110947138D01*
X195415000Y-111474561D01*
X188096336Y-111474561D01*
X188041740Y-111200091D01*
X187724577Y-110725423D01*
X187249909Y-110408260D01*
X186831333Y-110325000D01*
X186548667Y-110325000D01*
X186130091Y-110408260D01*
X185655423Y-110725423D01*
X185338260Y-111200091D01*
X185226887Y-111760000D01*
X185338260Y-112319909D01*
X185655423Y-112794577D01*
X186130091Y-113111740D01*
X186548667Y-113195000D01*
X186831333Y-113195000D01*
X186984396Y-113164554D01*
X188445001Y-114625159D01*
X188445000Y-117784842D01*
X187634843Y-118595000D01*
X176855157Y-118595000D01*
X173658758Y-115398601D01*
X173754577Y-115334577D01*
X174071740Y-114859909D01*
X174177593Y-114327750D01*
X177190253Y-117340411D01*
X177234047Y-117405953D01*
X177299589Y-117449747D01*
X177299591Y-117449749D01*
X177440718Y-117544047D01*
X177493708Y-117579454D01*
X177722684Y-117625000D01*
X177722688Y-117625000D01*
X177800000Y-117640378D01*
X177877312Y-117625000D01*
X185342688Y-117625000D01*
X185420000Y-117640378D01*
X185497312Y-117625000D01*
X185497316Y-117625000D01*
X185726292Y-117579454D01*
X185985953Y-117405953D01*
X186029749Y-117340408D01*
X186395604Y-116974554D01*
X186548667Y-117005000D01*
X186831333Y-117005000D01*
X187249909Y-116921740D01*
X187724577Y-116604577D01*
X188041740Y-116129909D01*
X188153113Y-115570000D01*
X188041740Y-115010091D01*
X187724577Y-114535423D01*
X187249909Y-114218260D01*
X186831333Y-114135000D01*
X186548667Y-114135000D01*
X186395604Y-114165446D01*
X184935000Y-112704843D01*
X184935000Y-107950000D01*
X185226887Y-107950000D01*
X185338260Y-108509909D01*
X185655423Y-108984577D01*
X186130091Y-109301740D01*
X186548667Y-109385000D01*
X186831333Y-109385000D01*
X187249909Y-109301740D01*
X187724577Y-108984577D01*
X188041740Y-108509909D01*
X188153113Y-107950000D01*
X188096336Y-107664561D01*
X195415000Y-107664561D01*
X195415000Y-108235439D01*
X195633466Y-108762862D01*
X196037138Y-109166534D01*
X196564561Y-109385000D01*
X197135439Y-109385000D01*
X197662862Y-109166534D01*
X198066534Y-108762862D01*
X198187841Y-108470000D01*
X199262560Y-108470000D01*
X199262560Y-109970000D01*
X199311843Y-110217765D01*
X199452191Y-110427809D01*
X199662235Y-110568157D01*
X199910000Y-110617440D01*
X201410000Y-110617440D01*
X201657765Y-110568157D01*
X201867809Y-110427809D01*
X202008157Y-110217765D01*
X202046469Y-110025156D01*
X202415460Y-110394147D01*
X202924506Y-110605000D01*
X203475494Y-110605000D01*
X203984540Y-110394147D01*
X204187170Y-110191517D01*
X204948088Y-110191517D01*
X205016077Y-110432460D01*
X205535171Y-110617201D01*
X206085448Y-110589230D01*
X206463923Y-110432460D01*
X206531912Y-110191517D01*
X205740000Y-109399605D01*
X204948088Y-110191517D01*
X204187170Y-110191517D01*
X204374147Y-110004540D01*
X204463397Y-109789070D01*
X204527540Y-109943923D01*
X204768483Y-110011912D01*
X205560395Y-109220000D01*
X205919605Y-109220000D01*
X206711517Y-110011912D01*
X206952460Y-109943923D01*
X207137201Y-109424829D01*
X207109230Y-108874552D01*
X206952460Y-108496077D01*
X206711517Y-108428088D01*
X205919605Y-109220000D01*
X205560395Y-109220000D01*
X204768483Y-108428088D01*
X204527540Y-108496077D01*
X204468255Y-108662658D01*
X204374147Y-108435460D01*
X204187170Y-108248483D01*
X204948088Y-108248483D01*
X205740000Y-109040395D01*
X206531912Y-108248483D01*
X206463923Y-108007540D01*
X205944829Y-107822799D01*
X205394552Y-107850770D01*
X205016077Y-108007540D01*
X204948088Y-108248483D01*
X204187170Y-108248483D01*
X203984540Y-108045853D01*
X203475494Y-107835000D01*
X202924506Y-107835000D01*
X202415460Y-108045853D01*
X202046469Y-108414844D01*
X202008157Y-108222235D01*
X201867809Y-108012191D01*
X201657765Y-107871843D01*
X201410000Y-107822560D01*
X199910000Y-107822560D01*
X199662235Y-107871843D01*
X199452191Y-108012191D01*
X199311843Y-108222235D01*
X199262560Y-108470000D01*
X198187841Y-108470000D01*
X198285000Y-108235439D01*
X198285000Y-107664561D01*
X198066534Y-107137138D01*
X197662862Y-106733466D01*
X197135439Y-106515000D01*
X196564561Y-106515000D01*
X196037138Y-106733466D01*
X195633466Y-107137138D01*
X195415000Y-107664561D01*
X188096336Y-107664561D01*
X188041740Y-107390091D01*
X187724577Y-106915423D01*
X187249909Y-106598260D01*
X186831333Y-106515000D01*
X186548667Y-106515000D01*
X186130091Y-106598260D01*
X185655423Y-106915423D01*
X185338260Y-107390091D01*
X185226887Y-107950000D01*
X184935000Y-107950000D01*
X184935000Y-107005157D01*
X186395604Y-105544554D01*
X186548667Y-105575000D01*
X186831333Y-105575000D01*
X187249909Y-105491740D01*
X187724577Y-105174577D01*
X188041740Y-104699909D01*
X188153113Y-104140000D01*
X188096336Y-103854561D01*
X195415000Y-103854561D01*
X195415000Y-104425439D01*
X195633466Y-104952862D01*
X196037138Y-105356534D01*
X196564561Y-105575000D01*
X197135439Y-105575000D01*
X197662862Y-105356534D01*
X198066534Y-104952862D01*
X198285000Y-104425439D01*
X198285000Y-103854561D01*
X198066534Y-103327138D01*
X197662862Y-102923466D01*
X197135439Y-102705000D01*
X196564561Y-102705000D01*
X196037138Y-102923466D01*
X195633466Y-103327138D01*
X195415000Y-103854561D01*
X188096336Y-103854561D01*
X188041740Y-103580091D01*
X187724577Y-103105423D01*
X187249909Y-102788260D01*
X186831333Y-102705000D01*
X186548667Y-102705000D01*
X186130091Y-102788260D01*
X185655423Y-103105423D01*
X185338260Y-103580091D01*
X185226887Y-104140000D01*
X185285446Y-104434396D01*
X183649592Y-106070251D01*
X183584047Y-106114047D01*
X183410546Y-106373709D01*
X183365000Y-106602685D01*
X183365000Y-106602688D01*
X183349622Y-106680000D01*
X183365000Y-106757312D01*
X183365001Y-112952683D01*
X183349622Y-113030000D01*
X183410546Y-113336291D01*
X183540251Y-113530408D01*
X183540254Y-113530411D01*
X183584048Y-113595953D01*
X183649590Y-113639747D01*
X185285446Y-115275604D01*
X185226887Y-115570000D01*
X185285446Y-115864396D01*
X185094843Y-116055000D01*
X178125158Y-116055000D01*
X174124554Y-112054397D01*
X174183113Y-111760000D01*
X174071740Y-111200091D01*
X173754577Y-110725423D01*
X173402242Y-110490000D01*
X173754577Y-110254577D01*
X174071740Y-109779909D01*
X174183113Y-109220000D01*
X174071740Y-108660091D01*
X173754577Y-108185423D01*
X173402242Y-107950000D01*
X173754577Y-107714577D01*
X174071740Y-107239909D01*
X174183113Y-106680000D01*
X174071740Y-106120091D01*
X173754577Y-105645423D01*
X173402242Y-105410000D01*
X173754577Y-105174577D01*
X174071740Y-104699909D01*
X174183113Y-104140000D01*
X174071740Y-103580091D01*
X173754577Y-103105423D01*
X173402242Y-102870000D01*
X173754577Y-102634577D01*
X174071740Y-102159909D01*
X174183113Y-101600000D01*
X174071740Y-101040091D01*
X173754577Y-100565423D01*
X173633894Y-100484785D01*
X173767765Y-100458157D01*
X173977809Y-100317809D01*
X174118157Y-100107765D01*
X174167440Y-99860000D01*
X174167440Y-99076271D01*
X174532750Y-98710961D01*
X178948096Y-98710961D01*
X179070085Y-98933000D01*
X180213000Y-98933000D01*
X180213000Y-97789371D01*
X179990959Y-97668086D01*
X179484866Y-97907611D01*
X179108959Y-98322577D01*
X178948096Y-98710961D01*
X174532750Y-98710961D01*
X174729776Y-98513935D01*
X174816193Y-98456193D01*
X175044948Y-98113837D01*
X175105000Y-97811935D01*
X175125276Y-97710001D01*
X175105000Y-97608066D01*
X175105000Y-96257745D01*
X178241861Y-96257745D01*
X178315995Y-96503864D01*
X178853223Y-96696965D01*
X179423454Y-96669778D01*
X179824005Y-96503864D01*
X179898139Y-96257745D01*
X179070000Y-95429605D01*
X178241861Y-96257745D01*
X175105000Y-96257745D01*
X175105000Y-96244396D01*
X175286534Y-96062862D01*
X175505000Y-95535439D01*
X175505000Y-95033223D01*
X177623035Y-95033223D01*
X177650222Y-95603454D01*
X177816136Y-96004005D01*
X178062255Y-96078139D01*
X178890395Y-95250000D01*
X179249605Y-95250000D01*
X180077745Y-96078139D01*
X180323864Y-96004005D01*
X180516965Y-95466777D01*
X180489778Y-94896546D01*
X180323864Y-94495995D01*
X180077745Y-94421861D01*
X179249605Y-95250000D01*
X178890395Y-95250000D01*
X178062255Y-94421861D01*
X177816136Y-94495995D01*
X177623035Y-95033223D01*
X175505000Y-95033223D01*
X175505000Y-94964561D01*
X175286534Y-94437138D01*
X175105000Y-94255604D01*
X175105000Y-94242255D01*
X178241861Y-94242255D01*
X179070000Y-95070395D01*
X179898139Y-94242255D01*
X179824005Y-93996136D01*
X179286777Y-93803035D01*
X178716546Y-93830222D01*
X178315995Y-93996136D01*
X178241861Y-94242255D01*
X175105000Y-94242255D01*
X175105000Y-92447745D01*
X178241861Y-92447745D01*
X178315995Y-92693864D01*
X178853223Y-92886965D01*
X179423454Y-92859778D01*
X179824005Y-92693864D01*
X179898139Y-92447745D01*
X179070000Y-91619605D01*
X178241861Y-92447745D01*
X175105000Y-92447745D01*
X175105000Y-92434396D01*
X175286534Y-92252862D01*
X175505000Y-91725439D01*
X175505000Y-91468710D01*
X175750487Y-91223223D01*
X177623035Y-91223223D01*
X177650222Y-91793454D01*
X177816136Y-92194005D01*
X178062255Y-92268139D01*
X178890395Y-91440000D01*
X179249605Y-91440000D01*
X180077745Y-92268139D01*
X180323864Y-92194005D01*
X180516965Y-91656777D01*
X180489778Y-91086546D01*
X180323864Y-90685995D01*
X180077745Y-90611861D01*
X179249605Y-91440000D01*
X178890395Y-91440000D01*
X178062255Y-90611861D01*
X177816136Y-90685995D01*
X177623035Y-91223223D01*
X175750487Y-91223223D01*
X176541455Y-90432255D01*
X178241861Y-90432255D01*
X179070000Y-91260395D01*
X179898139Y-90432255D01*
X179824005Y-90186136D01*
X179286777Y-89993035D01*
X178716546Y-90020222D01*
X178315995Y-90186136D01*
X178241861Y-90432255D01*
X176541455Y-90432255D01*
X177038711Y-89935000D01*
X181508066Y-89935000D01*
X181610000Y-89955276D01*
X181711934Y-89935000D01*
X181711935Y-89935000D01*
X182013837Y-89874948D01*
X182356193Y-89646193D01*
X182413937Y-89559773D01*
X182714443Y-89259267D01*
X185343680Y-89259267D01*
X185544947Y-89802571D01*
X185938807Y-90227497D01*
X186453110Y-90466476D01*
X186683000Y-90345155D01*
X186683000Y-89027000D01*
X185483835Y-89027000D01*
X185343680Y-89259267D01*
X182714443Y-89259267D01*
X183432977Y-88540733D01*
X185343680Y-88540733D01*
X185483835Y-88773000D01*
X186683000Y-88773000D01*
X186683000Y-87454845D01*
X186453110Y-87333524D01*
X185938807Y-87572503D01*
X185544947Y-87997429D01*
X185343680Y-88540733D01*
X183432977Y-88540733D01*
X185848711Y-86125000D01*
X193275000Y-86125000D01*
X193275001Y-87407055D01*
X193075414Y-87540414D01*
X192923242Y-87768156D01*
X192880625Y-87704375D01*
X192389418Y-87376161D01*
X191810000Y-87260908D01*
X191230583Y-87376161D01*
X190739375Y-87704375D01*
X190560000Y-87972829D01*
X190380625Y-87704375D01*
X189889418Y-87376161D01*
X189310000Y-87260908D01*
X188730583Y-87376161D01*
X188239375Y-87704375D01*
X188056754Y-87977687D01*
X187681193Y-87572503D01*
X187166890Y-87333524D01*
X186937000Y-87454845D01*
X186937000Y-88773000D01*
X186957000Y-88773000D01*
X186957000Y-89027000D01*
X186937000Y-89027000D01*
X186937000Y-90345155D01*
X187166890Y-90466476D01*
X187681193Y-90227497D01*
X188056754Y-89822313D01*
X188239375Y-90095625D01*
X188730582Y-90423839D01*
X189310000Y-90539092D01*
X189889417Y-90423839D01*
X190380625Y-90095625D01*
X190560000Y-89827171D01*
X190737309Y-90092533D01*
X187634843Y-93195000D01*
X185497310Y-93195000D01*
X185419999Y-93179622D01*
X185342688Y-93195000D01*
X185342684Y-93195000D01*
X185113708Y-93240546D01*
X185046746Y-93285289D01*
X184919591Y-93370251D01*
X184919589Y-93370253D01*
X184854047Y-93414047D01*
X184810253Y-93479589D01*
X182379592Y-95910251D01*
X182314047Y-95954047D01*
X182140546Y-96213709D01*
X182095000Y-96442685D01*
X182095000Y-96442688D01*
X182079622Y-96520000D01*
X182095000Y-96597312D01*
X182095001Y-98734841D01*
X181775000Y-99054843D01*
X181775000Y-98932998D01*
X181609916Y-98932998D01*
X181731904Y-98710961D01*
X181571041Y-98322577D01*
X181195134Y-97907611D01*
X180689041Y-97668086D01*
X180467000Y-97789371D01*
X180467000Y-98933000D01*
X180487000Y-98933000D01*
X180487000Y-99187000D01*
X180467000Y-99187000D01*
X180467000Y-99207000D01*
X180213000Y-99207000D01*
X180213000Y-99187000D01*
X179070085Y-99187000D01*
X178948096Y-99409039D01*
X179108959Y-99797423D01*
X179484866Y-100212389D01*
X179689108Y-100309053D01*
X179305423Y-100565423D01*
X178988260Y-101040091D01*
X178876887Y-101600000D01*
X178988260Y-102159909D01*
X179305423Y-102634577D01*
X179657758Y-102870000D01*
X179305423Y-103105423D01*
X178988260Y-103580091D01*
X178876887Y-104140000D01*
X178988260Y-104699909D01*
X179305423Y-105174577D01*
X179657758Y-105410000D01*
X179305423Y-105645423D01*
X178988260Y-106120091D01*
X178876887Y-106680000D01*
X178988260Y-107239909D01*
X179305423Y-107714577D01*
X179657758Y-107950000D01*
X179305423Y-108185423D01*
X178988260Y-108660091D01*
X178876887Y-109220000D01*
X178988260Y-109779909D01*
X179305423Y-110254577D01*
X179657758Y-110490000D01*
X179305423Y-110725423D01*
X178988260Y-111200091D01*
X178876887Y-111760000D01*
X178988260Y-112319909D01*
X179305423Y-112794577D01*
X179657758Y-113030000D01*
X179305423Y-113265423D01*
X178988260Y-113740091D01*
X178876887Y-114300000D01*
X178988260Y-114859909D01*
X179305423Y-115334577D01*
X179780091Y-115651740D01*
X180198667Y-115735000D01*
X180481333Y-115735000D01*
X180899909Y-115651740D01*
X181374577Y-115334577D01*
X181691740Y-114859909D01*
X181803113Y-114300000D01*
X181691740Y-113740091D01*
X181374577Y-113265423D01*
X181022242Y-113030000D01*
X181374577Y-112794577D01*
X181691740Y-112319909D01*
X181803113Y-111760000D01*
X181691740Y-111200091D01*
X181374577Y-110725423D01*
X181022242Y-110490000D01*
X181374577Y-110254577D01*
X181691740Y-109779909D01*
X181803113Y-109220000D01*
X181691740Y-108660091D01*
X181374577Y-108185423D01*
X181022242Y-107950000D01*
X181374577Y-107714577D01*
X181691740Y-107239909D01*
X181803113Y-106680000D01*
X181691740Y-106120091D01*
X181374577Y-105645423D01*
X181022242Y-105410000D01*
X181374577Y-105174577D01*
X181691740Y-104699909D01*
X181803113Y-104140000D01*
X181691740Y-103580091D01*
X181374577Y-103105423D01*
X181022242Y-102870000D01*
X181374577Y-102634577D01*
X181691740Y-102159909D01*
X181803113Y-101600000D01*
X181744554Y-101305604D01*
X182720158Y-100330000D01*
X185226887Y-100330000D01*
X185338260Y-100889909D01*
X185655423Y-101364577D01*
X186130091Y-101681740D01*
X186548667Y-101765000D01*
X186831333Y-101765000D01*
X187249909Y-101681740D01*
X187724577Y-101364577D01*
X188041740Y-100889909D01*
X188153113Y-100330000D01*
X188096336Y-100044561D01*
X195415000Y-100044561D01*
X195415000Y-100615439D01*
X195633466Y-101142862D01*
X196037138Y-101546534D01*
X196564561Y-101765000D01*
X197135439Y-101765000D01*
X197662862Y-101546534D01*
X198066534Y-101142862D01*
X198187841Y-100850000D01*
X199262560Y-100850000D01*
X199262560Y-102350000D01*
X199311843Y-102597765D01*
X199452191Y-102807809D01*
X199662235Y-102948157D01*
X199910000Y-102997440D01*
X201410000Y-102997440D01*
X201657765Y-102948157D01*
X201867809Y-102807809D01*
X202008157Y-102597765D01*
X202046469Y-102405156D01*
X202415460Y-102774147D01*
X202924506Y-102985000D01*
X203475494Y-102985000D01*
X203984540Y-102774147D01*
X204187170Y-102571517D01*
X204948088Y-102571517D01*
X205016077Y-102812460D01*
X205535171Y-102997201D01*
X206085448Y-102969230D01*
X206463923Y-102812460D01*
X206531912Y-102571517D01*
X205740000Y-101779605D01*
X204948088Y-102571517D01*
X204187170Y-102571517D01*
X204374147Y-102384540D01*
X204463397Y-102169070D01*
X204527540Y-102323923D01*
X204768483Y-102391912D01*
X205560395Y-101600000D01*
X205919605Y-101600000D01*
X206711517Y-102391912D01*
X206952460Y-102323923D01*
X207137201Y-101804829D01*
X207109230Y-101254552D01*
X206952460Y-100876077D01*
X206711517Y-100808088D01*
X205919605Y-101600000D01*
X205560395Y-101600000D01*
X204768483Y-100808088D01*
X204527540Y-100876077D01*
X204468255Y-101042658D01*
X204374147Y-100815460D01*
X204187170Y-100628483D01*
X204948088Y-100628483D01*
X205740000Y-101420395D01*
X206531912Y-100628483D01*
X206463923Y-100387540D01*
X205944829Y-100202799D01*
X205394552Y-100230770D01*
X205016077Y-100387540D01*
X204948088Y-100628483D01*
X204187170Y-100628483D01*
X203984540Y-100425853D01*
X203475494Y-100215000D01*
X202924506Y-100215000D01*
X202415460Y-100425853D01*
X202046469Y-100794844D01*
X202008157Y-100602235D01*
X201867809Y-100392191D01*
X201657765Y-100251843D01*
X201410000Y-100202560D01*
X199910000Y-100202560D01*
X199662235Y-100251843D01*
X199452191Y-100392191D01*
X199311843Y-100602235D01*
X199262560Y-100850000D01*
X198187841Y-100850000D01*
X198285000Y-100615439D01*
X198285000Y-100044561D01*
X198066534Y-99517138D01*
X197662862Y-99113466D01*
X197135439Y-98895000D01*
X196564561Y-98895000D01*
X196037138Y-99113466D01*
X195633466Y-99517138D01*
X195415000Y-100044561D01*
X188096336Y-100044561D01*
X188041740Y-99770091D01*
X187724577Y-99295423D01*
X187249909Y-98978260D01*
X186831333Y-98895000D01*
X186548667Y-98895000D01*
X186130091Y-98978260D01*
X185655423Y-99295423D01*
X185338260Y-99770091D01*
X185226887Y-100330000D01*
X182720158Y-100330000D01*
X183380411Y-99669747D01*
X183445953Y-99625953D01*
X183489747Y-99560411D01*
X183489749Y-99560409D01*
X183619453Y-99366293D01*
X183619454Y-99366292D01*
X183665000Y-99137316D01*
X183665000Y-99137312D01*
X183680378Y-99060001D01*
X183665000Y-98982690D01*
X183665000Y-96845157D01*
X183990157Y-96520000D01*
X185226887Y-96520000D01*
X185338260Y-97079909D01*
X185655423Y-97554577D01*
X186130091Y-97871740D01*
X186548667Y-97955000D01*
X186831333Y-97955000D01*
X187249909Y-97871740D01*
X187724577Y-97554577D01*
X188041740Y-97079909D01*
X188153113Y-96520000D01*
X188096336Y-96234561D01*
X195415000Y-96234561D01*
X195415000Y-96805439D01*
X195633466Y-97332862D01*
X196037138Y-97736534D01*
X196564561Y-97955000D01*
X197135439Y-97955000D01*
X197662862Y-97736534D01*
X198066534Y-97332862D01*
X198285000Y-96805439D01*
X198285000Y-96234561D01*
X198066534Y-95707138D01*
X197662862Y-95303466D01*
X197135439Y-95085000D01*
X196564561Y-95085000D01*
X196037138Y-95303466D01*
X195633466Y-95707138D01*
X195415000Y-96234561D01*
X188096336Y-96234561D01*
X188041740Y-95960091D01*
X187724577Y-95485423D01*
X187249909Y-95168260D01*
X186831333Y-95085000D01*
X186548667Y-95085000D01*
X186130091Y-95168260D01*
X185655423Y-95485423D01*
X185338260Y-95960091D01*
X185226887Y-96520000D01*
X183990157Y-96520000D01*
X185745158Y-94765000D01*
X187882688Y-94765000D01*
X187960000Y-94780378D01*
X188037312Y-94765000D01*
X188037316Y-94765000D01*
X188266292Y-94719454D01*
X188525953Y-94545953D01*
X188569749Y-94480408D01*
X189820157Y-93230000D01*
X199262560Y-93230000D01*
X199262560Y-94730000D01*
X199311843Y-94977765D01*
X199452191Y-95187809D01*
X199662235Y-95328157D01*
X199910000Y-95377440D01*
X201410000Y-95377440D01*
X201657765Y-95328157D01*
X201867809Y-95187809D01*
X202008157Y-94977765D01*
X202046469Y-94785156D01*
X202415460Y-95154147D01*
X202924506Y-95365000D01*
X203475494Y-95365000D01*
X203984540Y-95154147D01*
X204187170Y-94951517D01*
X204948088Y-94951517D01*
X205016077Y-95192460D01*
X205535171Y-95377201D01*
X206085448Y-95349230D01*
X206463923Y-95192460D01*
X206531912Y-94951517D01*
X205740000Y-94159605D01*
X204948088Y-94951517D01*
X204187170Y-94951517D01*
X204374147Y-94764540D01*
X204463397Y-94549070D01*
X204527540Y-94703923D01*
X204768483Y-94771912D01*
X205560395Y-93980000D01*
X205919605Y-93980000D01*
X206711517Y-94771912D01*
X206952460Y-94703923D01*
X207137201Y-94184829D01*
X207109230Y-93634552D01*
X206952460Y-93256077D01*
X206711517Y-93188088D01*
X205919605Y-93980000D01*
X205560395Y-93980000D01*
X204768483Y-93188088D01*
X204527540Y-93256077D01*
X204468255Y-93422658D01*
X204374147Y-93195460D01*
X204187170Y-93008483D01*
X204948088Y-93008483D01*
X205740000Y-93800395D01*
X206531912Y-93008483D01*
X206463923Y-92767540D01*
X205944829Y-92582799D01*
X205394552Y-92610770D01*
X205016077Y-92767540D01*
X204948088Y-93008483D01*
X204187170Y-93008483D01*
X203984540Y-92805853D01*
X203475494Y-92595000D01*
X202924506Y-92595000D01*
X202415460Y-92805853D01*
X202046469Y-93174844D01*
X202008157Y-92982235D01*
X201867809Y-92772191D01*
X201657765Y-92631843D01*
X201410000Y-92582560D01*
X199910000Y-92582560D01*
X199662235Y-92631843D01*
X199452191Y-92772191D01*
X199311843Y-92982235D01*
X199262560Y-93230000D01*
X189820157Y-93230000D01*
X192310411Y-90739747D01*
X192375953Y-90695953D01*
X192419747Y-90630411D01*
X192419749Y-90630409D01*
X192491891Y-90522440D01*
X192549454Y-90436292D01*
X192576841Y-90298606D01*
X192880625Y-90095625D01*
X192923242Y-90031844D01*
X193075414Y-90259586D01*
X193366565Y-90454126D01*
X193710000Y-90522440D01*
X194910000Y-90522440D01*
X195253435Y-90454126D01*
X195544586Y-90259586D01*
X195739126Y-89968435D01*
X195807440Y-89625000D01*
X195807440Y-88175000D01*
X195739126Y-87831565D01*
X195544586Y-87540414D01*
X195345000Y-87407056D01*
X195345000Y-86125000D01*
X202771290Y-86125000D01*
X207245000Y-90598711D01*
X207245001Y-109118061D01*
X207224724Y-109220000D01*
X207305052Y-109623836D01*
X207305053Y-109623837D01*
X207533808Y-109966193D01*
X207620225Y-110023935D01*
X210176065Y-112579776D01*
X210233807Y-112666193D01*
X210531343Y-112865000D01*
X210576163Y-112894948D01*
X210869422Y-112953281D01*
X210894375Y-112990625D01*
X211162829Y-113170000D01*
X210894375Y-113349375D01*
X210566161Y-113840582D01*
X210450908Y-114420000D01*
X210566161Y-114999418D01*
X210894375Y-115490625D01*
X211162829Y-115670000D01*
X210894375Y-115849375D01*
X210566161Y-116340582D01*
X210450908Y-116920000D01*
X210566161Y-117499418D01*
X210894375Y-117990625D01*
X211162829Y-118170000D01*
X210894375Y-118349375D01*
X210566161Y-118840582D01*
X210450908Y-119420000D01*
X210566161Y-119999418D01*
X210885709Y-120477656D01*
X210755301Y-120531673D01*
X210576673Y-120710302D01*
X210480000Y-120943691D01*
X210480000Y-121634250D01*
X210638750Y-121793000D01*
X211963000Y-121793000D01*
X211963000Y-121773000D01*
X212217000Y-121773000D01*
X212217000Y-121793000D01*
X213541250Y-121793000D01*
X213700000Y-121634250D01*
X213700000Y-120943691D01*
X213603327Y-120710302D01*
X213424699Y-120531673D01*
X213294291Y-120477656D01*
X213613839Y-119999418D01*
X213729092Y-119420000D01*
X213613839Y-118840582D01*
X213285625Y-118349375D01*
X213017171Y-118170000D01*
X213285625Y-117990625D01*
X213613839Y-117499418D01*
X213729092Y-116920000D01*
X213613839Y-116340582D01*
X213285625Y-115849375D01*
X213017171Y-115670000D01*
X213285625Y-115490625D01*
X213613839Y-114999418D01*
X213729092Y-114420000D01*
X213613839Y-113840582D01*
X213285625Y-113349375D01*
X213017171Y-113170000D01*
X213285625Y-112990625D01*
X213613839Y-112499418D01*
X213729092Y-111920000D01*
X213613839Y-111340582D01*
X213285625Y-110849375D01*
X212794418Y-110521161D01*
X212361256Y-110435000D01*
X211818744Y-110435000D01*
X211385582Y-110521161D01*
X211181341Y-110657630D01*
X209315000Y-108791290D01*
X209315000Y-103155750D01*
X210480000Y-103155750D01*
X210480000Y-103846309D01*
X210576673Y-104079698D01*
X210755301Y-104258327D01*
X210988690Y-104355000D01*
X211804250Y-104355000D01*
X211963000Y-104196250D01*
X211963000Y-102997000D01*
X212217000Y-102997000D01*
X212217000Y-104196250D01*
X212375750Y-104355000D01*
X213191310Y-104355000D01*
X213424699Y-104258327D01*
X213603327Y-104079698D01*
X213700000Y-103846309D01*
X213700000Y-103155750D01*
X213541250Y-102997000D01*
X212217000Y-102997000D01*
X211963000Y-102997000D01*
X210638750Y-102997000D01*
X210480000Y-103155750D01*
X209315000Y-103155750D01*
X209315000Y-92870000D01*
X210450908Y-92870000D01*
X210566161Y-93449418D01*
X210894375Y-93940625D01*
X211162829Y-94120000D01*
X210894375Y-94299375D01*
X210566161Y-94790582D01*
X210450908Y-95370000D01*
X210566161Y-95949418D01*
X210894375Y-96440625D01*
X211162829Y-96620000D01*
X210894375Y-96799375D01*
X210566161Y-97290582D01*
X210450908Y-97870000D01*
X210566161Y-98449418D01*
X210894375Y-98940625D01*
X211162829Y-99120000D01*
X210894375Y-99299375D01*
X210566161Y-99790582D01*
X210450908Y-100370000D01*
X210566161Y-100949418D01*
X210885709Y-101427656D01*
X210755301Y-101481673D01*
X210576673Y-101660302D01*
X210480000Y-101893691D01*
X210480000Y-102584250D01*
X210638750Y-102743000D01*
X211963000Y-102743000D01*
X211963000Y-102723000D01*
X212217000Y-102723000D01*
X212217000Y-102743000D01*
X213541250Y-102743000D01*
X213700000Y-102584250D01*
X213700000Y-101893691D01*
X213603327Y-101660302D01*
X213424699Y-101481673D01*
X213294291Y-101427656D01*
X213613839Y-100949418D01*
X213729092Y-100370000D01*
X213613839Y-99790582D01*
X213285625Y-99299375D01*
X213017171Y-99120000D01*
X213285625Y-98940625D01*
X213613839Y-98449418D01*
X213729092Y-97870000D01*
X213613839Y-97290582D01*
X213285625Y-96799375D01*
X213017171Y-96620000D01*
X213285625Y-96440625D01*
X213613839Y-95949418D01*
X213729092Y-95370000D01*
X213613839Y-94790582D01*
X213285625Y-94299375D01*
X213017171Y-94120000D01*
X213285625Y-93940625D01*
X213613839Y-93449418D01*
X213729092Y-92870000D01*
X213613839Y-92290582D01*
X213285625Y-91799375D01*
X212794418Y-91471161D01*
X212361256Y-91385000D01*
X211818744Y-91385000D01*
X211385582Y-91471161D01*
X210894375Y-91799375D01*
X210566161Y-92290582D01*
X210450908Y-92870000D01*
X209315000Y-92870000D01*
X209315000Y-90271934D01*
X209335276Y-90170000D01*
X209295376Y-89969406D01*
X209254948Y-89766163D01*
X209026193Y-89423807D01*
X208939776Y-89366065D01*
X204003937Y-84430227D01*
X203946193Y-84343807D01*
X203603837Y-84115052D01*
X203301935Y-84055000D01*
X203301934Y-84055000D01*
X203200000Y-84034724D01*
X203098066Y-84055000D01*
X194411934Y-84055000D01*
X194310000Y-84034724D01*
X194208065Y-84055000D01*
X185521934Y-84055000D01*
X185420000Y-84034724D01*
X185318065Y-84055000D01*
X185016163Y-84115052D01*
X184673807Y-84343807D01*
X184616065Y-84430224D01*
X181181290Y-87865000D01*
X176711929Y-87865000D01*
X176609999Y-87844725D01*
X176508070Y-87865000D01*
X176508065Y-87865000D01*
X176206163Y-87925052D01*
X175863807Y-88153807D01*
X175806065Y-88240224D01*
X174041290Y-90005000D01*
X173784561Y-90005000D01*
X173257138Y-90223466D01*
X173075604Y-90405000D01*
X168889442Y-90405000D01*
X168784523Y-90247977D01*
X168259410Y-89897109D01*
X167640000Y-89773900D01*
X167020589Y-89897109D01*
X166495477Y-90247977D01*
X166360841Y-90449474D01*
X165966924Y-90064027D01*
X165472980Y-89849437D01*
X165227000Y-89969406D01*
X165227000Y-91313000D01*
X165247000Y-91313000D01*
X165247000Y-91567000D01*
X165227000Y-91567000D01*
X165227000Y-92910594D01*
X165472980Y-93030563D01*
X165966924Y-92815973D01*
X166360841Y-92430526D01*
X166495477Y-92632023D01*
X167020590Y-92982891D01*
X167640000Y-93106100D01*
X168259411Y-92982891D01*
X168784523Y-92632023D01*
X168889442Y-92475000D01*
X173035000Y-92475000D01*
X173035001Y-94255603D01*
X172853466Y-94437138D01*
X172635000Y-94964561D01*
X172635000Y-95535439D01*
X172853466Y-96062862D01*
X173035000Y-96244396D01*
X173035001Y-97281288D01*
X172703729Y-97612560D01*
X171920000Y-97612560D01*
X171672235Y-97661843D01*
X171462191Y-97802191D01*
X171321843Y-98012235D01*
X171318119Y-98030957D01*
X171046163Y-98085052D01*
X170703807Y-98313807D01*
X170646065Y-98400224D01*
X161900225Y-107146065D01*
X161813808Y-107203807D01*
X161756066Y-107290224D01*
X161585052Y-107546164D01*
X161504724Y-107950000D01*
X161525001Y-108051939D01*
X161525000Y-110359304D01*
X161512235Y-110361843D01*
X161302191Y-110502191D01*
X161161843Y-110712235D01*
X161112560Y-110960000D01*
X151257000Y-110960000D01*
X151257000Y-108266890D01*
X154618524Y-108266890D01*
X154620447Y-108279260D01*
X154871336Y-108802045D01*
X155303188Y-109189024D01*
X155850258Y-109381284D01*
X156083000Y-109237231D01*
X156083000Y-108037000D01*
X156337000Y-108037000D01*
X156337000Y-109237231D01*
X156569742Y-109381284D01*
X157116812Y-109189024D01*
X157548664Y-108802045D01*
X157799553Y-108279260D01*
X157801476Y-108266890D01*
X157680155Y-108037000D01*
X156337000Y-108037000D01*
X156083000Y-108037000D01*
X154739845Y-108037000D01*
X154618524Y-108266890D01*
X151257000Y-108266890D01*
X151257000Y-104810000D01*
X154562560Y-104810000D01*
X154562560Y-106010000D01*
X154630874Y-106353435D01*
X154825414Y-106644586D01*
X155090407Y-106821648D01*
X154871336Y-107017955D01*
X154620447Y-107540740D01*
X154618524Y-107553110D01*
X154739845Y-107783000D01*
X156083000Y-107783000D01*
X156083000Y-107763000D01*
X156337000Y-107763000D01*
X156337000Y-107783000D01*
X157680155Y-107783000D01*
X157801476Y-107553110D01*
X157799553Y-107540740D01*
X157548664Y-107017955D01*
X157329593Y-106821648D01*
X157594586Y-106644586D01*
X157789126Y-106353435D01*
X157857440Y-106010000D01*
X157857440Y-104810000D01*
X157789126Y-104466565D01*
X157594586Y-104175414D01*
X157303435Y-103980874D01*
X156960000Y-103912560D01*
X155460000Y-103912560D01*
X155116565Y-103980874D01*
X154825414Y-104175414D01*
X154630874Y-104466565D01*
X154562560Y-104810000D01*
X151257000Y-104810000D01*
X151257000Y-99530000D01*
X161112560Y-99530000D01*
X161112560Y-101130000D01*
X161161843Y-101377765D01*
X161302191Y-101587809D01*
X161512235Y-101728157D01*
X161760000Y-101777440D01*
X163360000Y-101777440D01*
X163607765Y-101728157D01*
X163817809Y-101587809D01*
X163958157Y-101377765D01*
X163966117Y-101337745D01*
X165231861Y-101337745D01*
X165305995Y-101583864D01*
X165843223Y-101776965D01*
X166413454Y-101749778D01*
X166814005Y-101583864D01*
X166888139Y-101337745D01*
X166060000Y-100509605D01*
X165231861Y-101337745D01*
X163966117Y-101337745D01*
X164007440Y-101130000D01*
X164007440Y-100113223D01*
X164613035Y-100113223D01*
X164640222Y-100683454D01*
X164806136Y-101084005D01*
X165052255Y-101158139D01*
X165880395Y-100330000D01*
X166239605Y-100330000D01*
X167067745Y-101158139D01*
X167313864Y-101084005D01*
X167506965Y-100546777D01*
X167479778Y-99976546D01*
X167313864Y-99575995D01*
X167067745Y-99501861D01*
X166239605Y-100330000D01*
X165880395Y-100330000D01*
X165052255Y-99501861D01*
X164806136Y-99575995D01*
X164613035Y-100113223D01*
X164007440Y-100113223D01*
X164007440Y-99530000D01*
X163966118Y-99322255D01*
X165231861Y-99322255D01*
X166060000Y-100150395D01*
X166888139Y-99322255D01*
X166814005Y-99076136D01*
X166276777Y-98883035D01*
X165706546Y-98910222D01*
X165305995Y-99076136D01*
X165231861Y-99322255D01*
X163966118Y-99322255D01*
X163958157Y-99282235D01*
X163817809Y-99072191D01*
X163607765Y-98931843D01*
X163360000Y-98882560D01*
X161760000Y-98882560D01*
X161512235Y-98931843D01*
X161302191Y-99072191D01*
X161161843Y-99282235D01*
X161112560Y-99530000D01*
X151257000Y-99530000D01*
X151257000Y-90440000D01*
X160960060Y-90440000D01*
X160960060Y-92440000D01*
X161009343Y-92687765D01*
X161149691Y-92897809D01*
X161359735Y-93038157D01*
X161607500Y-93087440D01*
X163512500Y-93087440D01*
X163760265Y-93038157D01*
X163970309Y-92897809D01*
X164107255Y-92692857D01*
X164233076Y-92815973D01*
X164727020Y-93030563D01*
X164973000Y-92910594D01*
X164973000Y-91567000D01*
X164953000Y-91567000D01*
X164953000Y-91313000D01*
X164973000Y-91313000D01*
X164973000Y-89969406D01*
X164727020Y-89849437D01*
X164233076Y-90064027D01*
X164107255Y-90187143D01*
X163970309Y-89982191D01*
X163760265Y-89841843D01*
X163512500Y-89792560D01*
X161607500Y-89792560D01*
X161359735Y-89841843D01*
X161149691Y-89982191D01*
X161009343Y-90192235D01*
X160960060Y-90440000D01*
X151257000Y-90440000D01*
X151257000Y-89027000D01*
X157480000Y-89027000D01*
X157528601Y-89017333D01*
X157569803Y-88989803D01*
X157597333Y-88948601D01*
X157607000Y-88900000D01*
X157607000Y-82677000D01*
X211963000Y-82677000D01*
X211963000Y-88900000D01*
X211963000Y-88900000D01*
G37*
X211963000Y-88900000D02*
X211972667Y-88948601D01*
X212000197Y-88989803D01*
X212041399Y-89017333D01*
X212090000Y-89027000D01*
X218313000Y-89027000D01*
X218313000Y-128143000D01*
X208407000Y-128143000D01*
X208407000Y-122205750D01*
X210480000Y-122205750D01*
X210480000Y-122896309D01*
X210576673Y-123129698D01*
X210755301Y-123308327D01*
X210988690Y-123405000D01*
X211804250Y-123405000D01*
X211963000Y-123246250D01*
X211963000Y-122047000D01*
X212217000Y-122047000D01*
X212217000Y-123246250D01*
X212375750Y-123405000D01*
X213191310Y-123405000D01*
X213424699Y-123308327D01*
X213603327Y-123129698D01*
X213700000Y-122896309D01*
X213700000Y-122205750D01*
X213541250Y-122047000D01*
X212217000Y-122047000D01*
X211963000Y-122047000D01*
X210638750Y-122047000D01*
X210480000Y-122205750D01*
X208407000Y-122205750D01*
X208407000Y-121920000D01*
X208397333Y-121871399D01*
X208369803Y-121830197D01*
X208328601Y-121802667D01*
X208280000Y-121793000D01*
X200660000Y-121793000D01*
X200611399Y-121802667D01*
X200570197Y-121830197D01*
X200542667Y-121871399D01*
X200533000Y-121920000D01*
X200533000Y-128143000D01*
X157607000Y-128143000D01*
X157607000Y-122205750D01*
X161075000Y-122205750D01*
X161075000Y-123046310D01*
X161171673Y-123279699D01*
X161350302Y-123458327D01*
X161583691Y-123555000D01*
X162274250Y-123555000D01*
X162433000Y-123396250D01*
X162433000Y-122047000D01*
X161233750Y-122047000D01*
X161075000Y-122205750D01*
X157607000Y-122205750D01*
X157607000Y-121920000D01*
X157597333Y-121871399D01*
X157569803Y-121830197D01*
X157528601Y-121802667D01*
X157480000Y-121793000D01*
X151257000Y-121793000D01*
X151257000Y-120793690D01*
X161075000Y-120793690D01*
X161075000Y-121634250D01*
X161233750Y-121793000D01*
X162433000Y-121793000D01*
X162433000Y-120443750D01*
X162274250Y-120285000D01*
X161583691Y-120285000D01*
X161350302Y-120381673D01*
X161171673Y-120560301D01*
X161075000Y-120793690D01*
X151257000Y-120793690D01*
X151257000Y-110960000D01*
X161112560Y-110960000D01*
X161112560Y-112560000D01*
X161161843Y-112807765D01*
X161302191Y-113017809D01*
X161512235Y-113158157D01*
X161760000Y-113207440D01*
X162543730Y-113207440D01*
X164025001Y-114688712D01*
X164025000Y-120675571D01*
X164002344Y-120690709D01*
X163948327Y-120560301D01*
X163769698Y-120381673D01*
X163536309Y-120285000D01*
X162845750Y-120285000D01*
X162687000Y-120443750D01*
X162687000Y-121793000D01*
X162707000Y-121793000D01*
X162707000Y-122047000D01*
X162687000Y-122047000D01*
X162687000Y-123396250D01*
X162845750Y-123555000D01*
X163536309Y-123555000D01*
X163769698Y-123458327D01*
X163948327Y-123279699D01*
X164002344Y-123149291D01*
X164298894Y-123347439D01*
X164303015Y-123368157D01*
X164320546Y-123456291D01*
X164402299Y-123578642D01*
X164494047Y-123715953D01*
X164559592Y-123759749D01*
X168300253Y-127500411D01*
X168344047Y-127565953D01*
X168409589Y-127609747D01*
X168409591Y-127609749D01*
X168484625Y-127659885D01*
X168603708Y-127739454D01*
X168832684Y-127785000D01*
X168832688Y-127785000D01*
X168909999Y-127800378D01*
X168987310Y-127785000D01*
X176452688Y-127785000D01*
X176530000Y-127800378D01*
X176607312Y-127785000D01*
X176607316Y-127785000D01*
X176836292Y-127739454D01*
X177095953Y-127565953D01*
X177139749Y-127500408D01*
X178733082Y-125907075D01*
X178923744Y-125945000D01*
X179216256Y-125945000D01*
X179649418Y-125858839D01*
X180140625Y-125530625D01*
X180468839Y-125039418D01*
X180584092Y-124460000D01*
X180468839Y-123880582D01*
X180140625Y-123389375D01*
X180122381Y-123377184D01*
X180167765Y-123368157D01*
X180377809Y-123227809D01*
X180518157Y-123017765D01*
X180567440Y-122770000D01*
X180567440Y-121070000D01*
X180518157Y-120822235D01*
X180377809Y-120612191D01*
X180167765Y-120471843D01*
X179920000Y-120422560D01*
X178220000Y-120422560D01*
X177972235Y-120471843D01*
X177762191Y-120612191D01*
X177621843Y-120822235D01*
X177612816Y-120867619D01*
X177600625Y-120849375D01*
X177109418Y-120521161D01*
X176676256Y-120435000D01*
X176383744Y-120435000D01*
X175950582Y-120521161D01*
X175459375Y-120849375D01*
X175260000Y-121147761D01*
X175060625Y-120849375D01*
X174569418Y-120521161D01*
X174136256Y-120435000D01*
X173843744Y-120435000D01*
X173410582Y-120521161D01*
X172919375Y-120849375D01*
X172591161Y-121340582D01*
X172475908Y-121920000D01*
X172591161Y-122499418D01*
X172919375Y-122990625D01*
X173219786Y-123191353D01*
X172794817Y-123578642D01*
X172548514Y-124103108D01*
X172669181Y-124333000D01*
X173863000Y-124333000D01*
X173863000Y-124313000D01*
X174117000Y-124313000D01*
X174117000Y-124333000D01*
X174137000Y-124333000D01*
X174137000Y-124587000D01*
X174117000Y-124587000D01*
X174117000Y-125780155D01*
X174346890Y-125901476D01*
X174756924Y-125731645D01*
X175185183Y-125341358D01*
X175246157Y-125211522D01*
X175459375Y-125530625D01*
X175950582Y-125858839D01*
X176383744Y-125945000D01*
X176474843Y-125945000D01*
X176204843Y-126215000D01*
X169235158Y-126215000D01*
X167837050Y-124816892D01*
X172548514Y-124816892D01*
X172794817Y-125341358D01*
X173223076Y-125731645D01*
X173633110Y-125901476D01*
X173863000Y-125780155D01*
X173863000Y-124587000D01*
X172669181Y-124587000D01*
X172548514Y-124816892D01*
X167837050Y-124816892D01*
X166142704Y-123122547D01*
X166458839Y-122649417D01*
X166545000Y-122216255D01*
X166545000Y-121623744D01*
X166458839Y-121190582D01*
X166130625Y-120699375D01*
X166095000Y-120675571D01*
X166095000Y-114361934D01*
X166115276Y-114260000D01*
X166034948Y-113856163D01*
X165863934Y-113600223D01*
X165806193Y-113513807D01*
X165719776Y-113456065D01*
X165131659Y-112867949D01*
X165231861Y-112767747D01*
X165305995Y-113013864D01*
X165843223Y-113206965D01*
X166413454Y-113179778D01*
X166814005Y-113013864D01*
X166888139Y-112767745D01*
X166060000Y-111939605D01*
X166045858Y-111953748D01*
X165866252Y-111774142D01*
X165880395Y-111760000D01*
X166239605Y-111760000D01*
X167067745Y-112588139D01*
X167313864Y-112514005D01*
X167506965Y-111976777D01*
X167479778Y-111406546D01*
X167313864Y-111005995D01*
X167067745Y-110931861D01*
X166239605Y-111760000D01*
X165880395Y-111760000D01*
X165052255Y-110931861D01*
X164806136Y-111005995D01*
X164613035Y-111543223D01*
X164640222Y-112113454D01*
X164806136Y-112514005D01*
X165052253Y-112588139D01*
X164952051Y-112688341D01*
X164007440Y-111743730D01*
X164007440Y-110960000D01*
X163966118Y-110752255D01*
X165231861Y-110752255D01*
X166060000Y-111580395D01*
X166888139Y-110752255D01*
X166814005Y-110506136D01*
X166276777Y-110313035D01*
X165706546Y-110340222D01*
X165305995Y-110506136D01*
X165231861Y-110752255D01*
X163966118Y-110752255D01*
X163958157Y-110712235D01*
X163817809Y-110502191D01*
X163607765Y-110361843D01*
X163595000Y-110359304D01*
X163595000Y-108378710D01*
X171578312Y-100395399D01*
X171672235Y-100458157D01*
X171806106Y-100484785D01*
X171685423Y-100565423D01*
X171368260Y-101040091D01*
X171256887Y-101600000D01*
X171368260Y-102159909D01*
X171685423Y-102634577D01*
X172037758Y-102870000D01*
X171685423Y-103105423D01*
X171368260Y-103580091D01*
X171256887Y-104140000D01*
X171368260Y-104699909D01*
X171685423Y-105174577D01*
X172037758Y-105410000D01*
X171685423Y-105645423D01*
X171368260Y-106120091D01*
X171256887Y-106680000D01*
X171368260Y-107239909D01*
X171685423Y-107714577D01*
X172037758Y-107950000D01*
X171685423Y-108185423D01*
X171368260Y-108660091D01*
X171256887Y-109220000D01*
X171368260Y-109779909D01*
X171685423Y-110254577D01*
X172037758Y-110490000D01*
X171685423Y-110725423D01*
X171368260Y-111200091D01*
X171256887Y-111760000D01*
X171368260Y-112319909D01*
X171685423Y-112794577D01*
X172037758Y-113030000D01*
X171685423Y-113265423D01*
X171368260Y-113740091D01*
X171256887Y-114300000D01*
X171368260Y-114859909D01*
X171685423Y-115334577D01*
X171933481Y-115500324D01*
X171919622Y-115570000D01*
X171980546Y-115876291D01*
X172110251Y-116070408D01*
X172110254Y-116070411D01*
X172154048Y-116135953D01*
X172219590Y-116179747D01*
X175920251Y-119880408D01*
X175964047Y-119945953D01*
X176223708Y-120119454D01*
X176452684Y-120165000D01*
X176452688Y-120165000D01*
X176530000Y-120180378D01*
X176607312Y-120165000D01*
X187882688Y-120165000D01*
X187960000Y-120180378D01*
X188037312Y-120165000D01*
X188037316Y-120165000D01*
X188266292Y-120119454D01*
X188525953Y-119945953D01*
X188569749Y-119880408D01*
X189730411Y-118719747D01*
X189795953Y-118675953D01*
X189839747Y-118610411D01*
X189839749Y-118610409D01*
X189889885Y-118535375D01*
X189969454Y-118416292D01*
X190015000Y-118187316D01*
X190015000Y-118187312D01*
X190030378Y-118110001D01*
X190015000Y-118032690D01*
X190015000Y-115284561D01*
X195415000Y-115284561D01*
X195415000Y-115855439D01*
X195633466Y-116382862D01*
X196037138Y-116786534D01*
X196564561Y-117005000D01*
X197135439Y-117005000D01*
X197662862Y-116786534D01*
X198066534Y-116382862D01*
X198285000Y-115855439D01*
X198285000Y-115284561D01*
X198066534Y-114757138D01*
X197662862Y-114353466D01*
X197135439Y-114135000D01*
X196564561Y-114135000D01*
X196037138Y-114353466D01*
X195633466Y-114757138D01*
X195415000Y-115284561D01*
X190015000Y-115284561D01*
X190015000Y-114377310D01*
X190030378Y-114299999D01*
X190015000Y-114222688D01*
X190015000Y-114222684D01*
X189969454Y-113993708D01*
X189867138Y-113840582D01*
X189839749Y-113799591D01*
X189839747Y-113799589D01*
X189795953Y-113734047D01*
X189730411Y-113690253D01*
X188094554Y-112054396D01*
X188153113Y-111760000D01*
X188096336Y-111474561D01*
X195415000Y-111474561D01*
X195415000Y-112045439D01*
X195633466Y-112572862D01*
X196037138Y-112976534D01*
X196564561Y-113195000D01*
X197135439Y-113195000D01*
X197662862Y-112976534D01*
X198066534Y-112572862D01*
X198285000Y-112045439D01*
X198285000Y-111474561D01*
X198066534Y-110947138D01*
X197662862Y-110543466D01*
X197135439Y-110325000D01*
X196564561Y-110325000D01*
X196037138Y-110543466D01*
X195633466Y-110947138D01*
X195415000Y-111474561D01*
X188096336Y-111474561D01*
X188041740Y-111200091D01*
X187724577Y-110725423D01*
X187249909Y-110408260D01*
X186831333Y-110325000D01*
X186548667Y-110325000D01*
X186130091Y-110408260D01*
X185655423Y-110725423D01*
X185338260Y-111200091D01*
X185226887Y-111760000D01*
X185338260Y-112319909D01*
X185655423Y-112794577D01*
X186130091Y-113111740D01*
X186548667Y-113195000D01*
X186831333Y-113195000D01*
X186984396Y-113164554D01*
X188445001Y-114625159D01*
X188445000Y-117784842D01*
X187634843Y-118595000D01*
X176855157Y-118595000D01*
X173658758Y-115398601D01*
X173754577Y-115334577D01*
X174071740Y-114859909D01*
X174177593Y-114327750D01*
X177190253Y-117340411D01*
X177234047Y-117405953D01*
X177299589Y-117449747D01*
X177299591Y-117449749D01*
X177440718Y-117544047D01*
X177493708Y-117579454D01*
X177722684Y-117625000D01*
X177722688Y-117625000D01*
X177800000Y-117640378D01*
X177877312Y-117625000D01*
X185342688Y-117625000D01*
X185420000Y-117640378D01*
X185497312Y-117625000D01*
X185497316Y-117625000D01*
X185726292Y-117579454D01*
X185985953Y-117405953D01*
X186029749Y-117340408D01*
X186395604Y-116974554D01*
X186548667Y-117005000D01*
X186831333Y-117005000D01*
X187249909Y-116921740D01*
X187724577Y-116604577D01*
X188041740Y-116129909D01*
X188153113Y-115570000D01*
X188041740Y-115010091D01*
X187724577Y-114535423D01*
X187249909Y-114218260D01*
X186831333Y-114135000D01*
X186548667Y-114135000D01*
X186395604Y-114165446D01*
X184935000Y-112704843D01*
X184935000Y-107950000D01*
X185226887Y-107950000D01*
X185338260Y-108509909D01*
X185655423Y-108984577D01*
X186130091Y-109301740D01*
X186548667Y-109385000D01*
X186831333Y-109385000D01*
X187249909Y-109301740D01*
X187724577Y-108984577D01*
X188041740Y-108509909D01*
X188153113Y-107950000D01*
X188096336Y-107664561D01*
X195415000Y-107664561D01*
X195415000Y-108235439D01*
X195633466Y-108762862D01*
X196037138Y-109166534D01*
X196564561Y-109385000D01*
X197135439Y-109385000D01*
X197662862Y-109166534D01*
X198066534Y-108762862D01*
X198187841Y-108470000D01*
X199262560Y-108470000D01*
X199262560Y-109970000D01*
X199311843Y-110217765D01*
X199452191Y-110427809D01*
X199662235Y-110568157D01*
X199910000Y-110617440D01*
X201410000Y-110617440D01*
X201657765Y-110568157D01*
X201867809Y-110427809D01*
X202008157Y-110217765D01*
X202046469Y-110025156D01*
X202415460Y-110394147D01*
X202924506Y-110605000D01*
X203475494Y-110605000D01*
X203984540Y-110394147D01*
X204187170Y-110191517D01*
X204948088Y-110191517D01*
X205016077Y-110432460D01*
X205535171Y-110617201D01*
X206085448Y-110589230D01*
X206463923Y-110432460D01*
X206531912Y-110191517D01*
X205740000Y-109399605D01*
X204948088Y-110191517D01*
X204187170Y-110191517D01*
X204374147Y-110004540D01*
X204463397Y-109789070D01*
X204527540Y-109943923D01*
X204768483Y-110011912D01*
X205560395Y-109220000D01*
X205919605Y-109220000D01*
X206711517Y-110011912D01*
X206952460Y-109943923D01*
X207137201Y-109424829D01*
X207109230Y-108874552D01*
X206952460Y-108496077D01*
X206711517Y-108428088D01*
X205919605Y-109220000D01*
X205560395Y-109220000D01*
X204768483Y-108428088D01*
X204527540Y-108496077D01*
X204468255Y-108662658D01*
X204374147Y-108435460D01*
X204187170Y-108248483D01*
X204948088Y-108248483D01*
X205740000Y-109040395D01*
X206531912Y-108248483D01*
X206463923Y-108007540D01*
X205944829Y-107822799D01*
X205394552Y-107850770D01*
X205016077Y-108007540D01*
X204948088Y-108248483D01*
X204187170Y-108248483D01*
X203984540Y-108045853D01*
X203475494Y-107835000D01*
X202924506Y-107835000D01*
X202415460Y-108045853D01*
X202046469Y-108414844D01*
X202008157Y-108222235D01*
X201867809Y-108012191D01*
X201657765Y-107871843D01*
X201410000Y-107822560D01*
X199910000Y-107822560D01*
X199662235Y-107871843D01*
X199452191Y-108012191D01*
X199311843Y-108222235D01*
X199262560Y-108470000D01*
X198187841Y-108470000D01*
X198285000Y-108235439D01*
X198285000Y-107664561D01*
X198066534Y-107137138D01*
X197662862Y-106733466D01*
X197135439Y-106515000D01*
X196564561Y-106515000D01*
X196037138Y-106733466D01*
X195633466Y-107137138D01*
X195415000Y-107664561D01*
X188096336Y-107664561D01*
X188041740Y-107390091D01*
X187724577Y-106915423D01*
X187249909Y-106598260D01*
X186831333Y-106515000D01*
X186548667Y-106515000D01*
X186130091Y-106598260D01*
X185655423Y-106915423D01*
X185338260Y-107390091D01*
X185226887Y-107950000D01*
X184935000Y-107950000D01*
X184935000Y-107005157D01*
X186395604Y-105544554D01*
X186548667Y-105575000D01*
X186831333Y-105575000D01*
X187249909Y-105491740D01*
X187724577Y-105174577D01*
X188041740Y-104699909D01*
X188153113Y-104140000D01*
X188096336Y-103854561D01*
X195415000Y-103854561D01*
X195415000Y-104425439D01*
X195633466Y-104952862D01*
X196037138Y-105356534D01*
X196564561Y-105575000D01*
X197135439Y-105575000D01*
X197662862Y-105356534D01*
X198066534Y-104952862D01*
X198285000Y-104425439D01*
X198285000Y-103854561D01*
X198066534Y-103327138D01*
X197662862Y-102923466D01*
X197135439Y-102705000D01*
X196564561Y-102705000D01*
X196037138Y-102923466D01*
X195633466Y-103327138D01*
X195415000Y-103854561D01*
X188096336Y-103854561D01*
X188041740Y-103580091D01*
X187724577Y-103105423D01*
X187249909Y-102788260D01*
X186831333Y-102705000D01*
X186548667Y-102705000D01*
X186130091Y-102788260D01*
X185655423Y-103105423D01*
X185338260Y-103580091D01*
X185226887Y-104140000D01*
X185285446Y-104434396D01*
X183649592Y-106070251D01*
X183584047Y-106114047D01*
X183410546Y-106373709D01*
X183365000Y-106602685D01*
X183365000Y-106602688D01*
X183349622Y-106680000D01*
X183365000Y-106757312D01*
X183365001Y-112952683D01*
X183349622Y-113030000D01*
X183410546Y-113336291D01*
X183540251Y-113530408D01*
X183540254Y-113530411D01*
X183584048Y-113595953D01*
X183649590Y-113639747D01*
X185285446Y-115275604D01*
X185226887Y-115570000D01*
X185285446Y-115864396D01*
X185094843Y-116055000D01*
X178125158Y-116055000D01*
X174124554Y-112054397D01*
X174183113Y-111760000D01*
X174071740Y-111200091D01*
X173754577Y-110725423D01*
X173402242Y-110490000D01*
X173754577Y-110254577D01*
X174071740Y-109779909D01*
X174183113Y-109220000D01*
X174071740Y-108660091D01*
X173754577Y-108185423D01*
X173402242Y-107950000D01*
X173754577Y-107714577D01*
X174071740Y-107239909D01*
X174183113Y-106680000D01*
X174071740Y-106120091D01*
X173754577Y-105645423D01*
X173402242Y-105410000D01*
X173754577Y-105174577D01*
X174071740Y-104699909D01*
X174183113Y-104140000D01*
X174071740Y-103580091D01*
X173754577Y-103105423D01*
X173402242Y-102870000D01*
X173754577Y-102634577D01*
X174071740Y-102159909D01*
X174183113Y-101600000D01*
X174071740Y-101040091D01*
X173754577Y-100565423D01*
X173633894Y-100484785D01*
X173767765Y-100458157D01*
X173977809Y-100317809D01*
X174118157Y-100107765D01*
X174167440Y-99860000D01*
X174167440Y-99076271D01*
X174532750Y-98710961D01*
X178948096Y-98710961D01*
X179070085Y-98933000D01*
X180213000Y-98933000D01*
X180213000Y-97789371D01*
X179990959Y-97668086D01*
X179484866Y-97907611D01*
X179108959Y-98322577D01*
X178948096Y-98710961D01*
X174532750Y-98710961D01*
X174729776Y-98513935D01*
X174816193Y-98456193D01*
X175044948Y-98113837D01*
X175105000Y-97811935D01*
X175125276Y-97710001D01*
X175105000Y-97608066D01*
X175105000Y-96257745D01*
X178241861Y-96257745D01*
X178315995Y-96503864D01*
X178853223Y-96696965D01*
X179423454Y-96669778D01*
X179824005Y-96503864D01*
X179898139Y-96257745D01*
X179070000Y-95429605D01*
X178241861Y-96257745D01*
X175105000Y-96257745D01*
X175105000Y-96244396D01*
X175286534Y-96062862D01*
X175505000Y-95535439D01*
X175505000Y-95033223D01*
X177623035Y-95033223D01*
X177650222Y-95603454D01*
X177816136Y-96004005D01*
X178062255Y-96078139D01*
X178890395Y-95250000D01*
X179249605Y-95250000D01*
X180077745Y-96078139D01*
X180323864Y-96004005D01*
X180516965Y-95466777D01*
X180489778Y-94896546D01*
X180323864Y-94495995D01*
X180077745Y-94421861D01*
X179249605Y-95250000D01*
X178890395Y-95250000D01*
X178062255Y-94421861D01*
X177816136Y-94495995D01*
X177623035Y-95033223D01*
X175505000Y-95033223D01*
X175505000Y-94964561D01*
X175286534Y-94437138D01*
X175105000Y-94255604D01*
X175105000Y-94242255D01*
X178241861Y-94242255D01*
X179070000Y-95070395D01*
X179898139Y-94242255D01*
X179824005Y-93996136D01*
X179286777Y-93803035D01*
X178716546Y-93830222D01*
X178315995Y-93996136D01*
X178241861Y-94242255D01*
X175105000Y-94242255D01*
X175105000Y-92447745D01*
X178241861Y-92447745D01*
X178315995Y-92693864D01*
X178853223Y-92886965D01*
X179423454Y-92859778D01*
X179824005Y-92693864D01*
X179898139Y-92447745D01*
X179070000Y-91619605D01*
X178241861Y-92447745D01*
X175105000Y-92447745D01*
X175105000Y-92434396D01*
X175286534Y-92252862D01*
X175505000Y-91725439D01*
X175505000Y-91468710D01*
X175750487Y-91223223D01*
X177623035Y-91223223D01*
X177650222Y-91793454D01*
X177816136Y-92194005D01*
X178062255Y-92268139D01*
X178890395Y-91440000D01*
X179249605Y-91440000D01*
X180077745Y-92268139D01*
X180323864Y-92194005D01*
X180516965Y-91656777D01*
X180489778Y-91086546D01*
X180323864Y-90685995D01*
X180077745Y-90611861D01*
X179249605Y-91440000D01*
X178890395Y-91440000D01*
X178062255Y-90611861D01*
X177816136Y-90685995D01*
X177623035Y-91223223D01*
X175750487Y-91223223D01*
X176541455Y-90432255D01*
X178241861Y-90432255D01*
X179070000Y-91260395D01*
X179898139Y-90432255D01*
X179824005Y-90186136D01*
X179286777Y-89993035D01*
X178716546Y-90020222D01*
X178315995Y-90186136D01*
X178241861Y-90432255D01*
X176541455Y-90432255D01*
X177038711Y-89935000D01*
X181508066Y-89935000D01*
X181610000Y-89955276D01*
X181711934Y-89935000D01*
X181711935Y-89935000D01*
X182013837Y-89874948D01*
X182356193Y-89646193D01*
X182413937Y-89559773D01*
X182714443Y-89259267D01*
X185343680Y-89259267D01*
X185544947Y-89802571D01*
X185938807Y-90227497D01*
X186453110Y-90466476D01*
X186683000Y-90345155D01*
X186683000Y-89027000D01*
X185483835Y-89027000D01*
X185343680Y-89259267D01*
X182714443Y-89259267D01*
X183432977Y-88540733D01*
X185343680Y-88540733D01*
X185483835Y-88773000D01*
X186683000Y-88773000D01*
X186683000Y-87454845D01*
X186453110Y-87333524D01*
X185938807Y-87572503D01*
X185544947Y-87997429D01*
X185343680Y-88540733D01*
X183432977Y-88540733D01*
X185848711Y-86125000D01*
X193275000Y-86125000D01*
X193275001Y-87407055D01*
X193075414Y-87540414D01*
X192923242Y-87768156D01*
X192880625Y-87704375D01*
X192389418Y-87376161D01*
X191810000Y-87260908D01*
X191230583Y-87376161D01*
X190739375Y-87704375D01*
X190560000Y-87972829D01*
X190380625Y-87704375D01*
X189889418Y-87376161D01*
X189310000Y-87260908D01*
X188730583Y-87376161D01*
X188239375Y-87704375D01*
X188056754Y-87977687D01*
X187681193Y-87572503D01*
X187166890Y-87333524D01*
X186937000Y-87454845D01*
X186937000Y-88773000D01*
X186957000Y-88773000D01*
X186957000Y-89027000D01*
X186937000Y-89027000D01*
X186937000Y-90345155D01*
X187166890Y-90466476D01*
X187681193Y-90227497D01*
X188056754Y-89822313D01*
X188239375Y-90095625D01*
X188730582Y-90423839D01*
X189310000Y-90539092D01*
X189889417Y-90423839D01*
X190380625Y-90095625D01*
X190560000Y-89827171D01*
X190737309Y-90092533D01*
X187634843Y-93195000D01*
X185497310Y-93195000D01*
X185419999Y-93179622D01*
X185342688Y-93195000D01*
X185342684Y-93195000D01*
X185113708Y-93240546D01*
X185046746Y-93285289D01*
X184919591Y-93370251D01*
X184919589Y-93370253D01*
X184854047Y-93414047D01*
X184810253Y-93479589D01*
X182379592Y-95910251D01*
X182314047Y-95954047D01*
X182140546Y-96213709D01*
X182095000Y-96442685D01*
X182095000Y-96442688D01*
X182079622Y-96520000D01*
X182095000Y-96597312D01*
X182095001Y-98734841D01*
X181775000Y-99054843D01*
X181775000Y-98932998D01*
X181609916Y-98932998D01*
X181731904Y-98710961D01*
X181571041Y-98322577D01*
X181195134Y-97907611D01*
X180689041Y-97668086D01*
X180467000Y-97789371D01*
X180467000Y-98933000D01*
X180487000Y-98933000D01*
X180487000Y-99187000D01*
X180467000Y-99187000D01*
X180467000Y-99207000D01*
X180213000Y-99207000D01*
X180213000Y-99187000D01*
X179070085Y-99187000D01*
X178948096Y-99409039D01*
X179108959Y-99797423D01*
X179484866Y-100212389D01*
X179689108Y-100309053D01*
X179305423Y-100565423D01*
X178988260Y-101040091D01*
X178876887Y-101600000D01*
X178988260Y-102159909D01*
X179305423Y-102634577D01*
X179657758Y-102870000D01*
X179305423Y-103105423D01*
X178988260Y-103580091D01*
X178876887Y-104140000D01*
X178988260Y-104699909D01*
X179305423Y-105174577D01*
X179657758Y-105410000D01*
X179305423Y-105645423D01*
X178988260Y-106120091D01*
X178876887Y-106680000D01*
X178988260Y-107239909D01*
X179305423Y-107714577D01*
X179657758Y-107950000D01*
X179305423Y-108185423D01*
X178988260Y-108660091D01*
X178876887Y-109220000D01*
X178988260Y-109779909D01*
X179305423Y-110254577D01*
X179657758Y-110490000D01*
X179305423Y-110725423D01*
X178988260Y-111200091D01*
X178876887Y-111760000D01*
X178988260Y-112319909D01*
X179305423Y-112794577D01*
X179657758Y-113030000D01*
X179305423Y-113265423D01*
X178988260Y-113740091D01*
X178876887Y-114300000D01*
X178988260Y-114859909D01*
X179305423Y-115334577D01*
X179780091Y-115651740D01*
X180198667Y-115735000D01*
X180481333Y-115735000D01*
X180899909Y-115651740D01*
X181374577Y-115334577D01*
X181691740Y-114859909D01*
X181803113Y-114300000D01*
X181691740Y-113740091D01*
X181374577Y-113265423D01*
X181022242Y-113030000D01*
X181374577Y-112794577D01*
X181691740Y-112319909D01*
X181803113Y-111760000D01*
X181691740Y-111200091D01*
X181374577Y-110725423D01*
X181022242Y-110490000D01*
X181374577Y-110254577D01*
X181691740Y-109779909D01*
X181803113Y-109220000D01*
X181691740Y-108660091D01*
X181374577Y-108185423D01*
X181022242Y-107950000D01*
X181374577Y-107714577D01*
X181691740Y-107239909D01*
X181803113Y-106680000D01*
X181691740Y-106120091D01*
X181374577Y-105645423D01*
X181022242Y-105410000D01*
X181374577Y-105174577D01*
X181691740Y-104699909D01*
X181803113Y-104140000D01*
X181691740Y-103580091D01*
X181374577Y-103105423D01*
X181022242Y-102870000D01*
X181374577Y-102634577D01*
X181691740Y-102159909D01*
X181803113Y-101600000D01*
X181744554Y-101305604D01*
X182720158Y-100330000D01*
X185226887Y-100330000D01*
X185338260Y-100889909D01*
X185655423Y-101364577D01*
X186130091Y-101681740D01*
X186548667Y-101765000D01*
X186831333Y-101765000D01*
X187249909Y-101681740D01*
X187724577Y-101364577D01*
X188041740Y-100889909D01*
X188153113Y-100330000D01*
X188096336Y-100044561D01*
X195415000Y-100044561D01*
X195415000Y-100615439D01*
X195633466Y-101142862D01*
X196037138Y-101546534D01*
X196564561Y-101765000D01*
X197135439Y-101765000D01*
X197662862Y-101546534D01*
X198066534Y-101142862D01*
X198187841Y-100850000D01*
X199262560Y-100850000D01*
X199262560Y-102350000D01*
X199311843Y-102597765D01*
X199452191Y-102807809D01*
X199662235Y-102948157D01*
X199910000Y-102997440D01*
X201410000Y-102997440D01*
X201657765Y-102948157D01*
X201867809Y-102807809D01*
X202008157Y-102597765D01*
X202046469Y-102405156D01*
X202415460Y-102774147D01*
X202924506Y-102985000D01*
X203475494Y-102985000D01*
X203984540Y-102774147D01*
X204187170Y-102571517D01*
X204948088Y-102571517D01*
X205016077Y-102812460D01*
X205535171Y-102997201D01*
X206085448Y-102969230D01*
X206463923Y-102812460D01*
X206531912Y-102571517D01*
X205740000Y-101779605D01*
X204948088Y-102571517D01*
X204187170Y-102571517D01*
X204374147Y-102384540D01*
X204463397Y-102169070D01*
X204527540Y-102323923D01*
X204768483Y-102391912D01*
X205560395Y-101600000D01*
X205919605Y-101600000D01*
X206711517Y-102391912D01*
X206952460Y-102323923D01*
X207137201Y-101804829D01*
X207109230Y-101254552D01*
X206952460Y-100876077D01*
X206711517Y-100808088D01*
X205919605Y-101600000D01*
X205560395Y-101600000D01*
X204768483Y-100808088D01*
X204527540Y-100876077D01*
X204468255Y-101042658D01*
X204374147Y-100815460D01*
X204187170Y-100628483D01*
X204948088Y-100628483D01*
X205740000Y-101420395D01*
X206531912Y-100628483D01*
X206463923Y-100387540D01*
X205944829Y-100202799D01*
X205394552Y-100230770D01*
X205016077Y-100387540D01*
X204948088Y-100628483D01*
X204187170Y-100628483D01*
X203984540Y-100425853D01*
X203475494Y-100215000D01*
X202924506Y-100215000D01*
X202415460Y-100425853D01*
X202046469Y-100794844D01*
X202008157Y-100602235D01*
X201867809Y-100392191D01*
X201657765Y-100251843D01*
X201410000Y-100202560D01*
X199910000Y-100202560D01*
X199662235Y-100251843D01*
X199452191Y-100392191D01*
X199311843Y-100602235D01*
X199262560Y-100850000D01*
X198187841Y-100850000D01*
X198285000Y-100615439D01*
X198285000Y-100044561D01*
X198066534Y-99517138D01*
X197662862Y-99113466D01*
X197135439Y-98895000D01*
X196564561Y-98895000D01*
X196037138Y-99113466D01*
X195633466Y-99517138D01*
X195415000Y-100044561D01*
X188096336Y-100044561D01*
X188041740Y-99770091D01*
X187724577Y-99295423D01*
X187249909Y-98978260D01*
X186831333Y-98895000D01*
X186548667Y-98895000D01*
X186130091Y-98978260D01*
X185655423Y-99295423D01*
X185338260Y-99770091D01*
X185226887Y-100330000D01*
X182720158Y-100330000D01*
X183380411Y-99669747D01*
X183445953Y-99625953D01*
X183489747Y-99560411D01*
X183489749Y-99560409D01*
X183619453Y-99366293D01*
X183619454Y-99366292D01*
X183665000Y-99137316D01*
X183665000Y-99137312D01*
X183680378Y-99060001D01*
X183665000Y-98982690D01*
X183665000Y-96845157D01*
X183990157Y-96520000D01*
X185226887Y-96520000D01*
X185338260Y-97079909D01*
X185655423Y-97554577D01*
X186130091Y-97871740D01*
X186548667Y-97955000D01*
X186831333Y-97955000D01*
X187249909Y-97871740D01*
X187724577Y-97554577D01*
X188041740Y-97079909D01*
X188153113Y-96520000D01*
X188096336Y-96234561D01*
X195415000Y-96234561D01*
X195415000Y-96805439D01*
X195633466Y-97332862D01*
X196037138Y-97736534D01*
X196564561Y-97955000D01*
X197135439Y-97955000D01*
X197662862Y-97736534D01*
X198066534Y-97332862D01*
X198285000Y-96805439D01*
X198285000Y-96234561D01*
X198066534Y-95707138D01*
X197662862Y-95303466D01*
X197135439Y-95085000D01*
X196564561Y-95085000D01*
X196037138Y-95303466D01*
X195633466Y-95707138D01*
X195415000Y-96234561D01*
X188096336Y-96234561D01*
X188041740Y-95960091D01*
X187724577Y-95485423D01*
X187249909Y-95168260D01*
X186831333Y-95085000D01*
X186548667Y-95085000D01*
X186130091Y-95168260D01*
X185655423Y-95485423D01*
X185338260Y-95960091D01*
X185226887Y-96520000D01*
X183990157Y-96520000D01*
X185745158Y-94765000D01*
X187882688Y-94765000D01*
X187960000Y-94780378D01*
X188037312Y-94765000D01*
X188037316Y-94765000D01*
X188266292Y-94719454D01*
X188525953Y-94545953D01*
X188569749Y-94480408D01*
X189820157Y-93230000D01*
X199262560Y-93230000D01*
X199262560Y-94730000D01*
X199311843Y-94977765D01*
X199452191Y-95187809D01*
X199662235Y-95328157D01*
X199910000Y-95377440D01*
X201410000Y-95377440D01*
X201657765Y-95328157D01*
X201867809Y-95187809D01*
X202008157Y-94977765D01*
X202046469Y-94785156D01*
X202415460Y-95154147D01*
X202924506Y-95365000D01*
X203475494Y-95365000D01*
X203984540Y-95154147D01*
X204187170Y-94951517D01*
X204948088Y-94951517D01*
X205016077Y-95192460D01*
X205535171Y-95377201D01*
X206085448Y-95349230D01*
X206463923Y-95192460D01*
X206531912Y-94951517D01*
X205740000Y-94159605D01*
X204948088Y-94951517D01*
X204187170Y-94951517D01*
X204374147Y-94764540D01*
X204463397Y-94549070D01*
X204527540Y-94703923D01*
X204768483Y-94771912D01*
X205560395Y-93980000D01*
X205919605Y-93980000D01*
X206711517Y-94771912D01*
X206952460Y-94703923D01*
X207137201Y-94184829D01*
X207109230Y-93634552D01*
X206952460Y-93256077D01*
X206711517Y-93188088D01*
X205919605Y-93980000D01*
X205560395Y-93980000D01*
X204768483Y-93188088D01*
X204527540Y-93256077D01*
X204468255Y-93422658D01*
X204374147Y-93195460D01*
X204187170Y-93008483D01*
X204948088Y-93008483D01*
X205740000Y-93800395D01*
X206531912Y-93008483D01*
X206463923Y-92767540D01*
X205944829Y-92582799D01*
X205394552Y-92610770D01*
X205016077Y-92767540D01*
X204948088Y-93008483D01*
X204187170Y-93008483D01*
X203984540Y-92805853D01*
X203475494Y-92595000D01*
X202924506Y-92595000D01*
X202415460Y-92805853D01*
X202046469Y-93174844D01*
X202008157Y-92982235D01*
X201867809Y-92772191D01*
X201657765Y-92631843D01*
X201410000Y-92582560D01*
X199910000Y-92582560D01*
X199662235Y-92631843D01*
X199452191Y-92772191D01*
X199311843Y-92982235D01*
X199262560Y-93230000D01*
X189820157Y-93230000D01*
X192310411Y-90739747D01*
X192375953Y-90695953D01*
X192419747Y-90630411D01*
X192419749Y-90630409D01*
X192491891Y-90522440D01*
X192549454Y-90436292D01*
X192576841Y-90298606D01*
X192880625Y-90095625D01*
X192923242Y-90031844D01*
X193075414Y-90259586D01*
X193366565Y-90454126D01*
X193710000Y-90522440D01*
X194910000Y-90522440D01*
X195253435Y-90454126D01*
X195544586Y-90259586D01*
X195739126Y-89968435D01*
X195807440Y-89625000D01*
X195807440Y-88175000D01*
X195739126Y-87831565D01*
X195544586Y-87540414D01*
X195345000Y-87407056D01*
X195345000Y-86125000D01*
X202771290Y-86125000D01*
X207245000Y-90598711D01*
X207245001Y-109118061D01*
X207224724Y-109220000D01*
X207305052Y-109623836D01*
X207305053Y-109623837D01*
X207533808Y-109966193D01*
X207620225Y-110023935D01*
X210176065Y-112579776D01*
X210233807Y-112666193D01*
X210531343Y-112865000D01*
X210576163Y-112894948D01*
X210869422Y-112953281D01*
X210894375Y-112990625D01*
X211162829Y-113170000D01*
X210894375Y-113349375D01*
X210566161Y-113840582D01*
X210450908Y-114420000D01*
X210566161Y-114999418D01*
X210894375Y-115490625D01*
X211162829Y-115670000D01*
X210894375Y-115849375D01*
X210566161Y-116340582D01*
X210450908Y-116920000D01*
X210566161Y-117499418D01*
X210894375Y-117990625D01*
X211162829Y-118170000D01*
X210894375Y-118349375D01*
X210566161Y-118840582D01*
X210450908Y-119420000D01*
X210566161Y-119999418D01*
X210885709Y-120477656D01*
X210755301Y-120531673D01*
X210576673Y-120710302D01*
X210480000Y-120943691D01*
X210480000Y-121634250D01*
X210638750Y-121793000D01*
X211963000Y-121793000D01*
X211963000Y-121773000D01*
X212217000Y-121773000D01*
X212217000Y-121793000D01*
X213541250Y-121793000D01*
X213700000Y-121634250D01*
X213700000Y-120943691D01*
X213603327Y-120710302D01*
X213424699Y-120531673D01*
X213294291Y-120477656D01*
X213613839Y-119999418D01*
X213729092Y-119420000D01*
X213613839Y-118840582D01*
X213285625Y-118349375D01*
X213017171Y-118170000D01*
X213285625Y-117990625D01*
X213613839Y-117499418D01*
X213729092Y-116920000D01*
X213613839Y-116340582D01*
X213285625Y-115849375D01*
X213017171Y-115670000D01*
X213285625Y-115490625D01*
X213613839Y-114999418D01*
X213729092Y-114420000D01*
X213613839Y-113840582D01*
X213285625Y-113349375D01*
X213017171Y-113170000D01*
X213285625Y-112990625D01*
X213613839Y-112499418D01*
X213729092Y-111920000D01*
X213613839Y-111340582D01*
X213285625Y-110849375D01*
X212794418Y-110521161D01*
X212361256Y-110435000D01*
X211818744Y-110435000D01*
X211385582Y-110521161D01*
X211181341Y-110657630D01*
X209315000Y-108791290D01*
X209315000Y-103155750D01*
X210480000Y-103155750D01*
X210480000Y-103846309D01*
X210576673Y-104079698D01*
X210755301Y-104258327D01*
X210988690Y-104355000D01*
X211804250Y-104355000D01*
X211963000Y-104196250D01*
X211963000Y-102997000D01*
X212217000Y-102997000D01*
X212217000Y-104196250D01*
X212375750Y-104355000D01*
X213191310Y-104355000D01*
X213424699Y-104258327D01*
X213603327Y-104079698D01*
X213700000Y-103846309D01*
X213700000Y-103155750D01*
X213541250Y-102997000D01*
X212217000Y-102997000D01*
X211963000Y-102997000D01*
X210638750Y-102997000D01*
X210480000Y-103155750D01*
X209315000Y-103155750D01*
X209315000Y-92870000D01*
X210450908Y-92870000D01*
X210566161Y-93449418D01*
X210894375Y-93940625D01*
X211162829Y-94120000D01*
X210894375Y-94299375D01*
X210566161Y-94790582D01*
X210450908Y-95370000D01*
X210566161Y-95949418D01*
X210894375Y-96440625D01*
X211162829Y-96620000D01*
X210894375Y-96799375D01*
X210566161Y-97290582D01*
X210450908Y-97870000D01*
X210566161Y-98449418D01*
X210894375Y-98940625D01*
X211162829Y-99120000D01*
X210894375Y-99299375D01*
X210566161Y-99790582D01*
X210450908Y-100370000D01*
X210566161Y-100949418D01*
X210885709Y-101427656D01*
X210755301Y-101481673D01*
X210576673Y-101660302D01*
X210480000Y-101893691D01*
X210480000Y-102584250D01*
X210638750Y-102743000D01*
X211963000Y-102743000D01*
X211963000Y-102723000D01*
X212217000Y-102723000D01*
X212217000Y-102743000D01*
X213541250Y-102743000D01*
X213700000Y-102584250D01*
X213700000Y-101893691D01*
X213603327Y-101660302D01*
X213424699Y-101481673D01*
X213294291Y-101427656D01*
X213613839Y-100949418D01*
X213729092Y-100370000D01*
X213613839Y-99790582D01*
X213285625Y-99299375D01*
X213017171Y-99120000D01*
X213285625Y-98940625D01*
X213613839Y-98449418D01*
X213729092Y-97870000D01*
X213613839Y-97290582D01*
X213285625Y-96799375D01*
X213017171Y-96620000D01*
X213285625Y-96440625D01*
X213613839Y-95949418D01*
X213729092Y-95370000D01*
X213613839Y-94790582D01*
X213285625Y-94299375D01*
X213017171Y-94120000D01*
X213285625Y-93940625D01*
X213613839Y-93449418D01*
X213729092Y-92870000D01*
X213613839Y-92290582D01*
X213285625Y-91799375D01*
X212794418Y-91471161D01*
X212361256Y-91385000D01*
X211818744Y-91385000D01*
X211385582Y-91471161D01*
X210894375Y-91799375D01*
X210566161Y-92290582D01*
X210450908Y-92870000D01*
X209315000Y-92870000D01*
X209315000Y-90271934D01*
X209335276Y-90170000D01*
X209295376Y-89969406D01*
X209254948Y-89766163D01*
X209026193Y-89423807D01*
X208939776Y-89366065D01*
X204003937Y-84430227D01*
X203946193Y-84343807D01*
X203603837Y-84115052D01*
X203301935Y-84055000D01*
X203301934Y-84055000D01*
X203200000Y-84034724D01*
X203098066Y-84055000D01*
X194411934Y-84055000D01*
X194310000Y-84034724D01*
X194208065Y-84055000D01*
X185521934Y-84055000D01*
X185420000Y-84034724D01*
X185318065Y-84055000D01*
X185016163Y-84115052D01*
X184673807Y-84343807D01*
X184616065Y-84430224D01*
X181181290Y-87865000D01*
X176711929Y-87865000D01*
X176609999Y-87844725D01*
X176508070Y-87865000D01*
X176508065Y-87865000D01*
X176206163Y-87925052D01*
X175863807Y-88153807D01*
X175806065Y-88240224D01*
X174041290Y-90005000D01*
X173784561Y-90005000D01*
X173257138Y-90223466D01*
X173075604Y-90405000D01*
X168889442Y-90405000D01*
X168784523Y-90247977D01*
X168259410Y-89897109D01*
X167640000Y-89773900D01*
X167020589Y-89897109D01*
X166495477Y-90247977D01*
X166360841Y-90449474D01*
X165966924Y-90064027D01*
X165472980Y-89849437D01*
X165227000Y-89969406D01*
X165227000Y-91313000D01*
X165247000Y-91313000D01*
X165247000Y-91567000D01*
X165227000Y-91567000D01*
X165227000Y-92910594D01*
X165472980Y-93030563D01*
X165966924Y-92815973D01*
X166360841Y-92430526D01*
X166495477Y-92632023D01*
X167020590Y-92982891D01*
X167640000Y-93106100D01*
X168259411Y-92982891D01*
X168784523Y-92632023D01*
X168889442Y-92475000D01*
X173035000Y-92475000D01*
X173035001Y-94255603D01*
X172853466Y-94437138D01*
X172635000Y-94964561D01*
X172635000Y-95535439D01*
X172853466Y-96062862D01*
X173035000Y-96244396D01*
X173035001Y-97281288D01*
X172703729Y-97612560D01*
X171920000Y-97612560D01*
X171672235Y-97661843D01*
X171462191Y-97802191D01*
X171321843Y-98012235D01*
X171318119Y-98030957D01*
X171046163Y-98085052D01*
X170703807Y-98313807D01*
X170646065Y-98400224D01*
X161900225Y-107146065D01*
X161813808Y-107203807D01*
X161756066Y-107290224D01*
X161585052Y-107546164D01*
X161504724Y-107950000D01*
X161525001Y-108051939D01*
X161525000Y-110359304D01*
X161512235Y-110361843D01*
X161302191Y-110502191D01*
X161161843Y-110712235D01*
X161112560Y-110960000D01*
X151257000Y-110960000D01*
X151257000Y-108266890D01*
X154618524Y-108266890D01*
X154620447Y-108279260D01*
X154871336Y-108802045D01*
X155303188Y-109189024D01*
X155850258Y-109381284D01*
X156083000Y-109237231D01*
X156083000Y-108037000D01*
X156337000Y-108037000D01*
X156337000Y-109237231D01*
X156569742Y-109381284D01*
X157116812Y-109189024D01*
X157548664Y-108802045D01*
X157799553Y-108279260D01*
X157801476Y-108266890D01*
X157680155Y-108037000D01*
X156337000Y-108037000D01*
X156083000Y-108037000D01*
X154739845Y-108037000D01*
X154618524Y-108266890D01*
X151257000Y-108266890D01*
X151257000Y-104810000D01*
X154562560Y-104810000D01*
X154562560Y-106010000D01*
X154630874Y-106353435D01*
X154825414Y-106644586D01*
X155090407Y-106821648D01*
X154871336Y-107017955D01*
X154620447Y-107540740D01*
X154618524Y-107553110D01*
X154739845Y-107783000D01*
X156083000Y-107783000D01*
X156083000Y-107763000D01*
X156337000Y-107763000D01*
X156337000Y-107783000D01*
X157680155Y-107783000D01*
X157801476Y-107553110D01*
X157799553Y-107540740D01*
X157548664Y-107017955D01*
X157329593Y-106821648D01*
X157594586Y-106644586D01*
X157789126Y-106353435D01*
X157857440Y-106010000D01*
X157857440Y-104810000D01*
X157789126Y-104466565D01*
X157594586Y-104175414D01*
X157303435Y-103980874D01*
X156960000Y-103912560D01*
X155460000Y-103912560D01*
X155116565Y-103980874D01*
X154825414Y-104175414D01*
X154630874Y-104466565D01*
X154562560Y-104810000D01*
X151257000Y-104810000D01*
X151257000Y-99530000D01*
X161112560Y-99530000D01*
X161112560Y-101130000D01*
X161161843Y-101377765D01*
X161302191Y-101587809D01*
X161512235Y-101728157D01*
X161760000Y-101777440D01*
X163360000Y-101777440D01*
X163607765Y-101728157D01*
X163817809Y-101587809D01*
X163958157Y-101377765D01*
X163966117Y-101337745D01*
X165231861Y-101337745D01*
X165305995Y-101583864D01*
X165843223Y-101776965D01*
X166413454Y-101749778D01*
X166814005Y-101583864D01*
X166888139Y-101337745D01*
X166060000Y-100509605D01*
X165231861Y-101337745D01*
X163966117Y-101337745D01*
X164007440Y-101130000D01*
X164007440Y-100113223D01*
X164613035Y-100113223D01*
X164640222Y-100683454D01*
X164806136Y-101084005D01*
X165052255Y-101158139D01*
X165880395Y-100330000D01*
X166239605Y-100330000D01*
X167067745Y-101158139D01*
X167313864Y-101084005D01*
X167506965Y-100546777D01*
X167479778Y-99976546D01*
X167313864Y-99575995D01*
X167067745Y-99501861D01*
X166239605Y-100330000D01*
X165880395Y-100330000D01*
X165052255Y-99501861D01*
X164806136Y-99575995D01*
X164613035Y-100113223D01*
X164007440Y-100113223D01*
X164007440Y-99530000D01*
X163966118Y-99322255D01*
X165231861Y-99322255D01*
X166060000Y-100150395D01*
X166888139Y-99322255D01*
X166814005Y-99076136D01*
X166276777Y-98883035D01*
X165706546Y-98910222D01*
X165305995Y-99076136D01*
X165231861Y-99322255D01*
X163966118Y-99322255D01*
X163958157Y-99282235D01*
X163817809Y-99072191D01*
X163607765Y-98931843D01*
X163360000Y-98882560D01*
X161760000Y-98882560D01*
X161512235Y-98931843D01*
X161302191Y-99072191D01*
X161161843Y-99282235D01*
X161112560Y-99530000D01*
X151257000Y-99530000D01*
X151257000Y-90440000D01*
X160960060Y-90440000D01*
X160960060Y-92440000D01*
X161009343Y-92687765D01*
X161149691Y-92897809D01*
X161359735Y-93038157D01*
X161607500Y-93087440D01*
X163512500Y-93087440D01*
X163760265Y-93038157D01*
X163970309Y-92897809D01*
X164107255Y-92692857D01*
X164233076Y-92815973D01*
X164727020Y-93030563D01*
X164973000Y-92910594D01*
X164973000Y-91567000D01*
X164953000Y-91567000D01*
X164953000Y-91313000D01*
X164973000Y-91313000D01*
X164973000Y-89969406D01*
X164727020Y-89849437D01*
X164233076Y-90064027D01*
X164107255Y-90187143D01*
X163970309Y-89982191D01*
X163760265Y-89841843D01*
X163512500Y-89792560D01*
X161607500Y-89792560D01*
X161359735Y-89841843D01*
X161149691Y-89982191D01*
X161009343Y-90192235D01*
X160960060Y-90440000D01*
X151257000Y-90440000D01*
X151257000Y-89027000D01*
X157480000Y-89027000D01*
X157528601Y-89017333D01*
X157569803Y-88989803D01*
X157597333Y-88948601D01*
X157607000Y-88900000D01*
X157607000Y-82677000D01*
X211963000Y-82677000D01*
X211963000Y-88900000D01*
G04 #@! TD*
M02*
