G04 #@! TF.GenerationSoftware,KiCad,Pcbnew,(5.0.2)-1*
G04 #@! TF.CreationDate,2019-02-06T21:08:15+01:00*
G04 #@! TF.ProjectId,parkranger,7061726b-7261-46e6-9765-722e6b696361,rev?*
G04 #@! TF.SameCoordinates,Original*
G04 #@! TF.FileFunction,Soldermask,Top*
G04 #@! TF.FilePolarity,Negative*
%FSLAX46Y46*%
G04 Gerber Fmt 4.6, Leading zero omitted, Abs format (unit mm)*
G04 Created by KiCad (PCBNEW (5.0.2)-1) date 06.02.2019 21:08:15*
%MOMM*%
%LPD*%
G01*
G04 APERTURE LIST*
%ADD10C,0.100000*%
G04 APERTURE END LIST*
D10*
G36*
X174100442Y-123565518D02*
X174166627Y-123572037D01*
X174279853Y-123606384D01*
X174336467Y-123623557D01*
X174475087Y-123697652D01*
X174492991Y-123707222D01*
X174528729Y-123736552D01*
X174630186Y-123819814D01*
X174713448Y-123921271D01*
X174742778Y-123957009D01*
X174742779Y-123957011D01*
X174826443Y-124113533D01*
X174826443Y-124113534D01*
X174877963Y-124283373D01*
X174895359Y-124460000D01*
X174877963Y-124636627D01*
X174843616Y-124749853D01*
X174826443Y-124806467D01*
X174752348Y-124945087D01*
X174742778Y-124962991D01*
X174713448Y-124998729D01*
X174630186Y-125100186D01*
X174528729Y-125183448D01*
X174492991Y-125212778D01*
X174492989Y-125212779D01*
X174336467Y-125296443D01*
X174279853Y-125313616D01*
X174166627Y-125347963D01*
X174100442Y-125354482D01*
X174034260Y-125361000D01*
X173945740Y-125361000D01*
X173879558Y-125354482D01*
X173813373Y-125347963D01*
X173700147Y-125313616D01*
X173643533Y-125296443D01*
X173487011Y-125212779D01*
X173487009Y-125212778D01*
X173451271Y-125183448D01*
X173349814Y-125100186D01*
X173266552Y-124998729D01*
X173237222Y-124962991D01*
X173227652Y-124945087D01*
X173153557Y-124806467D01*
X173136384Y-124749853D01*
X173102037Y-124636627D01*
X173084641Y-124460000D01*
X173102037Y-124283373D01*
X173153557Y-124113534D01*
X173153557Y-124113533D01*
X173237221Y-123957011D01*
X173237222Y-123957009D01*
X173266552Y-123921271D01*
X173349814Y-123819814D01*
X173451271Y-123736552D01*
X173487009Y-123707222D01*
X173504913Y-123697652D01*
X173643533Y-123623557D01*
X173700147Y-123606384D01*
X173813373Y-123572037D01*
X173879558Y-123565518D01*
X173945740Y-123559000D01*
X174034260Y-123559000D01*
X174100442Y-123565518D01*
X174100442Y-123565518D01*
G37*
G36*
X176640442Y-123565518D02*
X176706627Y-123572037D01*
X176819853Y-123606384D01*
X176876467Y-123623557D01*
X177015087Y-123697652D01*
X177032991Y-123707222D01*
X177068729Y-123736552D01*
X177170186Y-123819814D01*
X177253448Y-123921271D01*
X177282778Y-123957009D01*
X177282779Y-123957011D01*
X177366443Y-124113533D01*
X177366443Y-124113534D01*
X177417963Y-124283373D01*
X177435359Y-124460000D01*
X177417963Y-124636627D01*
X177383616Y-124749853D01*
X177366443Y-124806467D01*
X177292348Y-124945087D01*
X177282778Y-124962991D01*
X177253448Y-124998729D01*
X177170186Y-125100186D01*
X177068729Y-125183448D01*
X177032991Y-125212778D01*
X177032989Y-125212779D01*
X176876467Y-125296443D01*
X176819853Y-125313616D01*
X176706627Y-125347963D01*
X176640442Y-125354482D01*
X176574260Y-125361000D01*
X176485740Y-125361000D01*
X176419558Y-125354482D01*
X176353373Y-125347963D01*
X176240147Y-125313616D01*
X176183533Y-125296443D01*
X176027011Y-125212779D01*
X176027009Y-125212778D01*
X175991271Y-125183448D01*
X175889814Y-125100186D01*
X175806552Y-124998729D01*
X175777222Y-124962991D01*
X175767652Y-124945087D01*
X175693557Y-124806467D01*
X175676384Y-124749853D01*
X175642037Y-124636627D01*
X175624641Y-124460000D01*
X175642037Y-124283373D01*
X175693557Y-124113534D01*
X175693557Y-124113533D01*
X175777221Y-123957011D01*
X175777222Y-123957009D01*
X175806552Y-123921271D01*
X175889814Y-123819814D01*
X175991271Y-123736552D01*
X176027009Y-123707222D01*
X176044913Y-123697652D01*
X176183533Y-123623557D01*
X176240147Y-123606384D01*
X176353373Y-123572037D01*
X176419558Y-123565518D01*
X176485740Y-123559000D01*
X176574260Y-123559000D01*
X176640442Y-123565518D01*
X176640442Y-123565518D01*
G37*
G36*
X179180442Y-123565518D02*
X179246627Y-123572037D01*
X179359853Y-123606384D01*
X179416467Y-123623557D01*
X179555087Y-123697652D01*
X179572991Y-123707222D01*
X179608729Y-123736552D01*
X179710186Y-123819814D01*
X179793448Y-123921271D01*
X179822778Y-123957009D01*
X179822779Y-123957011D01*
X179906443Y-124113533D01*
X179906443Y-124113534D01*
X179957963Y-124283373D01*
X179975359Y-124460000D01*
X179957963Y-124636627D01*
X179923616Y-124749853D01*
X179906443Y-124806467D01*
X179832348Y-124945087D01*
X179822778Y-124962991D01*
X179793448Y-124998729D01*
X179710186Y-125100186D01*
X179608729Y-125183448D01*
X179572991Y-125212778D01*
X179572989Y-125212779D01*
X179416467Y-125296443D01*
X179359853Y-125313616D01*
X179246627Y-125347963D01*
X179180442Y-125354482D01*
X179114260Y-125361000D01*
X179025740Y-125361000D01*
X178959558Y-125354482D01*
X178893373Y-125347963D01*
X178780147Y-125313616D01*
X178723533Y-125296443D01*
X178567011Y-125212779D01*
X178567009Y-125212778D01*
X178531271Y-125183448D01*
X178429814Y-125100186D01*
X178346552Y-124998729D01*
X178317222Y-124962991D01*
X178307652Y-124945087D01*
X178233557Y-124806467D01*
X178216384Y-124749853D01*
X178182037Y-124636627D01*
X178164641Y-124460000D01*
X178182037Y-124283373D01*
X178233557Y-124113534D01*
X178233557Y-124113533D01*
X178317221Y-123957011D01*
X178317222Y-123957009D01*
X178346552Y-123921271D01*
X178429814Y-123819814D01*
X178531271Y-123736552D01*
X178567009Y-123707222D01*
X178584913Y-123697652D01*
X178723533Y-123623557D01*
X178780147Y-123606384D01*
X178893373Y-123572037D01*
X178959558Y-123565518D01*
X179025740Y-123559000D01*
X179114260Y-123559000D01*
X179180442Y-123565518D01*
X179180442Y-123565518D01*
G37*
G36*
X165236626Y-120882037D02*
X165349852Y-120916384D01*
X165406466Y-120933557D01*
X165562989Y-121017221D01*
X165700186Y-121129814D01*
X165783448Y-121231271D01*
X165812778Y-121267009D01*
X165812779Y-121267011D01*
X165896443Y-121423533D01*
X165913616Y-121480147D01*
X165947963Y-121593373D01*
X165961000Y-121725742D01*
X165961000Y-122114257D01*
X165947963Y-122246626D01*
X165896443Y-122416466D01*
X165812778Y-122572991D01*
X165812777Y-122572992D01*
X165700186Y-122710186D01*
X165619577Y-122776339D01*
X165562991Y-122822778D01*
X165562989Y-122822779D01*
X165406467Y-122906443D01*
X165365734Y-122918799D01*
X165236627Y-122957963D01*
X165060000Y-122975359D01*
X164883374Y-122957963D01*
X164754267Y-122918799D01*
X164713534Y-122906443D01*
X164557012Y-122822779D01*
X164557010Y-122822778D01*
X164458711Y-122742106D01*
X164419812Y-122710183D01*
X164307222Y-122572992D01*
X164223557Y-122416467D01*
X164206384Y-122359853D01*
X164172037Y-122246627D01*
X164159000Y-122114258D01*
X164159000Y-121725743D01*
X164172037Y-121593374D01*
X164223557Y-121423535D01*
X164223557Y-121423534D01*
X164307221Y-121267011D01*
X164419814Y-121129814D01*
X164537767Y-121033014D01*
X164557009Y-121017222D01*
X164574913Y-121007652D01*
X164713533Y-120933557D01*
X164770147Y-120916384D01*
X164883373Y-120882037D01*
X165060000Y-120864641D01*
X165236626Y-120882037D01*
X165236626Y-120882037D01*
G37*
G36*
X163318600Y-120872989D02*
X163351649Y-120883014D01*
X163382106Y-120899294D01*
X163408799Y-120921201D01*
X163430706Y-120947894D01*
X163446986Y-120978351D01*
X163457011Y-121011400D01*
X163461000Y-121051904D01*
X163461000Y-122788096D01*
X163457011Y-122828600D01*
X163446986Y-122861649D01*
X163430706Y-122892106D01*
X163408799Y-122918799D01*
X163382106Y-122940706D01*
X163351649Y-122956986D01*
X163318600Y-122967011D01*
X163278096Y-122971000D01*
X161841904Y-122971000D01*
X161801400Y-122967011D01*
X161768351Y-122956986D01*
X161737894Y-122940706D01*
X161711201Y-122918799D01*
X161689294Y-122892106D01*
X161673014Y-122861649D01*
X161662989Y-122828600D01*
X161659000Y-122788096D01*
X161659000Y-121051904D01*
X161662989Y-121011400D01*
X161673014Y-120978351D01*
X161689294Y-120947894D01*
X161711201Y-120921201D01*
X161737894Y-120899294D01*
X161768351Y-120883014D01*
X161801400Y-120872989D01*
X161841904Y-120869000D01*
X163278096Y-120869000D01*
X163318600Y-120872989D01*
X163318600Y-120872989D01*
G37*
G36*
X212973600Y-121022989D02*
X213006649Y-121033014D01*
X213037106Y-121049294D01*
X213063799Y-121071201D01*
X213085706Y-121097894D01*
X213101986Y-121128351D01*
X213112011Y-121161400D01*
X213116000Y-121201904D01*
X213116000Y-122638096D01*
X213112011Y-122678600D01*
X213101986Y-122711649D01*
X213085706Y-122742106D01*
X213063799Y-122768799D01*
X213037106Y-122790706D01*
X213006649Y-122806986D01*
X212973600Y-122817011D01*
X212933096Y-122821000D01*
X211246904Y-122821000D01*
X211206400Y-122817011D01*
X211173351Y-122806986D01*
X211142894Y-122790706D01*
X211116201Y-122768799D01*
X211094294Y-122742106D01*
X211078014Y-122711649D01*
X211067989Y-122678600D01*
X211064000Y-122638096D01*
X211064000Y-121201904D01*
X211067989Y-121161400D01*
X211078014Y-121128351D01*
X211094294Y-121097894D01*
X211116201Y-121071201D01*
X211142894Y-121049294D01*
X211173351Y-121033014D01*
X211206400Y-121022989D01*
X211246904Y-121019000D01*
X212933096Y-121019000D01*
X212973600Y-121022989D01*
X212973600Y-121022989D01*
G37*
G36*
X179971000Y-122821000D02*
X178169000Y-122821000D01*
X178169000Y-121019000D01*
X179971000Y-121019000D01*
X179971000Y-122821000D01*
X179971000Y-122821000D01*
G37*
G36*
X176614760Y-121022989D02*
X176706627Y-121032037D01*
X176819853Y-121066384D01*
X176876467Y-121083557D01*
X177015087Y-121157652D01*
X177032991Y-121167222D01*
X177068729Y-121196552D01*
X177170186Y-121279814D01*
X177253448Y-121381271D01*
X177282778Y-121417009D01*
X177282779Y-121417011D01*
X177366443Y-121573533D01*
X177372462Y-121593375D01*
X177417963Y-121743373D01*
X177435359Y-121920000D01*
X177417963Y-122096627D01*
X177412614Y-122114259D01*
X177366443Y-122266467D01*
X177292348Y-122405087D01*
X177282778Y-122422991D01*
X177253448Y-122458729D01*
X177170186Y-122560186D01*
X177075251Y-122638096D01*
X177032991Y-122672778D01*
X177032989Y-122672779D01*
X176876467Y-122756443D01*
X176872326Y-122757699D01*
X176706627Y-122807963D01*
X176640443Y-122814481D01*
X176574260Y-122821000D01*
X176485740Y-122821000D01*
X176419557Y-122814481D01*
X176353373Y-122807963D01*
X176187674Y-122757699D01*
X176183533Y-122756443D01*
X176027011Y-122672779D01*
X176027009Y-122672778D01*
X175984749Y-122638096D01*
X175889814Y-122560186D01*
X175806552Y-122458729D01*
X175777222Y-122422991D01*
X175767652Y-122405087D01*
X175693557Y-122266467D01*
X175647386Y-122114259D01*
X175642037Y-122096627D01*
X175624641Y-121920000D01*
X175642037Y-121743373D01*
X175687538Y-121593375D01*
X175693557Y-121573533D01*
X175777221Y-121417011D01*
X175777222Y-121417009D01*
X175806552Y-121381271D01*
X175889814Y-121279814D01*
X175991271Y-121196552D01*
X176027009Y-121167222D01*
X176044913Y-121157652D01*
X176183533Y-121083557D01*
X176240147Y-121066384D01*
X176353373Y-121032037D01*
X176445240Y-121022989D01*
X176485740Y-121019000D01*
X176574260Y-121019000D01*
X176614760Y-121022989D01*
X176614760Y-121022989D01*
G37*
G36*
X174074760Y-121022989D02*
X174166627Y-121032037D01*
X174279853Y-121066384D01*
X174336467Y-121083557D01*
X174475087Y-121157652D01*
X174492991Y-121167222D01*
X174528729Y-121196552D01*
X174630186Y-121279814D01*
X174713448Y-121381271D01*
X174742778Y-121417009D01*
X174742779Y-121417011D01*
X174826443Y-121573533D01*
X174832462Y-121593375D01*
X174877963Y-121743373D01*
X174895359Y-121920000D01*
X174877963Y-122096627D01*
X174872614Y-122114259D01*
X174826443Y-122266467D01*
X174752348Y-122405087D01*
X174742778Y-122422991D01*
X174713448Y-122458729D01*
X174630186Y-122560186D01*
X174535251Y-122638096D01*
X174492991Y-122672778D01*
X174492989Y-122672779D01*
X174336467Y-122756443D01*
X174332326Y-122757699D01*
X174166627Y-122807963D01*
X174100443Y-122814481D01*
X174034260Y-122821000D01*
X173945740Y-122821000D01*
X173879557Y-122814481D01*
X173813373Y-122807963D01*
X173647674Y-122757699D01*
X173643533Y-122756443D01*
X173487011Y-122672779D01*
X173487009Y-122672778D01*
X173444749Y-122638096D01*
X173349814Y-122560186D01*
X173266552Y-122458729D01*
X173237222Y-122422991D01*
X173227652Y-122405087D01*
X173153557Y-122266467D01*
X173107386Y-122114259D01*
X173102037Y-122096627D01*
X173084641Y-121920000D01*
X173102037Y-121743373D01*
X173147538Y-121593375D01*
X173153557Y-121573533D01*
X173237221Y-121417011D01*
X173237222Y-121417009D01*
X173266552Y-121381271D01*
X173349814Y-121279814D01*
X173451271Y-121196552D01*
X173487009Y-121167222D01*
X173504913Y-121157652D01*
X173643533Y-121083557D01*
X173700147Y-121066384D01*
X173813373Y-121032037D01*
X173905240Y-121022989D01*
X173945740Y-121019000D01*
X174034260Y-121019000D01*
X174074760Y-121022989D01*
X174074760Y-121022989D01*
G37*
G36*
X212325443Y-118525519D02*
X212391627Y-118532037D01*
X212504853Y-118566384D01*
X212561467Y-118583557D01*
X212700087Y-118657652D01*
X212717991Y-118667222D01*
X212753729Y-118696552D01*
X212855186Y-118779814D01*
X212938448Y-118881271D01*
X212967778Y-118917009D01*
X212967779Y-118917011D01*
X213051443Y-119073533D01*
X213051443Y-119073534D01*
X213102963Y-119243373D01*
X213120359Y-119420000D01*
X213102963Y-119596627D01*
X213068616Y-119709853D01*
X213051443Y-119766467D01*
X212977348Y-119905087D01*
X212967778Y-119922991D01*
X212938448Y-119958729D01*
X212855186Y-120060186D01*
X212753729Y-120143448D01*
X212717991Y-120172778D01*
X212717989Y-120172779D01*
X212561467Y-120256443D01*
X212504853Y-120273616D01*
X212391627Y-120307963D01*
X212325442Y-120314482D01*
X212259260Y-120321000D01*
X211920740Y-120321000D01*
X211854558Y-120314482D01*
X211788373Y-120307963D01*
X211675147Y-120273616D01*
X211618533Y-120256443D01*
X211462011Y-120172779D01*
X211462009Y-120172778D01*
X211426271Y-120143448D01*
X211324814Y-120060186D01*
X211241552Y-119958729D01*
X211212222Y-119922991D01*
X211202652Y-119905087D01*
X211128557Y-119766467D01*
X211111384Y-119709853D01*
X211077037Y-119596627D01*
X211059641Y-119420000D01*
X211077037Y-119243373D01*
X211128557Y-119073534D01*
X211128557Y-119073533D01*
X211212221Y-118917011D01*
X211212222Y-118917009D01*
X211241552Y-118881271D01*
X211324814Y-118779814D01*
X211426271Y-118696552D01*
X211462009Y-118667222D01*
X211479913Y-118657652D01*
X211618533Y-118583557D01*
X211675147Y-118566384D01*
X211788373Y-118532037D01*
X211854557Y-118525519D01*
X211920740Y-118519000D01*
X212259260Y-118519000D01*
X212325443Y-118525519D01*
X212325443Y-118525519D01*
G37*
G36*
X212325443Y-116025519D02*
X212391627Y-116032037D01*
X212504853Y-116066384D01*
X212561467Y-116083557D01*
X212615579Y-116112481D01*
X212717991Y-116167222D01*
X212753729Y-116196552D01*
X212855186Y-116279814D01*
X212921012Y-116360025D01*
X212967778Y-116417009D01*
X212967779Y-116417011D01*
X213051443Y-116573533D01*
X213051443Y-116573534D01*
X213102963Y-116743373D01*
X213120359Y-116920000D01*
X213102963Y-117096627D01*
X213068616Y-117209853D01*
X213051443Y-117266467D01*
X212977348Y-117405087D01*
X212967778Y-117422991D01*
X212938448Y-117458729D01*
X212855186Y-117560186D01*
X212753729Y-117643448D01*
X212717991Y-117672778D01*
X212717989Y-117672779D01*
X212561467Y-117756443D01*
X212504853Y-117773616D01*
X212391627Y-117807963D01*
X212325443Y-117814481D01*
X212259260Y-117821000D01*
X211920740Y-117821000D01*
X211854557Y-117814481D01*
X211788373Y-117807963D01*
X211675147Y-117773616D01*
X211618533Y-117756443D01*
X211462011Y-117672779D01*
X211462009Y-117672778D01*
X211426271Y-117643448D01*
X211324814Y-117560186D01*
X211241552Y-117458729D01*
X211212222Y-117422991D01*
X211202652Y-117405087D01*
X211128557Y-117266467D01*
X211111384Y-117209853D01*
X211077037Y-117096627D01*
X211059641Y-116920000D01*
X211077037Y-116743373D01*
X211128557Y-116573534D01*
X211128557Y-116573533D01*
X211212221Y-116417011D01*
X211212222Y-116417009D01*
X211258988Y-116360025D01*
X211324814Y-116279814D01*
X211426271Y-116196552D01*
X211462009Y-116167222D01*
X211564421Y-116112481D01*
X211618533Y-116083557D01*
X211675147Y-116066384D01*
X211788373Y-116032037D01*
X211854557Y-116025519D01*
X211920740Y-116019000D01*
X212259260Y-116019000D01*
X212325443Y-116025519D01*
X212325443Y-116025519D01*
G37*
G36*
X197098228Y-114751703D02*
X197253100Y-114815853D01*
X197392481Y-114908985D01*
X197511015Y-115027519D01*
X197604147Y-115166900D01*
X197668297Y-115321772D01*
X197701000Y-115486184D01*
X197701000Y-115653816D01*
X197668297Y-115818228D01*
X197604147Y-115973100D01*
X197511015Y-116112481D01*
X197392481Y-116231015D01*
X197253100Y-116324147D01*
X197098228Y-116388297D01*
X196933816Y-116421000D01*
X196766184Y-116421000D01*
X196601772Y-116388297D01*
X196446900Y-116324147D01*
X196307519Y-116231015D01*
X196188985Y-116112481D01*
X196095853Y-115973100D01*
X196031703Y-115818228D01*
X195999000Y-115653816D01*
X195999000Y-115486184D01*
X196031703Y-115321772D01*
X196095853Y-115166900D01*
X196188985Y-115027519D01*
X196307519Y-114908985D01*
X196446900Y-114815853D01*
X196601772Y-114751703D01*
X196766184Y-114719000D01*
X196933816Y-114719000D01*
X197098228Y-114751703D01*
X197098228Y-114751703D01*
G37*
G36*
X186856821Y-114731313D02*
X186856824Y-114731314D01*
X186856825Y-114731314D01*
X187017239Y-114779975D01*
X187017241Y-114779976D01*
X187017244Y-114779977D01*
X187165078Y-114858995D01*
X187294659Y-114965341D01*
X187401005Y-115094922D01*
X187480023Y-115242756D01*
X187480024Y-115242759D01*
X187480025Y-115242761D01*
X187528686Y-115403175D01*
X187528687Y-115403179D01*
X187545117Y-115570000D01*
X187528687Y-115736821D01*
X187528686Y-115736824D01*
X187528686Y-115736825D01*
X187503993Y-115818228D01*
X187480023Y-115897244D01*
X187401005Y-116045078D01*
X187294659Y-116174659D01*
X187165078Y-116281005D01*
X187017244Y-116360023D01*
X187017241Y-116360024D01*
X187017239Y-116360025D01*
X186856825Y-116408686D01*
X186856824Y-116408686D01*
X186856821Y-116408687D01*
X186731804Y-116421000D01*
X186648196Y-116421000D01*
X186523179Y-116408687D01*
X186523176Y-116408686D01*
X186523175Y-116408686D01*
X186362761Y-116360025D01*
X186362759Y-116360024D01*
X186362756Y-116360023D01*
X186214922Y-116281005D01*
X186085341Y-116174659D01*
X185978995Y-116045078D01*
X185899977Y-115897244D01*
X185876008Y-115818228D01*
X185851314Y-115736825D01*
X185851314Y-115736824D01*
X185851313Y-115736821D01*
X185834883Y-115570000D01*
X185851313Y-115403179D01*
X185851314Y-115403175D01*
X185899975Y-115242761D01*
X185899976Y-115242759D01*
X185899977Y-115242756D01*
X185978995Y-115094922D01*
X186085341Y-114965341D01*
X186214922Y-114858995D01*
X186362756Y-114779977D01*
X186362759Y-114779976D01*
X186362761Y-114779975D01*
X186523175Y-114731314D01*
X186523176Y-114731314D01*
X186523179Y-114731313D01*
X186648196Y-114719000D01*
X186731804Y-114719000D01*
X186856821Y-114731313D01*
X186856821Y-114731313D01*
G37*
G36*
X212325442Y-113525518D02*
X212391627Y-113532037D01*
X212504853Y-113566384D01*
X212561467Y-113583557D01*
X212700087Y-113657652D01*
X212717991Y-113667222D01*
X212752254Y-113695341D01*
X212855186Y-113779814D01*
X212938448Y-113881271D01*
X212967778Y-113917009D01*
X212967779Y-113917011D01*
X213051443Y-114073533D01*
X213051443Y-114073534D01*
X213102963Y-114243373D01*
X213120359Y-114420000D01*
X213102963Y-114596627D01*
X213093677Y-114627239D01*
X213051443Y-114766467D01*
X213001985Y-114858995D01*
X212967778Y-114922991D01*
X212938448Y-114958729D01*
X212855186Y-115060186D01*
X212759532Y-115138686D01*
X212717991Y-115172778D01*
X212717989Y-115172779D01*
X212561467Y-115256443D01*
X212504853Y-115273616D01*
X212391627Y-115307963D01*
X212325443Y-115314481D01*
X212259260Y-115321000D01*
X211920740Y-115321000D01*
X211854557Y-115314481D01*
X211788373Y-115307963D01*
X211675147Y-115273616D01*
X211618533Y-115256443D01*
X211462011Y-115172779D01*
X211462009Y-115172778D01*
X211420468Y-115138686D01*
X211324814Y-115060186D01*
X211241552Y-114958729D01*
X211212222Y-114922991D01*
X211178015Y-114858995D01*
X211128557Y-114766467D01*
X211086323Y-114627239D01*
X211077037Y-114596627D01*
X211059641Y-114420000D01*
X211077037Y-114243373D01*
X211128557Y-114073534D01*
X211128557Y-114073533D01*
X211212221Y-113917011D01*
X211212222Y-113917009D01*
X211241552Y-113881271D01*
X211324814Y-113779814D01*
X211427746Y-113695341D01*
X211462009Y-113667222D01*
X211479913Y-113657652D01*
X211618533Y-113583557D01*
X211675147Y-113566384D01*
X211788373Y-113532037D01*
X211854558Y-113525518D01*
X211920740Y-113519000D01*
X212259260Y-113519000D01*
X212325442Y-113525518D01*
X212325442Y-113525518D01*
G37*
G36*
X180506821Y-113461313D02*
X180506824Y-113461314D01*
X180506825Y-113461314D01*
X180667239Y-113509975D01*
X180667241Y-113509976D01*
X180667244Y-113509977D01*
X180815078Y-113588995D01*
X180944659Y-113695341D01*
X181051005Y-113824922D01*
X181130023Y-113972756D01*
X181178687Y-114133179D01*
X181195117Y-114300000D01*
X181178687Y-114466821D01*
X181178686Y-114466824D01*
X181178686Y-114466825D01*
X181139312Y-114596625D01*
X181130023Y-114627244D01*
X181051005Y-114775078D01*
X180944659Y-114904659D01*
X180815078Y-115011005D01*
X180667244Y-115090023D01*
X180667241Y-115090024D01*
X180667239Y-115090025D01*
X180506825Y-115138686D01*
X180506824Y-115138686D01*
X180506821Y-115138687D01*
X180381804Y-115151000D01*
X180298196Y-115151000D01*
X180173179Y-115138687D01*
X180173176Y-115138686D01*
X180173175Y-115138686D01*
X180012761Y-115090025D01*
X180012759Y-115090024D01*
X180012756Y-115090023D01*
X179864922Y-115011005D01*
X179735341Y-114904659D01*
X179628995Y-114775078D01*
X179549977Y-114627244D01*
X179540689Y-114596625D01*
X179501314Y-114466825D01*
X179501314Y-114466824D01*
X179501313Y-114466821D01*
X179484883Y-114300000D01*
X179501313Y-114133179D01*
X179549977Y-113972756D01*
X179628995Y-113824922D01*
X179735341Y-113695341D01*
X179864922Y-113588995D01*
X180012756Y-113509977D01*
X180012759Y-113509976D01*
X180012761Y-113509975D01*
X180173175Y-113461314D01*
X180173176Y-113461314D01*
X180173179Y-113461313D01*
X180298196Y-113449000D01*
X180381804Y-113449000D01*
X180506821Y-113461313D01*
X180506821Y-113461313D01*
G37*
G36*
X172886821Y-113461313D02*
X172886824Y-113461314D01*
X172886825Y-113461314D01*
X173047239Y-113509975D01*
X173047241Y-113509976D01*
X173047244Y-113509977D01*
X173195078Y-113588995D01*
X173324659Y-113695341D01*
X173431005Y-113824922D01*
X173510023Y-113972756D01*
X173558687Y-114133179D01*
X173575117Y-114300000D01*
X173558687Y-114466821D01*
X173558686Y-114466824D01*
X173558686Y-114466825D01*
X173519312Y-114596625D01*
X173510023Y-114627244D01*
X173431005Y-114775078D01*
X173324659Y-114904659D01*
X173195078Y-115011005D01*
X173047244Y-115090023D01*
X173047241Y-115090024D01*
X173047239Y-115090025D01*
X172886825Y-115138686D01*
X172886824Y-115138686D01*
X172886821Y-115138687D01*
X172761804Y-115151000D01*
X172678196Y-115151000D01*
X172553179Y-115138687D01*
X172553176Y-115138686D01*
X172553175Y-115138686D01*
X172392761Y-115090025D01*
X172392759Y-115090024D01*
X172392756Y-115090023D01*
X172244922Y-115011005D01*
X172115341Y-114904659D01*
X172008995Y-114775078D01*
X171929977Y-114627244D01*
X171920689Y-114596625D01*
X171881314Y-114466825D01*
X171881314Y-114466824D01*
X171881313Y-114466821D01*
X171864883Y-114300000D01*
X171881313Y-114133179D01*
X171929977Y-113972756D01*
X172008995Y-113824922D01*
X172115341Y-113695341D01*
X172244922Y-113588995D01*
X172392756Y-113509977D01*
X172392759Y-113509976D01*
X172392761Y-113509975D01*
X172553175Y-113461314D01*
X172553176Y-113461314D01*
X172553179Y-113461313D01*
X172678196Y-113449000D01*
X172761804Y-113449000D01*
X172886821Y-113461313D01*
X172886821Y-113461313D01*
G37*
G36*
X212325443Y-111025519D02*
X212391627Y-111032037D01*
X212504853Y-111066384D01*
X212561467Y-111083557D01*
X212695763Y-111155341D01*
X212717991Y-111167222D01*
X212753729Y-111196552D01*
X212855186Y-111279814D01*
X212938448Y-111381271D01*
X212967778Y-111417009D01*
X212967779Y-111417011D01*
X213051443Y-111573533D01*
X213051443Y-111573534D01*
X213102963Y-111743373D01*
X213120359Y-111920000D01*
X213102963Y-112096627D01*
X213068616Y-112209853D01*
X213051443Y-112266467D01*
X212998957Y-112364659D01*
X212967778Y-112422991D01*
X212938448Y-112458729D01*
X212855186Y-112560186D01*
X212753729Y-112643448D01*
X212717991Y-112672778D01*
X212717989Y-112672779D01*
X212561467Y-112756443D01*
X212504853Y-112773616D01*
X212391627Y-112807963D01*
X212325443Y-112814481D01*
X212259260Y-112821000D01*
X211920740Y-112821000D01*
X211854557Y-112814481D01*
X211788373Y-112807963D01*
X211675147Y-112773616D01*
X211618533Y-112756443D01*
X211462011Y-112672779D01*
X211462009Y-112672778D01*
X211426271Y-112643448D01*
X211324814Y-112560186D01*
X211241552Y-112458729D01*
X211212222Y-112422991D01*
X211181043Y-112364659D01*
X211128557Y-112266467D01*
X211111384Y-112209853D01*
X211077037Y-112096627D01*
X211059641Y-111920000D01*
X211077037Y-111743373D01*
X211128557Y-111573534D01*
X211128557Y-111573533D01*
X211212221Y-111417011D01*
X211212222Y-111417009D01*
X211241552Y-111381271D01*
X211324814Y-111279814D01*
X211426271Y-111196552D01*
X211462009Y-111167222D01*
X211484237Y-111155341D01*
X211618533Y-111083557D01*
X211675147Y-111066384D01*
X211788373Y-111032037D01*
X211854557Y-111025519D01*
X211920740Y-111019000D01*
X212259260Y-111019000D01*
X212325443Y-111025519D01*
X212325443Y-111025519D01*
G37*
G36*
X197098228Y-110941703D02*
X197253100Y-111005853D01*
X197392481Y-111098985D01*
X197511015Y-111217519D01*
X197604147Y-111356900D01*
X197668297Y-111511772D01*
X197701000Y-111676184D01*
X197701000Y-111843816D01*
X197668297Y-112008228D01*
X197604147Y-112163100D01*
X197511015Y-112302481D01*
X197392481Y-112421015D01*
X197253100Y-112514147D01*
X197098228Y-112578297D01*
X196933816Y-112611000D01*
X196766184Y-112611000D01*
X196601772Y-112578297D01*
X196446900Y-112514147D01*
X196307519Y-112421015D01*
X196188985Y-112302481D01*
X196095853Y-112163100D01*
X196031703Y-112008228D01*
X195999000Y-111843816D01*
X195999000Y-111676184D01*
X196031703Y-111511772D01*
X196095853Y-111356900D01*
X196188985Y-111217519D01*
X196307519Y-111098985D01*
X196446900Y-111005853D01*
X196601772Y-110941703D01*
X196766184Y-110909000D01*
X196933816Y-110909000D01*
X197098228Y-110941703D01*
X197098228Y-110941703D01*
G37*
G36*
X163411000Y-112611000D02*
X161709000Y-112611000D01*
X161709000Y-110909000D01*
X163411000Y-110909000D01*
X163411000Y-112611000D01*
X163411000Y-112611000D01*
G37*
G36*
X180506821Y-110921313D02*
X180506824Y-110921314D01*
X180506825Y-110921314D01*
X180667239Y-110969975D01*
X180667241Y-110969976D01*
X180667244Y-110969977D01*
X180815078Y-111048995D01*
X180944659Y-111155341D01*
X181051005Y-111284922D01*
X181130023Y-111432756D01*
X181130024Y-111432759D01*
X181130025Y-111432761D01*
X181172728Y-111573534D01*
X181178687Y-111593179D01*
X181195117Y-111760000D01*
X181178687Y-111926821D01*
X181178686Y-111926824D01*
X181178686Y-111926825D01*
X181153993Y-112008228D01*
X181130023Y-112087244D01*
X181051005Y-112235078D01*
X180944659Y-112364659D01*
X180815078Y-112471005D01*
X180667244Y-112550023D01*
X180667241Y-112550024D01*
X180667239Y-112550025D01*
X180506825Y-112598686D01*
X180506824Y-112598686D01*
X180506821Y-112598687D01*
X180381804Y-112611000D01*
X180298196Y-112611000D01*
X180173179Y-112598687D01*
X180173176Y-112598686D01*
X180173175Y-112598686D01*
X180012761Y-112550025D01*
X180012759Y-112550024D01*
X180012756Y-112550023D01*
X179864922Y-112471005D01*
X179735341Y-112364659D01*
X179628995Y-112235078D01*
X179549977Y-112087244D01*
X179526008Y-112008228D01*
X179501314Y-111926825D01*
X179501314Y-111926824D01*
X179501313Y-111926821D01*
X179484883Y-111760000D01*
X179501313Y-111593179D01*
X179507272Y-111573534D01*
X179549975Y-111432761D01*
X179549976Y-111432759D01*
X179549977Y-111432756D01*
X179628995Y-111284922D01*
X179735341Y-111155341D01*
X179864922Y-111048995D01*
X180012756Y-110969977D01*
X180012759Y-110969976D01*
X180012761Y-110969975D01*
X180173175Y-110921314D01*
X180173176Y-110921314D01*
X180173179Y-110921313D01*
X180298196Y-110909000D01*
X180381804Y-110909000D01*
X180506821Y-110921313D01*
X180506821Y-110921313D01*
G37*
G36*
X172886821Y-110921313D02*
X172886824Y-110921314D01*
X172886825Y-110921314D01*
X173047239Y-110969975D01*
X173047241Y-110969976D01*
X173047244Y-110969977D01*
X173195078Y-111048995D01*
X173324659Y-111155341D01*
X173431005Y-111284922D01*
X173510023Y-111432756D01*
X173510024Y-111432759D01*
X173510025Y-111432761D01*
X173552728Y-111573534D01*
X173558687Y-111593179D01*
X173575117Y-111760000D01*
X173558687Y-111926821D01*
X173558686Y-111926824D01*
X173558686Y-111926825D01*
X173533993Y-112008228D01*
X173510023Y-112087244D01*
X173431005Y-112235078D01*
X173324659Y-112364659D01*
X173195078Y-112471005D01*
X173047244Y-112550023D01*
X173047241Y-112550024D01*
X173047239Y-112550025D01*
X172886825Y-112598686D01*
X172886824Y-112598686D01*
X172886821Y-112598687D01*
X172761804Y-112611000D01*
X172678196Y-112611000D01*
X172553179Y-112598687D01*
X172553176Y-112598686D01*
X172553175Y-112598686D01*
X172392761Y-112550025D01*
X172392759Y-112550024D01*
X172392756Y-112550023D01*
X172244922Y-112471005D01*
X172115341Y-112364659D01*
X172008995Y-112235078D01*
X171929977Y-112087244D01*
X171906008Y-112008228D01*
X171881314Y-111926825D01*
X171881314Y-111926824D01*
X171881313Y-111926821D01*
X171864883Y-111760000D01*
X171881313Y-111593179D01*
X171887272Y-111573534D01*
X171929975Y-111432761D01*
X171929976Y-111432759D01*
X171929977Y-111432756D01*
X172008995Y-111284922D01*
X172115341Y-111155341D01*
X172244922Y-111048995D01*
X172392756Y-110969977D01*
X172392759Y-110969976D01*
X172392761Y-110969975D01*
X172553175Y-110921314D01*
X172553176Y-110921314D01*
X172553179Y-110921313D01*
X172678196Y-110909000D01*
X172761804Y-110909000D01*
X172886821Y-110921313D01*
X172886821Y-110921313D01*
G37*
G36*
X186856821Y-110921313D02*
X186856824Y-110921314D01*
X186856825Y-110921314D01*
X187017239Y-110969975D01*
X187017241Y-110969976D01*
X187017244Y-110969977D01*
X187165078Y-111048995D01*
X187294659Y-111155341D01*
X187401005Y-111284922D01*
X187480023Y-111432756D01*
X187480024Y-111432759D01*
X187480025Y-111432761D01*
X187522728Y-111573534D01*
X187528687Y-111593179D01*
X187545117Y-111760000D01*
X187528687Y-111926821D01*
X187528686Y-111926824D01*
X187528686Y-111926825D01*
X187503993Y-112008228D01*
X187480023Y-112087244D01*
X187401005Y-112235078D01*
X187294659Y-112364659D01*
X187165078Y-112471005D01*
X187017244Y-112550023D01*
X187017241Y-112550024D01*
X187017239Y-112550025D01*
X186856825Y-112598686D01*
X186856824Y-112598686D01*
X186856821Y-112598687D01*
X186731804Y-112611000D01*
X186648196Y-112611000D01*
X186523179Y-112598687D01*
X186523176Y-112598686D01*
X186523175Y-112598686D01*
X186362761Y-112550025D01*
X186362759Y-112550024D01*
X186362756Y-112550023D01*
X186214922Y-112471005D01*
X186085341Y-112364659D01*
X185978995Y-112235078D01*
X185899977Y-112087244D01*
X185876008Y-112008228D01*
X185851314Y-111926825D01*
X185851314Y-111926824D01*
X185851313Y-111926821D01*
X185834883Y-111760000D01*
X185851313Y-111593179D01*
X185857272Y-111573534D01*
X185899975Y-111432761D01*
X185899976Y-111432759D01*
X185899977Y-111432756D01*
X185978995Y-111284922D01*
X186085341Y-111155341D01*
X186214922Y-111048995D01*
X186362756Y-110969977D01*
X186362759Y-110969976D01*
X186362761Y-110969975D01*
X186523175Y-110921314D01*
X186523176Y-110921314D01*
X186523179Y-110921313D01*
X186648196Y-110909000D01*
X186731804Y-110909000D01*
X186856821Y-110921313D01*
X186856821Y-110921313D01*
G37*
G36*
X166308228Y-110941703D02*
X166463100Y-111005853D01*
X166602481Y-111098985D01*
X166721015Y-111217519D01*
X166814147Y-111356900D01*
X166878297Y-111511772D01*
X166911000Y-111676184D01*
X166911000Y-111843816D01*
X166878297Y-112008228D01*
X166814147Y-112163100D01*
X166721015Y-112302481D01*
X166602481Y-112421015D01*
X166463100Y-112514147D01*
X166308228Y-112578297D01*
X166143816Y-112611000D01*
X165976184Y-112611000D01*
X165811772Y-112578297D01*
X165656900Y-112514147D01*
X165517519Y-112421015D01*
X165398985Y-112302481D01*
X165305853Y-112163100D01*
X165241703Y-112008228D01*
X165209000Y-111843816D01*
X165209000Y-111676184D01*
X165241703Y-111511772D01*
X165305853Y-111356900D01*
X165398985Y-111217519D01*
X165517519Y-111098985D01*
X165656900Y-111005853D01*
X165811772Y-110941703D01*
X165976184Y-110909000D01*
X166143816Y-110909000D01*
X166308228Y-110941703D01*
X166308228Y-110941703D01*
G37*
G36*
X172886821Y-108381313D02*
X172886824Y-108381314D01*
X172886825Y-108381314D01*
X173047239Y-108429975D01*
X173047241Y-108429976D01*
X173047244Y-108429977D01*
X173195078Y-108508995D01*
X173324659Y-108615341D01*
X173431005Y-108744922D01*
X173510023Y-108892756D01*
X173558687Y-109053179D01*
X173575117Y-109220000D01*
X173558687Y-109386821D01*
X173510023Y-109547244D01*
X173431005Y-109695078D01*
X173324659Y-109824659D01*
X173195078Y-109931005D01*
X173047244Y-110010023D01*
X173047241Y-110010024D01*
X173047239Y-110010025D01*
X172886825Y-110058686D01*
X172886824Y-110058686D01*
X172886821Y-110058687D01*
X172761804Y-110071000D01*
X172678196Y-110071000D01*
X172553179Y-110058687D01*
X172553176Y-110058686D01*
X172553175Y-110058686D01*
X172392761Y-110010025D01*
X172392759Y-110010024D01*
X172392756Y-110010023D01*
X172244922Y-109931005D01*
X172115341Y-109824659D01*
X172008995Y-109695078D01*
X171929977Y-109547244D01*
X171881313Y-109386821D01*
X171864883Y-109220000D01*
X171881313Y-109053179D01*
X171929977Y-108892756D01*
X172008995Y-108744922D01*
X172115341Y-108615341D01*
X172244922Y-108508995D01*
X172392756Y-108429977D01*
X172392759Y-108429976D01*
X172392761Y-108429975D01*
X172553175Y-108381314D01*
X172553176Y-108381314D01*
X172553179Y-108381313D01*
X172678196Y-108369000D01*
X172761804Y-108369000D01*
X172886821Y-108381313D01*
X172886821Y-108381313D01*
G37*
G36*
X180506821Y-108381313D02*
X180506824Y-108381314D01*
X180506825Y-108381314D01*
X180667239Y-108429975D01*
X180667241Y-108429976D01*
X180667244Y-108429977D01*
X180815078Y-108508995D01*
X180944659Y-108615341D01*
X181051005Y-108744922D01*
X181130023Y-108892756D01*
X181178687Y-109053179D01*
X181195117Y-109220000D01*
X181178687Y-109386821D01*
X181130023Y-109547244D01*
X181051005Y-109695078D01*
X180944659Y-109824659D01*
X180815078Y-109931005D01*
X180667244Y-110010023D01*
X180667241Y-110010024D01*
X180667239Y-110010025D01*
X180506825Y-110058686D01*
X180506824Y-110058686D01*
X180506821Y-110058687D01*
X180381804Y-110071000D01*
X180298196Y-110071000D01*
X180173179Y-110058687D01*
X180173176Y-110058686D01*
X180173175Y-110058686D01*
X180012761Y-110010025D01*
X180012759Y-110010024D01*
X180012756Y-110010023D01*
X179864922Y-109931005D01*
X179735341Y-109824659D01*
X179628995Y-109695078D01*
X179549977Y-109547244D01*
X179501313Y-109386821D01*
X179484883Y-109220000D01*
X179501313Y-109053179D01*
X179549977Y-108892756D01*
X179628995Y-108744922D01*
X179735341Y-108615341D01*
X179864922Y-108508995D01*
X180012756Y-108429977D01*
X180012759Y-108429976D01*
X180012761Y-108429975D01*
X180173175Y-108381314D01*
X180173176Y-108381314D01*
X180173179Y-108381313D01*
X180298196Y-108369000D01*
X180381804Y-108369000D01*
X180506821Y-108381313D01*
X180506821Y-108381313D01*
G37*
G36*
X201461000Y-110021000D02*
X199859000Y-110021000D01*
X199859000Y-108419000D01*
X201461000Y-108419000D01*
X201461000Y-110021000D01*
X201461000Y-110021000D01*
G37*
G36*
X205973643Y-108449781D02*
X206119415Y-108510162D01*
X206250611Y-108597824D01*
X206362176Y-108709389D01*
X206449838Y-108840585D01*
X206510219Y-108986357D01*
X206541000Y-109141107D01*
X206541000Y-109298893D01*
X206510219Y-109453643D01*
X206449838Y-109599415D01*
X206362176Y-109730611D01*
X206250611Y-109842176D01*
X206119415Y-109929838D01*
X205973643Y-109990219D01*
X205818893Y-110021000D01*
X205661107Y-110021000D01*
X205506357Y-109990219D01*
X205360585Y-109929838D01*
X205229389Y-109842176D01*
X205117824Y-109730611D01*
X205030162Y-109599415D01*
X204969781Y-109453643D01*
X204939000Y-109298893D01*
X204939000Y-109141107D01*
X204969781Y-108986357D01*
X205030162Y-108840585D01*
X205117824Y-108709389D01*
X205229389Y-108597824D01*
X205360585Y-108510162D01*
X205506357Y-108449781D01*
X205661107Y-108419000D01*
X205818893Y-108419000D01*
X205973643Y-108449781D01*
X205973643Y-108449781D01*
G37*
G36*
X203433643Y-108449781D02*
X203579415Y-108510162D01*
X203710611Y-108597824D01*
X203822176Y-108709389D01*
X203909838Y-108840585D01*
X203970219Y-108986357D01*
X204001000Y-109141107D01*
X204001000Y-109298893D01*
X203970219Y-109453643D01*
X203909838Y-109599415D01*
X203822176Y-109730611D01*
X203710611Y-109842176D01*
X203579415Y-109929838D01*
X203433643Y-109990219D01*
X203278893Y-110021000D01*
X203121107Y-110021000D01*
X202966357Y-109990219D01*
X202820585Y-109929838D01*
X202689389Y-109842176D01*
X202577824Y-109730611D01*
X202490162Y-109599415D01*
X202429781Y-109453643D01*
X202399000Y-109298893D01*
X202399000Y-109141107D01*
X202429781Y-108986357D01*
X202490162Y-108840585D01*
X202577824Y-108709389D01*
X202689389Y-108597824D01*
X202820585Y-108510162D01*
X202966357Y-108449781D01*
X203121107Y-108419000D01*
X203278893Y-108419000D01*
X203433643Y-108449781D01*
X203433643Y-108449781D01*
G37*
G36*
X156470443Y-107015519D02*
X156536627Y-107022037D01*
X156649853Y-107056384D01*
X156706467Y-107073557D01*
X156777102Y-107111313D01*
X156862991Y-107157222D01*
X156898729Y-107186552D01*
X157000186Y-107269814D01*
X157062168Y-107345341D01*
X157112778Y-107407009D01*
X157112779Y-107407011D01*
X157196443Y-107563533D01*
X157196443Y-107563534D01*
X157247963Y-107733373D01*
X157265359Y-107910000D01*
X157247963Y-108086627D01*
X157214109Y-108198228D01*
X157196443Y-108256467D01*
X157185340Y-108277239D01*
X157112778Y-108412991D01*
X157102858Y-108425078D01*
X157000186Y-108550186D01*
X156920793Y-108615341D01*
X156862991Y-108662778D01*
X156862989Y-108662779D01*
X156706467Y-108746443D01*
X156649853Y-108763616D01*
X156536627Y-108797963D01*
X156470443Y-108804481D01*
X156404260Y-108811000D01*
X156015740Y-108811000D01*
X155949557Y-108804481D01*
X155883373Y-108797963D01*
X155770147Y-108763616D01*
X155713533Y-108746443D01*
X155557011Y-108662779D01*
X155557009Y-108662778D01*
X155499207Y-108615341D01*
X155419814Y-108550186D01*
X155317142Y-108425078D01*
X155307222Y-108412991D01*
X155234660Y-108277239D01*
X155223557Y-108256467D01*
X155205891Y-108198228D01*
X155172037Y-108086627D01*
X155154641Y-107910000D01*
X155172037Y-107733373D01*
X155223557Y-107563534D01*
X155223557Y-107563533D01*
X155307221Y-107407011D01*
X155307222Y-107407009D01*
X155357832Y-107345341D01*
X155419814Y-107269814D01*
X155521271Y-107186552D01*
X155557009Y-107157222D01*
X155642898Y-107111313D01*
X155713533Y-107073557D01*
X155770147Y-107056384D01*
X155883373Y-107022037D01*
X155949557Y-107015519D01*
X156015740Y-107009000D01*
X156404260Y-107009000D01*
X156470443Y-107015519D01*
X156470443Y-107015519D01*
G37*
G36*
X197098228Y-107131703D02*
X197253100Y-107195853D01*
X197392481Y-107288985D01*
X197511015Y-107407519D01*
X197604147Y-107546900D01*
X197668297Y-107701772D01*
X197701000Y-107866184D01*
X197701000Y-108033816D01*
X197668297Y-108198228D01*
X197604147Y-108353100D01*
X197511015Y-108492481D01*
X197392481Y-108611015D01*
X197253100Y-108704147D01*
X197098228Y-108768297D01*
X196933816Y-108801000D01*
X196766184Y-108801000D01*
X196601772Y-108768297D01*
X196446900Y-108704147D01*
X196307519Y-108611015D01*
X196188985Y-108492481D01*
X196095853Y-108353100D01*
X196031703Y-108198228D01*
X195999000Y-108033816D01*
X195999000Y-107866184D01*
X196031703Y-107701772D01*
X196095853Y-107546900D01*
X196188985Y-107407519D01*
X196307519Y-107288985D01*
X196446900Y-107195853D01*
X196601772Y-107131703D01*
X196766184Y-107099000D01*
X196933816Y-107099000D01*
X197098228Y-107131703D01*
X197098228Y-107131703D01*
G37*
G36*
X186856821Y-107111313D02*
X186856824Y-107111314D01*
X186856825Y-107111314D01*
X187017239Y-107159975D01*
X187017241Y-107159976D01*
X187017244Y-107159977D01*
X187165078Y-107238995D01*
X187294659Y-107345341D01*
X187401005Y-107474922D01*
X187480023Y-107622756D01*
X187480024Y-107622759D01*
X187480025Y-107622761D01*
X187513579Y-107733375D01*
X187528687Y-107783179D01*
X187545117Y-107950000D01*
X187528687Y-108116821D01*
X187528686Y-108116824D01*
X187528686Y-108116825D01*
X187503993Y-108198228D01*
X187480023Y-108277244D01*
X187401005Y-108425078D01*
X187294659Y-108554659D01*
X187165078Y-108661005D01*
X187017244Y-108740023D01*
X187017241Y-108740024D01*
X187017239Y-108740025D01*
X186856825Y-108788686D01*
X186856824Y-108788686D01*
X186856821Y-108788687D01*
X186731804Y-108801000D01*
X186648196Y-108801000D01*
X186523179Y-108788687D01*
X186523176Y-108788686D01*
X186523175Y-108788686D01*
X186362761Y-108740025D01*
X186362759Y-108740024D01*
X186362756Y-108740023D01*
X186214922Y-108661005D01*
X186085341Y-108554659D01*
X185978995Y-108425078D01*
X185899977Y-108277244D01*
X185876008Y-108198228D01*
X185851314Y-108116825D01*
X185851314Y-108116824D01*
X185851313Y-108116821D01*
X185834883Y-107950000D01*
X185851313Y-107783179D01*
X185866421Y-107733375D01*
X185899975Y-107622761D01*
X185899976Y-107622759D01*
X185899977Y-107622756D01*
X185978995Y-107474922D01*
X186085341Y-107345341D01*
X186214922Y-107238995D01*
X186362756Y-107159977D01*
X186362759Y-107159976D01*
X186362761Y-107159975D01*
X186523175Y-107111314D01*
X186523176Y-107111314D01*
X186523179Y-107111313D01*
X186648196Y-107099000D01*
X186731804Y-107099000D01*
X186856821Y-107111313D01*
X186856821Y-107111313D01*
G37*
G36*
X180506821Y-105841313D02*
X180506824Y-105841314D01*
X180506825Y-105841314D01*
X180667239Y-105889975D01*
X180667241Y-105889976D01*
X180667244Y-105889977D01*
X180815078Y-105968995D01*
X180944659Y-106075341D01*
X181051005Y-106204922D01*
X181130023Y-106352756D01*
X181178687Y-106513179D01*
X181195117Y-106680000D01*
X181178687Y-106846821D01*
X181130023Y-107007244D01*
X181051005Y-107155078D01*
X180944659Y-107284659D01*
X180815078Y-107391005D01*
X180667244Y-107470023D01*
X180667241Y-107470024D01*
X180667239Y-107470025D01*
X180506825Y-107518686D01*
X180506824Y-107518686D01*
X180506821Y-107518687D01*
X180381804Y-107531000D01*
X180298196Y-107531000D01*
X180173179Y-107518687D01*
X180173176Y-107518686D01*
X180173175Y-107518686D01*
X180012761Y-107470025D01*
X180012759Y-107470024D01*
X180012756Y-107470023D01*
X179864922Y-107391005D01*
X179735341Y-107284659D01*
X179628995Y-107155078D01*
X179549977Y-107007244D01*
X179501313Y-106846821D01*
X179484883Y-106680000D01*
X179501313Y-106513179D01*
X179549977Y-106352756D01*
X179628995Y-106204922D01*
X179735341Y-106075341D01*
X179864922Y-105968995D01*
X180012756Y-105889977D01*
X180012759Y-105889976D01*
X180012761Y-105889975D01*
X180173175Y-105841314D01*
X180173176Y-105841314D01*
X180173179Y-105841313D01*
X180298196Y-105829000D01*
X180381804Y-105829000D01*
X180506821Y-105841313D01*
X180506821Y-105841313D01*
G37*
G36*
X172886821Y-105841313D02*
X172886824Y-105841314D01*
X172886825Y-105841314D01*
X173047239Y-105889975D01*
X173047241Y-105889976D01*
X173047244Y-105889977D01*
X173195078Y-105968995D01*
X173324659Y-106075341D01*
X173431005Y-106204922D01*
X173510023Y-106352756D01*
X173558687Y-106513179D01*
X173575117Y-106680000D01*
X173558687Y-106846821D01*
X173510023Y-107007244D01*
X173431005Y-107155078D01*
X173324659Y-107284659D01*
X173195078Y-107391005D01*
X173047244Y-107470023D01*
X173047241Y-107470024D01*
X173047239Y-107470025D01*
X172886825Y-107518686D01*
X172886824Y-107518686D01*
X172886821Y-107518687D01*
X172761804Y-107531000D01*
X172678196Y-107531000D01*
X172553179Y-107518687D01*
X172553176Y-107518686D01*
X172553175Y-107518686D01*
X172392761Y-107470025D01*
X172392759Y-107470024D01*
X172392756Y-107470023D01*
X172244922Y-107391005D01*
X172115341Y-107284659D01*
X172008995Y-107155078D01*
X171929977Y-107007244D01*
X171881313Y-106846821D01*
X171864883Y-106680000D01*
X171881313Y-106513179D01*
X171929977Y-106352756D01*
X172008995Y-106204922D01*
X172115341Y-106075341D01*
X172244922Y-105968995D01*
X172392756Y-105889977D01*
X172392759Y-105889976D01*
X172392761Y-105889975D01*
X172553175Y-105841314D01*
X172553176Y-105841314D01*
X172553179Y-105841313D01*
X172678196Y-105829000D01*
X172761804Y-105829000D01*
X172886821Y-105841313D01*
X172886821Y-105841313D01*
G37*
G36*
X157118600Y-104512989D02*
X157151649Y-104523014D01*
X157182106Y-104539294D01*
X157208799Y-104561201D01*
X157230706Y-104587894D01*
X157246986Y-104618351D01*
X157257011Y-104651400D01*
X157261000Y-104691904D01*
X157261000Y-106128096D01*
X157257011Y-106168600D01*
X157246986Y-106201649D01*
X157230706Y-106232106D01*
X157208799Y-106258799D01*
X157182106Y-106280706D01*
X157151649Y-106296986D01*
X157118600Y-106307011D01*
X157078096Y-106311000D01*
X155341904Y-106311000D01*
X155301400Y-106307011D01*
X155268351Y-106296986D01*
X155237894Y-106280706D01*
X155211201Y-106258799D01*
X155189294Y-106232106D01*
X155173014Y-106201649D01*
X155162989Y-106168600D01*
X155159000Y-106128096D01*
X155159000Y-104691904D01*
X155162989Y-104651400D01*
X155173014Y-104618351D01*
X155189294Y-104587894D01*
X155211201Y-104561201D01*
X155237894Y-104539294D01*
X155268351Y-104523014D01*
X155301400Y-104512989D01*
X155341904Y-104509000D01*
X157078096Y-104509000D01*
X157118600Y-104512989D01*
X157118600Y-104512989D01*
G37*
G36*
X197098228Y-103321703D02*
X197253100Y-103385853D01*
X197392481Y-103478985D01*
X197511015Y-103597519D01*
X197604147Y-103736900D01*
X197668297Y-103891772D01*
X197701000Y-104056184D01*
X197701000Y-104223816D01*
X197668297Y-104388228D01*
X197604147Y-104543100D01*
X197511015Y-104682481D01*
X197392481Y-104801015D01*
X197253100Y-104894147D01*
X197098228Y-104958297D01*
X196933816Y-104991000D01*
X196766184Y-104991000D01*
X196601772Y-104958297D01*
X196446900Y-104894147D01*
X196307519Y-104801015D01*
X196188985Y-104682481D01*
X196095853Y-104543100D01*
X196031703Y-104388228D01*
X195999000Y-104223816D01*
X195999000Y-104056184D01*
X196031703Y-103891772D01*
X196095853Y-103736900D01*
X196188985Y-103597519D01*
X196307519Y-103478985D01*
X196446900Y-103385853D01*
X196601772Y-103321703D01*
X196766184Y-103289000D01*
X196933816Y-103289000D01*
X197098228Y-103321703D01*
X197098228Y-103321703D01*
G37*
G36*
X186856821Y-103301313D02*
X186856824Y-103301314D01*
X186856825Y-103301314D01*
X187017239Y-103349975D01*
X187017241Y-103349976D01*
X187017244Y-103349977D01*
X187165078Y-103428995D01*
X187294659Y-103535341D01*
X187401005Y-103664922D01*
X187480023Y-103812756D01*
X187480024Y-103812759D01*
X187480025Y-103812761D01*
X187528686Y-103973175D01*
X187528687Y-103973179D01*
X187545117Y-104140000D01*
X187528687Y-104306821D01*
X187528686Y-104306824D01*
X187528686Y-104306825D01*
X187503993Y-104388228D01*
X187480023Y-104467244D01*
X187401005Y-104615078D01*
X187294659Y-104744659D01*
X187165078Y-104851005D01*
X187017244Y-104930023D01*
X187017241Y-104930024D01*
X187017239Y-104930025D01*
X186856825Y-104978686D01*
X186856824Y-104978686D01*
X186856821Y-104978687D01*
X186731804Y-104991000D01*
X186648196Y-104991000D01*
X186523179Y-104978687D01*
X186523176Y-104978686D01*
X186523175Y-104978686D01*
X186362761Y-104930025D01*
X186362759Y-104930024D01*
X186362756Y-104930023D01*
X186214922Y-104851005D01*
X186085341Y-104744659D01*
X185978995Y-104615078D01*
X185899977Y-104467244D01*
X185876008Y-104388228D01*
X185851314Y-104306825D01*
X185851314Y-104306824D01*
X185851313Y-104306821D01*
X185834883Y-104140000D01*
X185851313Y-103973179D01*
X185851314Y-103973175D01*
X185899975Y-103812761D01*
X185899976Y-103812759D01*
X185899977Y-103812756D01*
X185978995Y-103664922D01*
X186085341Y-103535341D01*
X186214922Y-103428995D01*
X186362756Y-103349977D01*
X186362759Y-103349976D01*
X186362761Y-103349975D01*
X186523175Y-103301314D01*
X186523176Y-103301314D01*
X186523179Y-103301313D01*
X186648196Y-103289000D01*
X186731804Y-103289000D01*
X186856821Y-103301313D01*
X186856821Y-103301313D01*
G37*
G36*
X172886821Y-103301313D02*
X172886824Y-103301314D01*
X172886825Y-103301314D01*
X173047239Y-103349975D01*
X173047241Y-103349976D01*
X173047244Y-103349977D01*
X173195078Y-103428995D01*
X173324659Y-103535341D01*
X173431005Y-103664922D01*
X173510023Y-103812756D01*
X173510024Y-103812759D01*
X173510025Y-103812761D01*
X173558686Y-103973175D01*
X173558687Y-103973179D01*
X173575117Y-104140000D01*
X173558687Y-104306821D01*
X173558686Y-104306824D01*
X173558686Y-104306825D01*
X173533993Y-104388228D01*
X173510023Y-104467244D01*
X173431005Y-104615078D01*
X173324659Y-104744659D01*
X173195078Y-104851005D01*
X173047244Y-104930023D01*
X173047241Y-104930024D01*
X173047239Y-104930025D01*
X172886825Y-104978686D01*
X172886824Y-104978686D01*
X172886821Y-104978687D01*
X172761804Y-104991000D01*
X172678196Y-104991000D01*
X172553179Y-104978687D01*
X172553176Y-104978686D01*
X172553175Y-104978686D01*
X172392761Y-104930025D01*
X172392759Y-104930024D01*
X172392756Y-104930023D01*
X172244922Y-104851005D01*
X172115341Y-104744659D01*
X172008995Y-104615078D01*
X171929977Y-104467244D01*
X171906008Y-104388228D01*
X171881314Y-104306825D01*
X171881314Y-104306824D01*
X171881313Y-104306821D01*
X171864883Y-104140000D01*
X171881313Y-103973179D01*
X171881314Y-103973175D01*
X171929975Y-103812761D01*
X171929976Y-103812759D01*
X171929977Y-103812756D01*
X172008995Y-103664922D01*
X172115341Y-103535341D01*
X172244922Y-103428995D01*
X172392756Y-103349977D01*
X172392759Y-103349976D01*
X172392761Y-103349975D01*
X172553175Y-103301314D01*
X172553176Y-103301314D01*
X172553179Y-103301313D01*
X172678196Y-103289000D01*
X172761804Y-103289000D01*
X172886821Y-103301313D01*
X172886821Y-103301313D01*
G37*
G36*
X180506821Y-103301313D02*
X180506824Y-103301314D01*
X180506825Y-103301314D01*
X180667239Y-103349975D01*
X180667241Y-103349976D01*
X180667244Y-103349977D01*
X180815078Y-103428995D01*
X180944659Y-103535341D01*
X181051005Y-103664922D01*
X181130023Y-103812756D01*
X181130024Y-103812759D01*
X181130025Y-103812761D01*
X181178686Y-103973175D01*
X181178687Y-103973179D01*
X181195117Y-104140000D01*
X181178687Y-104306821D01*
X181178686Y-104306824D01*
X181178686Y-104306825D01*
X181153993Y-104388228D01*
X181130023Y-104467244D01*
X181051005Y-104615078D01*
X180944659Y-104744659D01*
X180815078Y-104851005D01*
X180667244Y-104930023D01*
X180667241Y-104930024D01*
X180667239Y-104930025D01*
X180506825Y-104978686D01*
X180506824Y-104978686D01*
X180506821Y-104978687D01*
X180381804Y-104991000D01*
X180298196Y-104991000D01*
X180173179Y-104978687D01*
X180173176Y-104978686D01*
X180173175Y-104978686D01*
X180012761Y-104930025D01*
X180012759Y-104930024D01*
X180012756Y-104930023D01*
X179864922Y-104851005D01*
X179735341Y-104744659D01*
X179628995Y-104615078D01*
X179549977Y-104467244D01*
X179526008Y-104388228D01*
X179501314Y-104306825D01*
X179501314Y-104306824D01*
X179501313Y-104306821D01*
X179484883Y-104140000D01*
X179501313Y-103973179D01*
X179501314Y-103973175D01*
X179549975Y-103812761D01*
X179549976Y-103812759D01*
X179549977Y-103812756D01*
X179628995Y-103664922D01*
X179735341Y-103535341D01*
X179864922Y-103428995D01*
X180012756Y-103349977D01*
X180012759Y-103349976D01*
X180012761Y-103349975D01*
X180173175Y-103301314D01*
X180173176Y-103301314D01*
X180173179Y-103301313D01*
X180298196Y-103289000D01*
X180381804Y-103289000D01*
X180506821Y-103301313D01*
X180506821Y-103301313D01*
G37*
G36*
X212973600Y-101972989D02*
X213006649Y-101983014D01*
X213037106Y-101999294D01*
X213063799Y-102021201D01*
X213085706Y-102047894D01*
X213101986Y-102078351D01*
X213112011Y-102111400D01*
X213116000Y-102151904D01*
X213116000Y-103588096D01*
X213112011Y-103628600D01*
X213101986Y-103661649D01*
X213085706Y-103692106D01*
X213063799Y-103718799D01*
X213037106Y-103740706D01*
X213006649Y-103756986D01*
X212973600Y-103767011D01*
X212933096Y-103771000D01*
X211246904Y-103771000D01*
X211206400Y-103767011D01*
X211173351Y-103756986D01*
X211142894Y-103740706D01*
X211116201Y-103718799D01*
X211094294Y-103692106D01*
X211078014Y-103661649D01*
X211067989Y-103628600D01*
X211064000Y-103588096D01*
X211064000Y-102151904D01*
X211067989Y-102111400D01*
X211078014Y-102078351D01*
X211094294Y-102047894D01*
X211116201Y-102021201D01*
X211142894Y-101999294D01*
X211173351Y-101983014D01*
X211206400Y-101972989D01*
X211246904Y-101969000D01*
X212933096Y-101969000D01*
X212973600Y-101972989D01*
X212973600Y-101972989D01*
G37*
G36*
X172886821Y-100761313D02*
X172886824Y-100761314D01*
X172886825Y-100761314D01*
X173047239Y-100809975D01*
X173047241Y-100809976D01*
X173047244Y-100809977D01*
X173195078Y-100888995D01*
X173324659Y-100995341D01*
X173431005Y-101124922D01*
X173510023Y-101272756D01*
X173558687Y-101433179D01*
X173575117Y-101600000D01*
X173558687Y-101766821D01*
X173510023Y-101927244D01*
X173431005Y-102075078D01*
X173324659Y-102204659D01*
X173195078Y-102311005D01*
X173047244Y-102390023D01*
X173047241Y-102390024D01*
X173047239Y-102390025D01*
X172886825Y-102438686D01*
X172886824Y-102438686D01*
X172886821Y-102438687D01*
X172761804Y-102451000D01*
X172678196Y-102451000D01*
X172553179Y-102438687D01*
X172553176Y-102438686D01*
X172553175Y-102438686D01*
X172392761Y-102390025D01*
X172392759Y-102390024D01*
X172392756Y-102390023D01*
X172244922Y-102311005D01*
X172115341Y-102204659D01*
X172008995Y-102075078D01*
X171929977Y-101927244D01*
X171881313Y-101766821D01*
X171864883Y-101600000D01*
X171881313Y-101433179D01*
X171929977Y-101272756D01*
X172008995Y-101124922D01*
X172115341Y-100995341D01*
X172244922Y-100888995D01*
X172392756Y-100809977D01*
X172392759Y-100809976D01*
X172392761Y-100809975D01*
X172553175Y-100761314D01*
X172553176Y-100761314D01*
X172553179Y-100761313D01*
X172678196Y-100749000D01*
X172761804Y-100749000D01*
X172886821Y-100761313D01*
X172886821Y-100761313D01*
G37*
G36*
X180506821Y-100761313D02*
X180506824Y-100761314D01*
X180506825Y-100761314D01*
X180667239Y-100809975D01*
X180667241Y-100809976D01*
X180667244Y-100809977D01*
X180815078Y-100888995D01*
X180944659Y-100995341D01*
X181051005Y-101124922D01*
X181130023Y-101272756D01*
X181178687Y-101433179D01*
X181195117Y-101600000D01*
X181178687Y-101766821D01*
X181130023Y-101927244D01*
X181051005Y-102075078D01*
X180944659Y-102204659D01*
X180815078Y-102311005D01*
X180667244Y-102390023D01*
X180667241Y-102390024D01*
X180667239Y-102390025D01*
X180506825Y-102438686D01*
X180506824Y-102438686D01*
X180506821Y-102438687D01*
X180381804Y-102451000D01*
X180298196Y-102451000D01*
X180173179Y-102438687D01*
X180173176Y-102438686D01*
X180173175Y-102438686D01*
X180012761Y-102390025D01*
X180012759Y-102390024D01*
X180012756Y-102390023D01*
X179864922Y-102311005D01*
X179735341Y-102204659D01*
X179628995Y-102075078D01*
X179549977Y-101927244D01*
X179501313Y-101766821D01*
X179484883Y-101600000D01*
X179501313Y-101433179D01*
X179549977Y-101272756D01*
X179628995Y-101124922D01*
X179735341Y-100995341D01*
X179864922Y-100888995D01*
X180012756Y-100809977D01*
X180012759Y-100809976D01*
X180012761Y-100809975D01*
X180173175Y-100761314D01*
X180173176Y-100761314D01*
X180173179Y-100761313D01*
X180298196Y-100749000D01*
X180381804Y-100749000D01*
X180506821Y-100761313D01*
X180506821Y-100761313D01*
G37*
G36*
X203433643Y-100829781D02*
X203579415Y-100890162D01*
X203710611Y-100977824D01*
X203822176Y-101089389D01*
X203909838Y-101220585D01*
X203970219Y-101366357D01*
X204001000Y-101521107D01*
X204001000Y-101678893D01*
X203970219Y-101833643D01*
X203909838Y-101979415D01*
X203822176Y-102110611D01*
X203710611Y-102222176D01*
X203579415Y-102309838D01*
X203433643Y-102370219D01*
X203278893Y-102401000D01*
X203121107Y-102401000D01*
X202966357Y-102370219D01*
X202820585Y-102309838D01*
X202689389Y-102222176D01*
X202577824Y-102110611D01*
X202490162Y-101979415D01*
X202429781Y-101833643D01*
X202399000Y-101678893D01*
X202399000Y-101521107D01*
X202429781Y-101366357D01*
X202490162Y-101220585D01*
X202577824Y-101089389D01*
X202689389Y-100977824D01*
X202820585Y-100890162D01*
X202966357Y-100829781D01*
X203121107Y-100799000D01*
X203278893Y-100799000D01*
X203433643Y-100829781D01*
X203433643Y-100829781D01*
G37*
G36*
X205973643Y-100829781D02*
X206119415Y-100890162D01*
X206250611Y-100977824D01*
X206362176Y-101089389D01*
X206449838Y-101220585D01*
X206510219Y-101366357D01*
X206541000Y-101521107D01*
X206541000Y-101678893D01*
X206510219Y-101833643D01*
X206449838Y-101979415D01*
X206362176Y-102110611D01*
X206250611Y-102222176D01*
X206119415Y-102309838D01*
X205973643Y-102370219D01*
X205818893Y-102401000D01*
X205661107Y-102401000D01*
X205506357Y-102370219D01*
X205360585Y-102309838D01*
X205229389Y-102222176D01*
X205117824Y-102110611D01*
X205030162Y-101979415D01*
X204969781Y-101833643D01*
X204939000Y-101678893D01*
X204939000Y-101521107D01*
X204969781Y-101366357D01*
X205030162Y-101220585D01*
X205117824Y-101089389D01*
X205229389Y-100977824D01*
X205360585Y-100890162D01*
X205506357Y-100829781D01*
X205661107Y-100799000D01*
X205818893Y-100799000D01*
X205973643Y-100829781D01*
X205973643Y-100829781D01*
G37*
G36*
X201461000Y-102401000D02*
X199859000Y-102401000D01*
X199859000Y-100799000D01*
X201461000Y-100799000D01*
X201461000Y-102401000D01*
X201461000Y-102401000D01*
G37*
G36*
X212325442Y-99475518D02*
X212391627Y-99482037D01*
X212489423Y-99511703D01*
X212561467Y-99533557D01*
X212640596Y-99575853D01*
X212717991Y-99617222D01*
X212753729Y-99646552D01*
X212855186Y-99729814D01*
X212938448Y-99831271D01*
X212967778Y-99867009D01*
X212967779Y-99867011D01*
X213051443Y-100023533D01*
X213051443Y-100023534D01*
X213102963Y-100193373D01*
X213120359Y-100370000D01*
X213102963Y-100546627D01*
X213093377Y-100578228D01*
X213051443Y-100716467D01*
X212990874Y-100829782D01*
X212967778Y-100872991D01*
X212954643Y-100888996D01*
X212855186Y-101010186D01*
X212765064Y-101084146D01*
X212717991Y-101122778D01*
X212717989Y-101122779D01*
X212561467Y-101206443D01*
X212514849Y-101220584D01*
X212391627Y-101257963D01*
X212325442Y-101264482D01*
X212259260Y-101271000D01*
X211920740Y-101271000D01*
X211854558Y-101264482D01*
X211788373Y-101257963D01*
X211665151Y-101220584D01*
X211618533Y-101206443D01*
X211462011Y-101122779D01*
X211462009Y-101122778D01*
X211414936Y-101084146D01*
X211324814Y-101010186D01*
X211225357Y-100888996D01*
X211212222Y-100872991D01*
X211189126Y-100829782D01*
X211128557Y-100716467D01*
X211086623Y-100578228D01*
X211077037Y-100546627D01*
X211059641Y-100370000D01*
X211077037Y-100193373D01*
X211128557Y-100023534D01*
X211128557Y-100023533D01*
X211212221Y-99867011D01*
X211212222Y-99867009D01*
X211241552Y-99831271D01*
X211324814Y-99729814D01*
X211426271Y-99646552D01*
X211462009Y-99617222D01*
X211539404Y-99575853D01*
X211618533Y-99533557D01*
X211690577Y-99511703D01*
X211788373Y-99482037D01*
X211854558Y-99475518D01*
X211920740Y-99469000D01*
X212259260Y-99469000D01*
X212325442Y-99475518D01*
X212325442Y-99475518D01*
G37*
G36*
X197098228Y-99511703D02*
X197253100Y-99575853D01*
X197392481Y-99668985D01*
X197511015Y-99787519D01*
X197604147Y-99926900D01*
X197668297Y-100081772D01*
X197701000Y-100246184D01*
X197701000Y-100413816D01*
X197668297Y-100578228D01*
X197604147Y-100733100D01*
X197511015Y-100872481D01*
X197392481Y-100991015D01*
X197253100Y-101084147D01*
X197098228Y-101148297D01*
X196933816Y-101181000D01*
X196766184Y-101181000D01*
X196601772Y-101148297D01*
X196446900Y-101084147D01*
X196307519Y-100991015D01*
X196188985Y-100872481D01*
X196095853Y-100733100D01*
X196031703Y-100578228D01*
X195999000Y-100413816D01*
X195999000Y-100246184D01*
X196031703Y-100081772D01*
X196095853Y-99926900D01*
X196188985Y-99787519D01*
X196307519Y-99668985D01*
X196446900Y-99575853D01*
X196601772Y-99511703D01*
X196766184Y-99479000D01*
X196933816Y-99479000D01*
X197098228Y-99511703D01*
X197098228Y-99511703D01*
G37*
G36*
X186856821Y-99491313D02*
X186856824Y-99491314D01*
X186856825Y-99491314D01*
X187017239Y-99539975D01*
X187017241Y-99539976D01*
X187017244Y-99539977D01*
X187165078Y-99618995D01*
X187294659Y-99725341D01*
X187401005Y-99854922D01*
X187480023Y-100002756D01*
X187480024Y-100002759D01*
X187480025Y-100002761D01*
X187528686Y-100163175D01*
X187528687Y-100163179D01*
X187545117Y-100330000D01*
X187528687Y-100496821D01*
X187528686Y-100496824D01*
X187528686Y-100496825D01*
X187503993Y-100578228D01*
X187480023Y-100657244D01*
X187401005Y-100805078D01*
X187294659Y-100934659D01*
X187165078Y-101041005D01*
X187017244Y-101120023D01*
X187017241Y-101120024D01*
X187017239Y-101120025D01*
X186856825Y-101168686D01*
X186856824Y-101168686D01*
X186856821Y-101168687D01*
X186731804Y-101181000D01*
X186648196Y-101181000D01*
X186523179Y-101168687D01*
X186523176Y-101168686D01*
X186523175Y-101168686D01*
X186362761Y-101120025D01*
X186362759Y-101120024D01*
X186362756Y-101120023D01*
X186214922Y-101041005D01*
X186085341Y-100934659D01*
X185978995Y-100805078D01*
X185899977Y-100657244D01*
X185876008Y-100578228D01*
X185851314Y-100496825D01*
X185851314Y-100496824D01*
X185851313Y-100496821D01*
X185834883Y-100330000D01*
X185851313Y-100163179D01*
X185851314Y-100163175D01*
X185899975Y-100002761D01*
X185899976Y-100002759D01*
X185899977Y-100002756D01*
X185978995Y-99854922D01*
X186085341Y-99725341D01*
X186214922Y-99618995D01*
X186362756Y-99539977D01*
X186362759Y-99539976D01*
X186362761Y-99539975D01*
X186523175Y-99491314D01*
X186523176Y-99491314D01*
X186523179Y-99491313D01*
X186648196Y-99479000D01*
X186731804Y-99479000D01*
X186856821Y-99491313D01*
X186856821Y-99491313D01*
G37*
G36*
X163411000Y-101181000D02*
X161709000Y-101181000D01*
X161709000Y-99479000D01*
X163411000Y-99479000D01*
X163411000Y-101181000D01*
X163411000Y-101181000D01*
G37*
G36*
X166308228Y-99511703D02*
X166463100Y-99575853D01*
X166602481Y-99668985D01*
X166721015Y-99787519D01*
X166814147Y-99926900D01*
X166878297Y-100081772D01*
X166911000Y-100246184D01*
X166911000Y-100413816D01*
X166878297Y-100578228D01*
X166814147Y-100733100D01*
X166721015Y-100872481D01*
X166602481Y-100991015D01*
X166463100Y-101084147D01*
X166308228Y-101148297D01*
X166143816Y-101181000D01*
X165976184Y-101181000D01*
X165811772Y-101148297D01*
X165656900Y-101084147D01*
X165517519Y-100991015D01*
X165398985Y-100872481D01*
X165305853Y-100733100D01*
X165241703Y-100578228D01*
X165209000Y-100413816D01*
X165209000Y-100246184D01*
X165241703Y-100081772D01*
X165305853Y-99926900D01*
X165398985Y-99787519D01*
X165517519Y-99668985D01*
X165656900Y-99575853D01*
X165811772Y-99511703D01*
X165976184Y-99479000D01*
X166143816Y-99479000D01*
X166308228Y-99511703D01*
X166308228Y-99511703D01*
G37*
G36*
X173571000Y-99911000D02*
X171869000Y-99911000D01*
X171869000Y-98209000D01*
X173571000Y-98209000D01*
X173571000Y-99911000D01*
X173571000Y-99911000D01*
G37*
G36*
X180506821Y-98221313D02*
X180506824Y-98221314D01*
X180506825Y-98221314D01*
X180667239Y-98269975D01*
X180667241Y-98269976D01*
X180667244Y-98269977D01*
X180815078Y-98348995D01*
X180944659Y-98455341D01*
X181051005Y-98584922D01*
X181130023Y-98732756D01*
X181130024Y-98732759D01*
X181130025Y-98732761D01*
X181178686Y-98893175D01*
X181178687Y-98893179D01*
X181195117Y-99060000D01*
X181178687Y-99226821D01*
X181130023Y-99387244D01*
X181051005Y-99535078D01*
X180944659Y-99664659D01*
X180815078Y-99771005D01*
X180667244Y-99850023D01*
X180667241Y-99850024D01*
X180667239Y-99850025D01*
X180506825Y-99898686D01*
X180506824Y-99898686D01*
X180506821Y-99898687D01*
X180381804Y-99911000D01*
X180298196Y-99911000D01*
X180173179Y-99898687D01*
X180173176Y-99898686D01*
X180173175Y-99898686D01*
X180012761Y-99850025D01*
X180012759Y-99850024D01*
X180012756Y-99850023D01*
X179864922Y-99771005D01*
X179735341Y-99664659D01*
X179628995Y-99535078D01*
X179549977Y-99387244D01*
X179501313Y-99226821D01*
X179484883Y-99060000D01*
X179501313Y-98893179D01*
X179501314Y-98893175D01*
X179549975Y-98732761D01*
X179549976Y-98732759D01*
X179549977Y-98732756D01*
X179628995Y-98584922D01*
X179735341Y-98455341D01*
X179864922Y-98348995D01*
X180012756Y-98269977D01*
X180012759Y-98269976D01*
X180012761Y-98269975D01*
X180173175Y-98221314D01*
X180173176Y-98221314D01*
X180173179Y-98221313D01*
X180298196Y-98209000D01*
X180381804Y-98209000D01*
X180506821Y-98221313D01*
X180506821Y-98221313D01*
G37*
G36*
X212325442Y-96975518D02*
X212391627Y-96982037D01*
X212504853Y-97016384D01*
X212561467Y-97033557D01*
X212615579Y-97062481D01*
X212717991Y-97117222D01*
X212753729Y-97146552D01*
X212855186Y-97229814D01*
X212921012Y-97310025D01*
X212967778Y-97367009D01*
X212967779Y-97367011D01*
X213051443Y-97523533D01*
X213051443Y-97523534D01*
X213102963Y-97693373D01*
X213120359Y-97870000D01*
X213102963Y-98046627D01*
X213068616Y-98159853D01*
X213051443Y-98216467D01*
X213048852Y-98221314D01*
X212967778Y-98372991D01*
X212938448Y-98408729D01*
X212855186Y-98510186D01*
X212753729Y-98593448D01*
X212717991Y-98622778D01*
X212717989Y-98622779D01*
X212561467Y-98706443D01*
X212504853Y-98723616D01*
X212391627Y-98757963D01*
X212325443Y-98764481D01*
X212259260Y-98771000D01*
X211920740Y-98771000D01*
X211854557Y-98764481D01*
X211788373Y-98757963D01*
X211675147Y-98723616D01*
X211618533Y-98706443D01*
X211462011Y-98622779D01*
X211462009Y-98622778D01*
X211426271Y-98593448D01*
X211324814Y-98510186D01*
X211241552Y-98408729D01*
X211212222Y-98372991D01*
X211131148Y-98221314D01*
X211128557Y-98216467D01*
X211111384Y-98159853D01*
X211077037Y-98046627D01*
X211059641Y-97870000D01*
X211077037Y-97693373D01*
X211128557Y-97523534D01*
X211128557Y-97523533D01*
X211212221Y-97367011D01*
X211212222Y-97367009D01*
X211258988Y-97310025D01*
X211324814Y-97229814D01*
X211426271Y-97146552D01*
X211462009Y-97117222D01*
X211564421Y-97062481D01*
X211618533Y-97033557D01*
X211675147Y-97016384D01*
X211788373Y-96982037D01*
X211854558Y-96975518D01*
X211920740Y-96969000D01*
X212259260Y-96969000D01*
X212325442Y-96975518D01*
X212325442Y-96975518D01*
G37*
G36*
X186856821Y-95681313D02*
X186856824Y-95681314D01*
X186856825Y-95681314D01*
X187017239Y-95729975D01*
X187017241Y-95729976D01*
X187017244Y-95729977D01*
X187165078Y-95808995D01*
X187294659Y-95915341D01*
X187401005Y-96044922D01*
X187480023Y-96192756D01*
X187480024Y-96192759D01*
X187480025Y-96192761D01*
X187528686Y-96353175D01*
X187528687Y-96353179D01*
X187545117Y-96520000D01*
X187528687Y-96686821D01*
X187528686Y-96686824D01*
X187528686Y-96686825D01*
X187503993Y-96768228D01*
X187480023Y-96847244D01*
X187401005Y-96995078D01*
X187294659Y-97124659D01*
X187165078Y-97231005D01*
X187017244Y-97310023D01*
X187017241Y-97310024D01*
X187017239Y-97310025D01*
X186856825Y-97358686D01*
X186856824Y-97358686D01*
X186856821Y-97358687D01*
X186731804Y-97371000D01*
X186648196Y-97371000D01*
X186523179Y-97358687D01*
X186523176Y-97358686D01*
X186523175Y-97358686D01*
X186362761Y-97310025D01*
X186362759Y-97310024D01*
X186362756Y-97310023D01*
X186214922Y-97231005D01*
X186085341Y-97124659D01*
X185978995Y-96995078D01*
X185899977Y-96847244D01*
X185876008Y-96768228D01*
X185851314Y-96686825D01*
X185851314Y-96686824D01*
X185851313Y-96686821D01*
X185834883Y-96520000D01*
X185851313Y-96353179D01*
X185851314Y-96353175D01*
X185899975Y-96192761D01*
X185899976Y-96192759D01*
X185899977Y-96192756D01*
X185978995Y-96044922D01*
X186085341Y-95915341D01*
X186214922Y-95808995D01*
X186362756Y-95729977D01*
X186362759Y-95729976D01*
X186362761Y-95729975D01*
X186523175Y-95681314D01*
X186523176Y-95681314D01*
X186523179Y-95681313D01*
X186648196Y-95669000D01*
X186731804Y-95669000D01*
X186856821Y-95681313D01*
X186856821Y-95681313D01*
G37*
G36*
X197098228Y-95701703D02*
X197253100Y-95765853D01*
X197392481Y-95858985D01*
X197511015Y-95977519D01*
X197604147Y-96116900D01*
X197668297Y-96271772D01*
X197701000Y-96436184D01*
X197701000Y-96603816D01*
X197668297Y-96768228D01*
X197604147Y-96923100D01*
X197511015Y-97062481D01*
X197392481Y-97181015D01*
X197253100Y-97274147D01*
X197098228Y-97338297D01*
X196933816Y-97371000D01*
X196766184Y-97371000D01*
X196601772Y-97338297D01*
X196446900Y-97274147D01*
X196307519Y-97181015D01*
X196188985Y-97062481D01*
X196095853Y-96923100D01*
X196031703Y-96768228D01*
X195999000Y-96603816D01*
X195999000Y-96436184D01*
X196031703Y-96271772D01*
X196095853Y-96116900D01*
X196188985Y-95977519D01*
X196307519Y-95858985D01*
X196446900Y-95765853D01*
X196601772Y-95701703D01*
X196766184Y-95669000D01*
X196933816Y-95669000D01*
X197098228Y-95701703D01*
X197098228Y-95701703D01*
G37*
G36*
X212325443Y-94475519D02*
X212391627Y-94482037D01*
X212504853Y-94516384D01*
X212561467Y-94533557D01*
X212665164Y-94588985D01*
X212717991Y-94617222D01*
X212753729Y-94646552D01*
X212855186Y-94729814D01*
X212938448Y-94831271D01*
X212967778Y-94867009D01*
X212967779Y-94867011D01*
X213051443Y-95023533D01*
X213051443Y-95023534D01*
X213102963Y-95193373D01*
X213120359Y-95370000D01*
X213102963Y-95546627D01*
X213070665Y-95653100D01*
X213051443Y-95716467D01*
X213010812Y-95792481D01*
X212967778Y-95872991D01*
X212938448Y-95908729D01*
X212855186Y-96010186D01*
X212784376Y-96068297D01*
X212717991Y-96122778D01*
X212717989Y-96122779D01*
X212561467Y-96206443D01*
X212504853Y-96223616D01*
X212391627Y-96257963D01*
X212325443Y-96264481D01*
X212259260Y-96271000D01*
X211920740Y-96271000D01*
X211854557Y-96264481D01*
X211788373Y-96257963D01*
X211675147Y-96223616D01*
X211618533Y-96206443D01*
X211462011Y-96122779D01*
X211462009Y-96122778D01*
X211395624Y-96068297D01*
X211324814Y-96010186D01*
X211241552Y-95908729D01*
X211212222Y-95872991D01*
X211169188Y-95792481D01*
X211128557Y-95716467D01*
X211109335Y-95653100D01*
X211077037Y-95546627D01*
X211059641Y-95370000D01*
X211077037Y-95193373D01*
X211128557Y-95023534D01*
X211128557Y-95023533D01*
X211212221Y-94867011D01*
X211212222Y-94867009D01*
X211241552Y-94831271D01*
X211324814Y-94729814D01*
X211426271Y-94646552D01*
X211462009Y-94617222D01*
X211514836Y-94588985D01*
X211618533Y-94533557D01*
X211675147Y-94516384D01*
X211788373Y-94482037D01*
X211854557Y-94475519D01*
X211920740Y-94469000D01*
X212259260Y-94469000D01*
X212325443Y-94475519D01*
X212325443Y-94475519D01*
G37*
G36*
X179318228Y-94431703D02*
X179473100Y-94495853D01*
X179612481Y-94588985D01*
X179731015Y-94707519D01*
X179824147Y-94846900D01*
X179888297Y-95001772D01*
X179921000Y-95166184D01*
X179921000Y-95333816D01*
X179888297Y-95498228D01*
X179824147Y-95653100D01*
X179731015Y-95792481D01*
X179612481Y-95911015D01*
X179473100Y-96004147D01*
X179318228Y-96068297D01*
X179153816Y-96101000D01*
X178986184Y-96101000D01*
X178821772Y-96068297D01*
X178666900Y-96004147D01*
X178527519Y-95911015D01*
X178408985Y-95792481D01*
X178315853Y-95653100D01*
X178251703Y-95498228D01*
X178219000Y-95333816D01*
X178219000Y-95166184D01*
X178251703Y-95001772D01*
X178315853Y-94846900D01*
X178408985Y-94707519D01*
X178527519Y-94588985D01*
X178666900Y-94495853D01*
X178821772Y-94431703D01*
X178986184Y-94399000D01*
X179153816Y-94399000D01*
X179318228Y-94431703D01*
X179318228Y-94431703D01*
G37*
G36*
X174318228Y-94431703D02*
X174473100Y-94495853D01*
X174612481Y-94588985D01*
X174731015Y-94707519D01*
X174824147Y-94846900D01*
X174888297Y-95001772D01*
X174921000Y-95166184D01*
X174921000Y-95333816D01*
X174888297Y-95498228D01*
X174824147Y-95653100D01*
X174731015Y-95792481D01*
X174612481Y-95911015D01*
X174473100Y-96004147D01*
X174318228Y-96068297D01*
X174153816Y-96101000D01*
X173986184Y-96101000D01*
X173821772Y-96068297D01*
X173666900Y-96004147D01*
X173527519Y-95911015D01*
X173408985Y-95792481D01*
X173315853Y-95653100D01*
X173251703Y-95498228D01*
X173219000Y-95333816D01*
X173219000Y-95166184D01*
X173251703Y-95001772D01*
X173315853Y-94846900D01*
X173408985Y-94707519D01*
X173527519Y-94588985D01*
X173666900Y-94495853D01*
X173821772Y-94431703D01*
X173986184Y-94399000D01*
X174153816Y-94399000D01*
X174318228Y-94431703D01*
X174318228Y-94431703D01*
G37*
G36*
X201461000Y-94781000D02*
X199859000Y-94781000D01*
X199859000Y-93179000D01*
X201461000Y-93179000D01*
X201461000Y-94781000D01*
X201461000Y-94781000D01*
G37*
G36*
X205973643Y-93209781D02*
X206119415Y-93270162D01*
X206250611Y-93357824D01*
X206362176Y-93469389D01*
X206449838Y-93600585D01*
X206510219Y-93746357D01*
X206541000Y-93901107D01*
X206541000Y-94058893D01*
X206510219Y-94213643D01*
X206449838Y-94359415D01*
X206362176Y-94490611D01*
X206250611Y-94602176D01*
X206119415Y-94689838D01*
X205973643Y-94750219D01*
X205818893Y-94781000D01*
X205661107Y-94781000D01*
X205506357Y-94750219D01*
X205360585Y-94689838D01*
X205229389Y-94602176D01*
X205117824Y-94490611D01*
X205030162Y-94359415D01*
X204969781Y-94213643D01*
X204939000Y-94058893D01*
X204939000Y-93901107D01*
X204969781Y-93746357D01*
X205030162Y-93600585D01*
X205117824Y-93469389D01*
X205229389Y-93357824D01*
X205360585Y-93270162D01*
X205506357Y-93209781D01*
X205661107Y-93179000D01*
X205818893Y-93179000D01*
X205973643Y-93209781D01*
X205973643Y-93209781D01*
G37*
G36*
X203433643Y-93209781D02*
X203579415Y-93270162D01*
X203710611Y-93357824D01*
X203822176Y-93469389D01*
X203909838Y-93600585D01*
X203970219Y-93746357D01*
X204001000Y-93901107D01*
X204001000Y-94058893D01*
X203970219Y-94213643D01*
X203909838Y-94359415D01*
X203822176Y-94490611D01*
X203710611Y-94602176D01*
X203579415Y-94689838D01*
X203433643Y-94750219D01*
X203278893Y-94781000D01*
X203121107Y-94781000D01*
X202966357Y-94750219D01*
X202820585Y-94689838D01*
X202689389Y-94602176D01*
X202577824Y-94490611D01*
X202490162Y-94359415D01*
X202429781Y-94213643D01*
X202399000Y-94058893D01*
X202399000Y-93901107D01*
X202429781Y-93746357D01*
X202490162Y-93600585D01*
X202577824Y-93469389D01*
X202689389Y-93357824D01*
X202820585Y-93270162D01*
X202966357Y-93209781D01*
X203121107Y-93179000D01*
X203278893Y-93179000D01*
X203433643Y-93209781D01*
X203433643Y-93209781D01*
G37*
G36*
X212325442Y-91975518D02*
X212391627Y-91982037D01*
X212504853Y-92016384D01*
X212561467Y-92033557D01*
X212687668Y-92101014D01*
X212717991Y-92117222D01*
X212753729Y-92146552D01*
X212855186Y-92229814D01*
X212938448Y-92331271D01*
X212967778Y-92367009D01*
X212967779Y-92367011D01*
X213051443Y-92523533D01*
X213051443Y-92523534D01*
X213102963Y-92693373D01*
X213120359Y-92870000D01*
X213102963Y-93046627D01*
X213068616Y-93159853D01*
X213051443Y-93216467D01*
X213022742Y-93270162D01*
X212967778Y-93372991D01*
X212938448Y-93408729D01*
X212855186Y-93510186D01*
X212753729Y-93593448D01*
X212717991Y-93622778D01*
X212717989Y-93622779D01*
X212561467Y-93706443D01*
X212504853Y-93723616D01*
X212391627Y-93757963D01*
X212325443Y-93764481D01*
X212259260Y-93771000D01*
X211920740Y-93771000D01*
X211854557Y-93764481D01*
X211788373Y-93757963D01*
X211675147Y-93723616D01*
X211618533Y-93706443D01*
X211462011Y-93622779D01*
X211462009Y-93622778D01*
X211426271Y-93593448D01*
X211324814Y-93510186D01*
X211241552Y-93408729D01*
X211212222Y-93372991D01*
X211157258Y-93270162D01*
X211128557Y-93216467D01*
X211111384Y-93159853D01*
X211077037Y-93046627D01*
X211059641Y-92870000D01*
X211077037Y-92693373D01*
X211128557Y-92523534D01*
X211128557Y-92523533D01*
X211212221Y-92367011D01*
X211212222Y-92367009D01*
X211241552Y-92331271D01*
X211324814Y-92229814D01*
X211426271Y-92146552D01*
X211462009Y-92117222D01*
X211492332Y-92101014D01*
X211618533Y-92033557D01*
X211675147Y-92016384D01*
X211788373Y-91982037D01*
X211854557Y-91975519D01*
X211920740Y-91969000D01*
X212259260Y-91969000D01*
X212325442Y-91975518D01*
X212325442Y-91975518D01*
G37*
G36*
X167836719Y-90403520D02*
X168025880Y-90460901D01*
X168200212Y-90554083D01*
X168353015Y-90679485D01*
X168478417Y-90832288D01*
X168571599Y-91006619D01*
X168628980Y-91195780D01*
X168643500Y-91343206D01*
X168643500Y-91536793D01*
X168628980Y-91684219D01*
X168571599Y-91873380D01*
X168478417Y-92047712D01*
X168353015Y-92200515D01*
X168200212Y-92325917D01*
X168025881Y-92419099D01*
X167836720Y-92476480D01*
X167640000Y-92495855D01*
X167443281Y-92476480D01*
X167254120Y-92419099D01*
X167079788Y-92325917D01*
X166926985Y-92200515D01*
X166801583Y-92047712D01*
X166708401Y-91873381D01*
X166651020Y-91684220D01*
X166636500Y-91536794D01*
X166636500Y-91343207D01*
X166651020Y-91195781D01*
X166708401Y-91006620D01*
X166801583Y-90832288D01*
X166926985Y-90679485D01*
X167079788Y-90554083D01*
X167254119Y-90460901D01*
X167443280Y-90403520D01*
X167640000Y-90384145D01*
X167836719Y-90403520D01*
X167836719Y-90403520D01*
G37*
G36*
X165296719Y-90403520D02*
X165485880Y-90460901D01*
X165660212Y-90554083D01*
X165813015Y-90679485D01*
X165938417Y-90832288D01*
X166031599Y-91006619D01*
X166088980Y-91195780D01*
X166103500Y-91343206D01*
X166103500Y-91536793D01*
X166088980Y-91684219D01*
X166031599Y-91873380D01*
X165938417Y-92047712D01*
X165813015Y-92200515D01*
X165660212Y-92325917D01*
X165485881Y-92419099D01*
X165296720Y-92476480D01*
X165100000Y-92495855D01*
X164903281Y-92476480D01*
X164714120Y-92419099D01*
X164539788Y-92325917D01*
X164386985Y-92200515D01*
X164261583Y-92047712D01*
X164168401Y-91873381D01*
X164111020Y-91684220D01*
X164096500Y-91536794D01*
X164096500Y-91343207D01*
X164111020Y-91195781D01*
X164168401Y-91006620D01*
X164261583Y-90832288D01*
X164386985Y-90679485D01*
X164539788Y-90554083D01*
X164714119Y-90460901D01*
X164903280Y-90403520D01*
X165100000Y-90384145D01*
X165296719Y-90403520D01*
X165296719Y-90403520D01*
G37*
G36*
X163563500Y-92491000D02*
X161556500Y-92491000D01*
X161556500Y-90389000D01*
X163563500Y-90389000D01*
X163563500Y-92491000D01*
X163563500Y-92491000D01*
G37*
G36*
X179318228Y-90621703D02*
X179473100Y-90685853D01*
X179612481Y-90778985D01*
X179731015Y-90897519D01*
X179824147Y-91036900D01*
X179888297Y-91191772D01*
X179921000Y-91356184D01*
X179921000Y-91523816D01*
X179888297Y-91688228D01*
X179824147Y-91843100D01*
X179731015Y-91982481D01*
X179612481Y-92101015D01*
X179473100Y-92194147D01*
X179318228Y-92258297D01*
X179153816Y-92291000D01*
X178986184Y-92291000D01*
X178821772Y-92258297D01*
X178666900Y-92194147D01*
X178527519Y-92101015D01*
X178408985Y-91982481D01*
X178315853Y-91843100D01*
X178251703Y-91688228D01*
X178219000Y-91523816D01*
X178219000Y-91356184D01*
X178251703Y-91191772D01*
X178315853Y-91036900D01*
X178408985Y-90897519D01*
X178527519Y-90778985D01*
X178666900Y-90685853D01*
X178821772Y-90621703D01*
X178986184Y-90589000D01*
X179153816Y-90589000D01*
X179318228Y-90621703D01*
X179318228Y-90621703D01*
G37*
G36*
X174318228Y-90621703D02*
X174473100Y-90685853D01*
X174612481Y-90778985D01*
X174731015Y-90897519D01*
X174824147Y-91036900D01*
X174888297Y-91191772D01*
X174921000Y-91356184D01*
X174921000Y-91523816D01*
X174888297Y-91688228D01*
X174824147Y-91843100D01*
X174731015Y-91982481D01*
X174612481Y-92101015D01*
X174473100Y-92194147D01*
X174318228Y-92258297D01*
X174153816Y-92291000D01*
X173986184Y-92291000D01*
X173821772Y-92258297D01*
X173666900Y-92194147D01*
X173527519Y-92101015D01*
X173408985Y-91982481D01*
X173315853Y-91843100D01*
X173251703Y-91688228D01*
X173219000Y-91523816D01*
X173219000Y-91356184D01*
X173251703Y-91191772D01*
X173315853Y-91036900D01*
X173408985Y-90897519D01*
X173527519Y-90778985D01*
X173666900Y-90685853D01*
X173821772Y-90621703D01*
X173986184Y-90589000D01*
X174153816Y-90589000D01*
X174318228Y-90621703D01*
X174318228Y-90621703D01*
G37*
G36*
X191986627Y-87887037D02*
X192099853Y-87921384D01*
X192156467Y-87938557D01*
X192295087Y-88012652D01*
X192312991Y-88022222D01*
X192348729Y-88051552D01*
X192450186Y-88134814D01*
X192533448Y-88236271D01*
X192562778Y-88272009D01*
X192646443Y-88428534D01*
X192697963Y-88598374D01*
X192711000Y-88730743D01*
X192711000Y-89069258D01*
X192697963Y-89201627D01*
X192663616Y-89314853D01*
X192646443Y-89371467D01*
X192572348Y-89510087D01*
X192562778Y-89527991D01*
X192533448Y-89563729D01*
X192450186Y-89665186D01*
X192312989Y-89777779D01*
X192156466Y-89861443D01*
X192115733Y-89873799D01*
X191986626Y-89912963D01*
X191810000Y-89930359D01*
X191633373Y-89912963D01*
X191504266Y-89873799D01*
X191463533Y-89861443D01*
X191307011Y-89777779D01*
X191307009Y-89777778D01*
X191264749Y-89743096D01*
X191169814Y-89665186D01*
X191057221Y-89527989D01*
X190973557Y-89371466D01*
X190956384Y-89314852D01*
X190922037Y-89201626D01*
X190909000Y-89069257D01*
X190909000Y-88730742D01*
X190922037Y-88598373D01*
X190973557Y-88428534D01*
X190973557Y-88428533D01*
X191057222Y-88272008D01*
X191169812Y-88134817D01*
X191264750Y-88056904D01*
X191307010Y-88022222D01*
X191324914Y-88012652D01*
X191463534Y-87938557D01*
X191520148Y-87921384D01*
X191633374Y-87887037D01*
X191810000Y-87869641D01*
X191986627Y-87887037D01*
X191986627Y-87887037D01*
G37*
G36*
X189486627Y-87887037D02*
X189599853Y-87921384D01*
X189656467Y-87938557D01*
X189795087Y-88012652D01*
X189812991Y-88022222D01*
X189848729Y-88051552D01*
X189950186Y-88134814D01*
X190033448Y-88236271D01*
X190062778Y-88272009D01*
X190146443Y-88428534D01*
X190197963Y-88598374D01*
X190211000Y-88730743D01*
X190211000Y-89069258D01*
X190197963Y-89201627D01*
X190163616Y-89314853D01*
X190146443Y-89371467D01*
X190072348Y-89510087D01*
X190062778Y-89527991D01*
X190033448Y-89563729D01*
X189950186Y-89665186D01*
X189812989Y-89777779D01*
X189656466Y-89861443D01*
X189615733Y-89873799D01*
X189486626Y-89912963D01*
X189310000Y-89930359D01*
X189133373Y-89912963D01*
X189004266Y-89873799D01*
X188963533Y-89861443D01*
X188807011Y-89777779D01*
X188807009Y-89777778D01*
X188764749Y-89743096D01*
X188669814Y-89665186D01*
X188557221Y-89527989D01*
X188473557Y-89371466D01*
X188456384Y-89314852D01*
X188422037Y-89201626D01*
X188409000Y-89069257D01*
X188409000Y-88730742D01*
X188422037Y-88598373D01*
X188473557Y-88428534D01*
X188473557Y-88428533D01*
X188557222Y-88272008D01*
X188669812Y-88134817D01*
X188764750Y-88056904D01*
X188807010Y-88022222D01*
X188824914Y-88012652D01*
X188963534Y-87938557D01*
X189020148Y-87921384D01*
X189133374Y-87887037D01*
X189310000Y-87869641D01*
X189486627Y-87887037D01*
X189486627Y-87887037D01*
G37*
G36*
X186986627Y-87887037D02*
X187099853Y-87921384D01*
X187156467Y-87938557D01*
X187295087Y-88012652D01*
X187312991Y-88022222D01*
X187348729Y-88051552D01*
X187450186Y-88134814D01*
X187533448Y-88236271D01*
X187562778Y-88272009D01*
X187646443Y-88428534D01*
X187697963Y-88598374D01*
X187711000Y-88730743D01*
X187711000Y-89069258D01*
X187697963Y-89201627D01*
X187663616Y-89314853D01*
X187646443Y-89371467D01*
X187572348Y-89510087D01*
X187562778Y-89527991D01*
X187533448Y-89563729D01*
X187450186Y-89665186D01*
X187312989Y-89777779D01*
X187156466Y-89861443D01*
X187115733Y-89873799D01*
X186986626Y-89912963D01*
X186810000Y-89930359D01*
X186633373Y-89912963D01*
X186504266Y-89873799D01*
X186463533Y-89861443D01*
X186307011Y-89777779D01*
X186307009Y-89777778D01*
X186264749Y-89743096D01*
X186169814Y-89665186D01*
X186057221Y-89527989D01*
X185973557Y-89371466D01*
X185956384Y-89314852D01*
X185922037Y-89201626D01*
X185909000Y-89069257D01*
X185909000Y-88730742D01*
X185922037Y-88598373D01*
X185973557Y-88428534D01*
X185973557Y-88428533D01*
X186057222Y-88272008D01*
X186169812Y-88134817D01*
X186264750Y-88056904D01*
X186307010Y-88022222D01*
X186324914Y-88012652D01*
X186463534Y-87938557D01*
X186520148Y-87921384D01*
X186633374Y-87887037D01*
X186810000Y-87869641D01*
X186986627Y-87887037D01*
X186986627Y-87887037D01*
G37*
G36*
X195068600Y-87877989D02*
X195101649Y-87888014D01*
X195132106Y-87904294D01*
X195158799Y-87926201D01*
X195180706Y-87952894D01*
X195196986Y-87983351D01*
X195207011Y-88016400D01*
X195211000Y-88056904D01*
X195211000Y-89743096D01*
X195207011Y-89783600D01*
X195196986Y-89816649D01*
X195180706Y-89847106D01*
X195158799Y-89873799D01*
X195132106Y-89895706D01*
X195101649Y-89911986D01*
X195068600Y-89922011D01*
X195028096Y-89926000D01*
X193591904Y-89926000D01*
X193551400Y-89922011D01*
X193518351Y-89911986D01*
X193487894Y-89895706D01*
X193461201Y-89873799D01*
X193439294Y-89847106D01*
X193423014Y-89816649D01*
X193412989Y-89783600D01*
X193409000Y-89743096D01*
X193409000Y-88056904D01*
X193412989Y-88016400D01*
X193423014Y-87983351D01*
X193439294Y-87952894D01*
X193461201Y-87926201D01*
X193487894Y-87904294D01*
X193518351Y-87888014D01*
X193551400Y-87877989D01*
X193591904Y-87874000D01*
X195028096Y-87874000D01*
X195068600Y-87877989D01*
X195068600Y-87877989D01*
G37*
M02*
